<svg width="24" height="24" viewBox="0 0 24 24" fill="none" xmlns="http://www.w3.org/2000/svg">
<g clip-path="url(#clip0_47_191)">
<path fill-rule="evenodd" clip-rule="evenodd" d="M11.934 0C5.37928 0 0.065918 5.3724 0.065918 12C0.065918 18.6276 5.37928 24 11.934 24C12.0291 24 12.1239 23.9989 12.2185 23.9966C12.312 23.9989 12.4059 24 12.5 24C18.8513 24 24 18.8513 24 12.5C24 11.1162 23.7556 9.78941 23.3075 8.56057C21.8451 3.60922 17.3066 0 11.934 0Z" fill="#301E67"/>
<path fill-rule="evenodd" clip-rule="evenodd" d="M13.1209 6.00017C13.1209 5.68191 12.9958 5.37669 12.7733 5.15164C12.5507 4.9266 12.2488 4.80017 11.934 4.80017C11.6193 4.80017 11.3174 4.9266 11.0948 5.15164C10.8723 5.37669 10.7472 5.68191 10.7472 6.00017V10.8002H5.99998C5.68522 10.8002 5.38335 10.9266 5.16078 11.1516C4.93821 11.3767 4.81317 11.6819 4.81317 12.0002C4.81317 12.3184 4.93821 12.6237 5.16078 12.8487C5.38335 13.0737 5.68522 13.2002 5.99998 13.2002H10.7472V18.0002C10.7472 18.3184 10.8723 18.6237 11.0948 18.8487C11.3174 19.0737 11.6193 19.2002 11.934 19.2002C12.2488 19.2002 12.5507 19.0737 12.7733 18.8487C12.9958 18.6237 13.1209 18.3184 13.1209 18.0002V13.2002H17.8681C18.1829 13.2002 18.4847 13.0737 18.7073 12.8487C18.9299 12.6237 19.0549 12.3184 19.0549 12.0002C19.0549 11.6819 18.9299 11.3767 18.7073 11.1516C18.4847 10.9266 18.1829 10.8002 17.8681 10.8002H13.1209V6.00017Z" fill="white"/>
</g>
<defs>
<clipPath id="clip0_47_191">
<rect width="24" height="24" fill="white"/>
</clipPath>
</defs>
</svg>
