<svg width="26" height="26" viewBox="0 0 26 26" fill="none" xmlns="http://www.w3.org/2000/svg">
<mask id="path-1-outside-1_47_128" maskUnits="userSpaceOnUse" x="0" y="0" width="26" height="26" fill="black">
<rect fill="white" width="26" height="26"/>
<path fill-rule="evenodd" clip-rule="evenodd" d="M1 13C1 22.882 3.118 25 13 25C22.882 25 25 22.882 25 13C25 3.118 22.882 1 13 1C3.118 1 1 3.118 1 13Z"/>
</mask>
<path fill-rule="evenodd" clip-rule="evenodd" d="M1 13C1 22.882 3.118 25 13 25C22.882 25 25 22.882 25 13C25 3.118 22.882 1 13 1C3.118 1 1 3.118 1 13Z" fill="#301E67"/>
<path d="M13 24C10.5523 24 8.65366 23.8675 7.17298 23.5385C5.70365 23.2119 4.70794 22.7052 4.00136 21.9986C3.29478 21.2921 2.78807 20.2963 2.46153 18.827C2.13246 17.3463 2 15.4477 2 13H0C0 15.4933 0.132293 17.5652 0.509161 19.2609C0.888552 20.968 1.52897 22.3547 2.58714 23.4129C3.64531 24.471 5.03197 25.1114 6.73908 25.4908C8.43484 25.8677 10.5067 26 13 26V24ZM24 13C24 15.4477 23.8675 17.3463 23.5385 18.827C23.2119 20.2963 22.7052 21.2921 21.9986 21.9986C21.2921 22.7052 20.2963 23.2119 18.827 23.5385C17.3463 23.8675 15.4477 24 13 24V26C15.4933 26 17.5652 25.8677 19.2609 25.4908C20.968 25.1114 22.3547 24.471 23.4129 23.4129C24.471 22.3547 25.1114 20.968 25.4908 19.2609C25.8677 17.5652 26 15.4933 26 13H24ZM13 2C15.4477 2 17.3463 2.13246 18.827 2.46153C20.2963 2.78807 21.2921 3.29478 21.9986 4.00136C22.7052 4.70794 23.2119 5.70365 23.5385 7.17298C23.8675 8.65366 24 10.5523 24 13H26C26 10.5067 25.8677 8.43484 25.4908 6.73908C25.1114 5.03197 24.471 3.64531 23.4129 2.58714C22.3547 1.52897 20.968 0.888552 19.2609 0.509161C17.5652 0.132293 15.4933 0 13 0V2ZM2 13C2 10.5523 2.13246 8.65366 2.46153 7.17298C2.78807 5.70365 3.29478 4.70794 4.00136 4.00136C4.70794 3.29478 5.70365 2.78807 7.17298 2.46153C8.65366 2.13246 10.5523 2 13 2V0C10.5067 0 8.43484 0.132293 6.73908 0.509161C5.03197 0.888552 3.64531 1.52897 2.58714 2.58714C1.52897 3.64531 0.888552 5.03197 0.509161 6.73908C0.132293 8.43484 0 10.5067 0 13H2Z" fill="#301E67" mask="url(#path-1-outside-1_47_128)"/>
<path d="M7 15C7 15 9.76929 8 13 13C16.2308 18 19 11 19 11" stroke="white" stroke-width="2.5" stroke-linecap="round" stroke-linejoin="round"/>
</svg>
