<svg width="192" height="45" viewBox="0 0 192 45" fill="none" xmlns="http://www.w3.org/2000/svg">
<rect width="192" height="45" rx="8" fill="#DCD4E1"/>
<mask id="path-2-outside-1_47_306" maskUnits="userSpaceOnUse" x="18" y="9.5" width="26" height="26" fill="black">
<rect fill="white" x="18" y="9.5" width="26" height="26"/>
<path fill-rule="evenodd" clip-rule="evenodd" d="M19 22.5C19 32.382 21.118 34.5 31 34.5C40.882 34.5 43 32.382 43 22.5C43 12.618 40.882 10.5 31 10.5C21.118 10.5 19 12.618 19 22.5Z"/>
</mask>
<path fill-rule="evenodd" clip-rule="evenodd" d="M19 22.5C19 32.382 21.118 34.5 31 34.5C40.882 34.5 43 32.382 43 22.5C43 12.618 40.882 10.5 31 10.5C21.118 10.5 19 12.618 19 22.5Z" fill="#301E67"/>
<path d="M31 33.5C28.5523 33.5 26.6537 33.3675 25.173 33.0385C23.7037 32.7119 22.7079 32.2052 22.0014 31.4986C21.2948 30.7921 20.7881 29.7963 20.4615 28.327C20.1325 26.8463 20 24.9477 20 22.5H18C18 24.9933 18.1323 27.0652 18.5092 28.7609C18.8886 30.468 19.529 31.8547 20.5871 32.9129C21.6453 33.971 23.032 34.6114 24.7391 34.9908C26.4348 35.3677 28.5067 35.5 31 35.5V33.5ZM42 22.5C42 24.9477 41.8675 26.8463 41.5385 28.327C41.2119 29.7963 40.7052 30.7921 39.9986 31.4986C39.2921 32.2052 38.2963 32.7119 36.827 33.0385C35.3463 33.3675 33.4477 33.5 31 33.5V35.5C33.4933 35.5 35.5652 35.3677 37.2609 34.9908C38.968 34.6114 40.3547 33.971 41.4129 32.9129C42.471 31.8547 43.1114 30.468 43.4908 28.7609C43.8677 27.0652 44 24.9933 44 22.5H42ZM31 11.5C33.4477 11.5 35.3463 11.6325 36.827 11.9615C38.2963 12.2881 39.2921 12.7948 39.9986 13.5014C40.7052 14.2079 41.2119 15.2037 41.5385 16.673C41.8675 18.1537 42 20.0523 42 22.5H44C44 20.0067 43.8677 17.9348 43.4908 16.2391C43.1114 14.532 42.471 13.1453 41.4129 12.0871C40.3547 11.029 38.968 10.3886 37.2609 10.0092C35.5652 9.63229 33.4933 9.5 31 9.5V11.5ZM20 22.5C20 20.0523 20.1325 18.1537 20.4615 16.673C20.7881 15.2037 21.2948 14.2079 22.0014 13.5014C22.7079 12.7948 23.7037 12.2881 25.173 11.9615C26.6537 11.6325 28.5523 11.5 31 11.5V9.5C28.5067 9.5 26.4348 9.63229 24.7391 10.0092C23.032 10.3886 21.6453 11.029 20.5871 12.0871C19.529 13.1453 18.8886 14.532 18.5092 16.2391C18.1323 17.9348 18 20.0067 18 22.5H20Z" fill="#301E67" mask="url(#path-2-outside-1_47_306)"/>
<path d="M25 24.5C25 24.5 27.7693 17.5 31 22.5C34.2308 27.5 37 20.5 37 20.5" stroke="white" stroke-width="2.5" stroke-linecap="round" stroke-linejoin="round"/>
<path d="M74.0068 24.4648H68.7861L66.9932 29H66L71.168 16.0977H71.7393L76.8018 29H75.791L74.0068 24.4648ZM69.1113 23.6562H73.708L71.959 19.0244C71.8125 18.6611 71.6367 18.1572 71.4316 17.5127C71.2734 18.0752 71.1006 18.585 70.9131 19.042L69.1113 23.6562ZM85.0723 29V22.8037C85.0723 21.8428 84.8701 21.1455 84.4658 20.7119C84.0615 20.2725 83.4346 20.0527 82.585 20.0527C81.4424 20.0527 80.6045 20.3428 80.0713 20.9229C79.5439 21.4971 79.2803 22.4316 79.2803 23.7266V29H78.4102V19.4463H79.1484L79.3154 20.7559H79.3682C79.9893 19.7598 81.0938 19.2617 82.6816 19.2617C84.8496 19.2617 85.9336 20.4248 85.9336 22.751V29H85.0723ZM94.8281 29L94.6084 27.4883H94.5381C94.0576 28.1035 93.5625 28.54 93.0527 28.7979C92.5488 29.0498 91.9512 29.1758 91.2598 29.1758C90.3223 29.1758 89.5928 28.9355 89.0713 28.4551C88.5498 27.9746 88.2891 27.3096 88.2891 26.46C88.2891 25.5283 88.6758 24.8047 89.4492 24.2891C90.2285 23.7734 91.3535 23.501 92.8242 23.4717L94.6436 23.4189V22.7861C94.6436 21.8779 94.459 21.1924 94.0898 20.7295C93.7207 20.2666 93.126 20.0352 92.3057 20.0352C91.4209 20.0352 90.5039 20.2812 89.5547 20.7734L89.2295 20.0176C90.2783 19.5254 91.3154 19.2793 92.3408 19.2793C93.3896 19.2793 94.1719 19.5518 94.6875 20.0967C95.209 20.6416 95.4697 21.4912 95.4697 22.6455V29H94.8281ZM91.3125 28.3848C92.332 28.3848 93.1348 28.0947 93.7207 27.5146C94.3125 26.9287 94.6084 26.1172 94.6084 25.0801V24.1396L92.9385 24.21C91.5967 24.2744 90.6387 24.4854 90.0645 24.8428C89.4961 25.1943 89.2119 25.7451 89.2119 26.4951C89.2119 27.0928 89.3936 27.5586 89.7568 27.8926C90.126 28.2207 90.6445 28.3848 91.3125 28.3848ZM99.4424 29H98.5723V15.3242H99.4424V29ZM101.051 19.4463H101.947L103.969 24.8076C104.584 26.4541 104.974 27.5645 105.138 28.1387H105.19C105.437 27.3828 105.838 26.2549 106.395 24.7549L108.416 19.4463H109.312L105.032 30.5469C104.687 31.4492 104.396 32.0586 104.162 32.375C103.928 32.6914 103.652 32.9287 103.336 33.0869C103.025 33.2451 102.647 33.3242 102.202 33.3242C101.868 33.3242 101.496 33.2627 101.086 33.1396V32.3838C101.426 32.4775 101.792 32.5244 102.185 32.5244C102.483 32.5244 102.747 32.4541 102.976 32.3135C103.204 32.1729 103.409 31.9531 103.591 31.6543C103.778 31.3613 103.992 30.8926 104.232 30.248C104.479 29.6094 104.637 29.1934 104.707 29L101.051 19.4463ZM116.836 26.5127C116.836 27.3682 116.511 28.0273 115.86 28.4902C115.21 28.9473 114.287 29.1758 113.092 29.1758C111.814 29.1758 110.801 28.9795 110.051 28.5869V27.6465C111.012 28.127 112.025 28.3672 113.092 28.3672C114.035 28.3672 114.75 28.2119 115.236 27.9014C115.729 27.585 115.975 27.166 115.975 26.6445C115.975 26.1641 115.778 25.7598 115.386 25.4316C114.999 25.1035 114.36 24.7812 113.47 24.4648C112.515 24.1191 111.844 23.8232 111.457 23.5771C111.07 23.3252 110.777 23.0439 110.578 22.7334C110.385 22.417 110.288 22.0332 110.288 21.582C110.288 20.8672 110.587 20.3018 111.185 19.8857C111.788 19.4697 112.629 19.2617 113.707 19.2617C114.738 19.2617 115.717 19.4551 116.643 19.8418L116.317 20.6328C115.38 20.2461 114.51 20.0527 113.707 20.0527C112.928 20.0527 112.31 20.1816 111.853 20.4395C111.396 20.6973 111.167 21.0547 111.167 21.5117C111.167 22.0098 111.343 22.4082 111.694 22.707C112.052 23.0059 112.746 23.3398 113.777 23.709C114.639 24.0195 115.266 24.3008 115.658 24.5527C116.051 24.7988 116.344 25.0801 116.537 25.3965C116.736 25.7129 116.836 26.085 116.836 26.5127ZM120.167 29H119.297V19.4463H120.167V29ZM119.174 16.792C119.174 16.2295 119.358 15.9482 119.728 15.9482C119.909 15.9482 120.05 16.0215 120.149 16.168C120.255 16.3145 120.308 16.5225 120.308 16.792C120.308 17.0557 120.255 17.2637 120.149 17.416C120.05 17.5684 119.909 17.6445 119.728 17.6445C119.358 17.6445 119.174 17.3604 119.174 16.792ZM129.299 26.5127C129.299 27.3682 128.974 28.0273 128.323 28.4902C127.673 28.9473 126.75 29.1758 125.555 29.1758C124.277 29.1758 123.264 28.9795 122.514 28.5869V27.6465C123.475 28.127 124.488 28.3672 125.555 28.3672C126.498 28.3672 127.213 28.2119 127.699 27.9014C128.191 27.585 128.438 27.166 128.438 26.6445C128.438 26.1641 128.241 25.7598 127.849 25.4316C127.462 25.1035 126.823 24.7812 125.933 24.4648C124.978 24.1191 124.307 23.8232 123.92 23.5771C123.533 23.3252 123.24 23.0439 123.041 22.7334C122.848 22.417 122.751 22.0332 122.751 21.582C122.751 20.8672 123.05 20.3018 123.647 19.8857C124.251 19.4697 125.092 19.2617 126.17 19.2617C127.201 19.2617 128.18 19.4551 129.105 19.8418L128.78 20.6328C127.843 20.2461 126.973 20.0527 126.17 20.0527C125.391 20.0527 124.772 20.1816 124.315 20.4395C123.858 20.6973 123.63 21.0547 123.63 21.5117C123.63 22.0098 123.806 22.4082 124.157 22.707C124.515 23.0059 125.209 23.3398 126.24 23.709C127.102 24.0195 127.729 24.3008 128.121 24.5527C128.514 24.7988 128.807 25.0801 129 25.3965C129.199 25.7129 129.299 26.085 129.299 26.5127Z" fill="#301E67"/>
</svg>
