<svg width="24" height="24" viewBox="0 0 24 24" fill="none" xmlns="http://www.w3.org/2000/svg">
<path fill-rule="evenodd" clip-rule="evenodd" d="M0 5.5C0 10.0293 0.97075 11 5.5 11C10.0293 11 11 10.0293 11 5.5C11 0.97075 10.0293 0 5.5 0C0.97075 0 0 0.97075 0 5.5ZM2 5.5C2 6.58666 2.06084 7.32339 2.17482 7.83626C2.28375 8.3264 2.41292 8.48143 2.46574 8.53426C2.51857 8.58708 2.6736 8.71625 3.16375 8.82518C3.67661 8.93916 4.41334 9 5.5 9C6.58666 9 7.32339 8.93916 7.83626 8.82518C8.3264 8.71625 8.48143 8.58708 8.53426 8.53426C8.58708 8.48143 8.71625 8.3264 8.82518 7.83626C8.93916 7.32339 9 6.58666 9 5.5C9 4.41334 8.93916 3.67661 8.82518 3.16374C8.71625 2.6736 8.58708 2.51857 8.53426 2.46574C8.48143 2.41292 8.3264 2.28375 7.83626 2.17482C7.32339 2.06084 6.58666 2 5.5 2C4.41334 2 3.67661 2.06084 3.16375 2.17482C2.6736 2.28375 2.51857 2.41292 2.46574 2.46574C2.41292 2.51857 2.28375 2.6736 2.17482 3.16374C2.06084 3.67661 2 4.41334 2 5.5Z" fill="#301E67"/>
<path fill-rule="evenodd" clip-rule="evenodd" d="M13 18.5C13 23.0292 13.9707 24 18.5 24C23.0293 24 24 23.0292 24 18.5C24 13.9707 23.0293 13 18.5 13C13.9707 13 13 13.9707 13 18.5ZM15 18.5C15 19.5867 15.0608 20.3234 15.1748 20.8363C15.2837 21.3264 15.4129 21.4814 15.4657 21.5343C15.5186 21.5871 15.6736 21.7163 16.1637 21.8252C16.6766 21.9392 17.4133 22 18.5 22C19.5867 22 20.3234 21.9392 20.8363 21.8252C21.3264 21.7163 21.4814 21.5871 21.5343 21.5343C21.5871 21.4814 21.7163 21.3264 21.8252 20.8363C21.9392 20.3234 22 19.5867 22 18.5C22 17.4133 21.9392 16.6766 21.8252 16.1637C21.7163 15.6736 21.5871 15.5186 21.5343 15.4657C21.4814 15.4129 21.3264 15.2837 20.8363 15.1748C20.3234 15.0608 19.5867 15 18.5 15C17.4133 15 16.6766 15.0608 16.1637 15.1748C15.6736 15.2837 15.5186 15.4129 15.4657 15.4657C15.4129 15.5186 15.2837 15.6736 15.1748 16.1637C15.0608 16.6766 15 17.4133 15 18.5Z" fill="#301E67"/>
<path fill-rule="evenodd" clip-rule="evenodd" d="M14 9.89536C13.2323 9.07992 13 7.7158 13 5.5C13 0.97075 13.9708 0 18.5 0C23.0293 0 24 0.97075 24 5.5C24 10.0293 23.0293 11 18.5 11C16.2842 11 14.9201 10.7677 14.1046 10H14V9.89536ZM5.5 24C0.97075 24 0 23.0293 0 18.5C0 13.9708 0.97075 13 5.5 13C10.0293 13 11 13.9708 11 18.5C11 23.0293 10.0293 24 5.5 24Z" fill="#301E67"/>
</svg>
