<svg width="192" height="45" viewBox="0 0 192 45" fill="none" xmlns="http://www.w3.org/2000/svg">
<rect width="192" height="45" rx="8" fill="#DCD4E1"/>
<path d="M37.9135 27.6221L38.3395 31.0737C38.4487 31.9803 37.4765 32.6139 36.701 32.1442L32.1242 29.4243C31.6218 29.4243 31.1302 29.3916 30.6496 29.3261C31.4579 28.3757 31.9385 27.1742 31.9385 25.8743C31.9385 22.7722 29.2514 20.2599 25.9308 20.2599C24.6637 20.2599 23.495 20.6203 22.5228 21.2539C22.4901 20.9808 22.4791 20.7077 22.4791 20.4237C22.4791 15.4537 26.7937 11.4231 32.1242 11.4231C37.4547 11.4231 41.7693 15.4537 41.7693 20.4237C41.7693 23.3729 40.251 25.9836 37.9135 27.6221Z" fill="#DCD4E1" stroke="#301E67" stroke-width="2" stroke-linecap="round" stroke-linejoin="round"/>
<path d="M31.9385 25.8743C31.9385 27.1742 31.4579 28.3757 30.6496 29.326C29.5682 30.6368 27.8533 31.4779 25.9308 31.4779L23.0799 33.1709C22.5993 33.4658 21.9876 33.0617 22.0531 32.5046L22.3262 30.3528C20.8625 29.337 19.9231 27.7094 19.9231 25.8743C19.9231 23.9518 20.9499 22.2588 22.5228 21.2539C23.495 20.6203 24.6637 20.2599 25.9308 20.2599C29.2514 20.2599 31.9385 22.7721 31.9385 25.8743Z" fill="#301E67" stroke="#301E67" stroke-width="2" stroke-linecap="round" stroke-linejoin="round"/>
<path d="M72.873 22.5225H77.6104V28.3848C76.3682 28.9121 74.9707 29.1758 73.418 29.1758C71.3906 29.1758 69.835 28.6045 68.751 27.4619C67.6729 26.3135 67.1338 24.6904 67.1338 22.5928C67.1338 21.2861 67.4004 20.1289 67.9336 19.1211C68.4727 18.1074 69.2402 17.3252 70.2363 16.7744C71.2383 16.2236 72.3867 15.9482 73.6816 15.9482C75.082 15.9482 76.3389 16.2061 77.4521 16.7217L77.0918 17.5303C75.9785 17.0146 74.8242 16.7568 73.6289 16.7568C71.9355 16.7568 70.5908 17.2812 69.5947 18.3301C68.6045 19.373 68.1094 20.7822 68.1094 22.5576C68.1094 24.4912 68.5811 25.9473 69.5244 26.9258C70.4678 27.8984 71.8535 28.3848 73.6816 28.3848C74.8652 28.3848 75.8701 28.2178 76.6963 27.8838V23.3662H72.873V22.5225ZM84.4834 29.1758C83.0947 29.1758 82.0107 28.748 81.2314 27.8926C80.458 27.0371 80.0713 25.8389 80.0713 24.2979C80.0713 22.7744 80.4463 21.5557 81.1963 20.6416C81.9463 19.7217 82.957 19.2617 84.2285 19.2617C85.3535 19.2617 86.2412 19.6543 86.8916 20.4395C87.542 21.2246 87.8672 22.291 87.8672 23.6387V24.3418H80.9854C80.9971 25.6543 81.3018 26.6562 81.8994 27.3477C82.5029 28.0391 83.3643 28.3848 84.4834 28.3848C85.0283 28.3848 85.5059 28.3467 85.916 28.2705C86.332 28.1943 86.8564 28.0303 87.4893 27.7783V28.5693C86.9502 28.8037 86.4521 28.9619 85.9951 29.0439C85.5381 29.1318 85.0342 29.1758 84.4834 29.1758ZM84.2285 20.0352C83.3086 20.0352 82.5703 20.3398 82.0137 20.9492C81.457 21.5527 81.1318 22.4258 81.0381 23.5684H86.9443C86.9443 22.4609 86.7041 21.5967 86.2236 20.9756C85.7432 20.3486 85.0781 20.0352 84.2285 20.0352ZM93.0264 28.4023C93.5771 28.4023 94.0576 28.3555 94.4678 28.2617V28.9648C94.0459 29.1055 93.5596 29.1758 93.0088 29.1758C92.165 29.1758 91.541 28.9502 91.1367 28.499C90.7383 28.0479 90.5391 27.3389 90.5391 26.3721V20.2021H89.124V19.6924L90.5391 19.2969L90.9785 17.1348H91.4268V19.4463H94.2305V20.2021H91.4268V26.249C91.4268 26.9814 91.5557 27.5234 91.8135 27.875C92.0713 28.2266 92.4756 28.4023 93.0264 28.4023ZM107.871 29V22.8037C107.871 21.8428 107.669 21.1455 107.265 20.7119C106.86 20.2725 106.233 20.0527 105.384 20.0527C104.241 20.0527 103.403 20.3428 102.87 20.9229C102.343 21.4971 102.079 22.4316 102.079 23.7266V29H101.209V15.3242H102.079V19.6748L102.035 20.8965H102.097C102.454 20.3223 102.905 19.9062 103.45 19.6484C103.995 19.3906 104.672 19.2617 105.48 19.2617C107.648 19.2617 108.732 20.4248 108.732 22.751V29H107.871ZM115.685 29.1758C114.296 29.1758 113.212 28.748 112.433 27.8926C111.659 27.0371 111.272 25.8389 111.272 24.2979C111.272 22.7744 111.647 21.5557 112.397 20.6416C113.147 19.7217 114.158 19.2617 115.43 19.2617C116.555 19.2617 117.442 19.6543 118.093 20.4395C118.743 21.2246 119.068 22.291 119.068 23.6387V24.3418H112.187C112.198 25.6543 112.503 26.6562 113.101 27.3477C113.704 28.0391 114.565 28.3848 115.685 28.3848C116.229 28.3848 116.707 28.3467 117.117 28.2705C117.533 28.1943 118.058 28.0303 118.69 27.7783V28.5693C118.151 28.8037 117.653 28.9619 117.196 29.0439C116.739 29.1318 116.235 29.1758 115.685 29.1758ZM115.43 20.0352C114.51 20.0352 113.771 20.3398 113.215 20.9492C112.658 21.5527 112.333 22.4258 112.239 23.5684H118.146C118.146 22.4609 117.905 21.5967 117.425 20.9756C116.944 20.3486 116.279 20.0352 115.43 20.0352ZM122.575 29H121.705V15.3242H122.575V29ZM129.87 29.1758C128.399 29.1758 127.327 28.625 126.653 27.5234H126.592L126.618 28.2617C126.642 28.6953 126.653 29.1699 126.653 29.6855V33.3242H125.783V19.4463H126.521L126.688 20.8086H126.741C127.397 19.7773 128.446 19.2617 129.888 19.2617C131.177 19.2617 132.158 19.6865 132.832 20.5361C133.512 21.3799 133.852 22.6104 133.852 24.2275C133.852 25.7979 133.494 27.0166 132.779 27.8838C132.07 28.7451 131.101 29.1758 129.87 29.1758ZM129.853 28.4023C130.831 28.4023 131.587 28.0391 132.12 27.3125C132.659 26.5859 132.929 25.5693 132.929 24.2627C132.929 21.4561 131.915 20.0527 129.888 20.0527C128.774 20.0527 127.957 20.3604 127.436 20.9756C126.914 21.585 126.653 22.5811 126.653 23.9639V24.2451C126.653 25.7393 126.902 26.8057 127.4 27.4443C127.904 28.083 128.722 28.4023 129.853 28.4023Z" fill="#301E67"/>
</svg>
