<svg width="20" height="24" viewBox="0 0 20 24" fill="none" xmlns="http://www.w3.org/2000/svg">
<path fill-rule="evenodd" clip-rule="evenodd" d="M9.45368 0.0810438C11.7055 -0.420556 13.3389 1.49464 13.3389 3.38824L9.6 11.7882L13.3389 20.1882C13.3389 22.0818 11.7055 23.997 9.45368 23.4954C4.04291 22.2906 0 17.5074 0 11.7882C0 6.06904 4.04291 1.28584 9.45368 0.0810438ZM13.4924 7.33984C13.7198 7.11488 14.0282 6.9885 14.3497 6.9885C14.6713 6.9885 14.9797 7.11488 15.2071 7.33984L18.845 10.9398C19.0723 11.1649 19.2 11.47 19.2 11.7882C19.2 12.1064 19.0723 12.4116 18.845 12.6366L15.2071 16.2366C14.9784 16.4552 14.672 16.5762 14.3541 16.5735C14.0361 16.5707 13.732 16.4445 13.5072 16.222C13.2823 15.9995 13.1548 15.6986 13.152 15.3839C13.1493 15.0693 13.2715 14.7662 13.4924 14.5398L15.0603 12.9882H7.27579C6.95418 12.9882 6.64574 12.8618 6.41833 12.6368C6.19092 12.4117 6.06316 12.1065 6.06316 11.7882C6.06316 11.47 6.19092 11.1648 6.41833 10.9397C6.64574 10.7147 6.95418 10.5882 7.27579 10.5882H15.0603L13.4924 9.03664C13.2651 8.81161 13.1374 8.50644 13.1374 8.18824C13.1374 7.87005 13.2651 7.56488 13.4924 7.33984Z" fill="#301E67"/>
</svg>
