<svg width="192" height="45" viewBox="0 0 192 45" fill="none" xmlns="http://www.w3.org/2000/svg">
<rect width="192" height="45" rx="8" fill="#DCD4E1"/>
<g clip-path="url(#clip0_47_145)">
<path d="M27.6044 21.5385C29.1257 21.5385 30.5848 20.9306 31.6605 19.8487C32.7363 18.7668 33.3407 17.2993 33.3407 15.7692C33.3407 14.2391 32.7363 12.7717 31.6605 11.6898C30.5848 10.6078 29.1257 10 27.6044 10C26.083 10 24.624 10.6078 23.5482 11.6898C22.4725 12.7717 21.8681 14.2391 21.8681 15.7692C21.8681 17.2993 22.4725 18.7668 23.5482 19.8487C24.624 20.9306 26.083 21.5385 27.6044 21.5385ZM40.511 21.5385C41.652 21.5385 42.7463 21.0826 43.5531 20.2711C44.3599 19.4597 44.8132 18.3591 44.8132 17.2115C44.8132 16.064 44.3599 14.9634 43.5531 14.1519C42.7463 13.3405 41.652 12.8846 40.511 12.8846C39.37 12.8846 38.2757 13.3405 37.4689 14.1519C36.6621 14.9634 36.2088 16.064 36.2088 17.2115C36.2088 18.3591 36.6621 19.4597 37.4689 20.2711C38.2757 21.0826 39.37 21.5385 40.511 21.5385ZM22.2266 24.4231C21.3709 24.4231 20.5502 24.765 19.9451 25.3736C19.3399 25.9822 19 26.8076 19 27.6683V28.0288C19 28.0288 19 34.5192 27.6044 34.5192C36.2088 34.5192 36.2088 28.0288 36.2088 28.0288V27.6683C36.2088 26.8076 35.8688 25.9822 35.2637 25.3736C34.6586 24.765 33.8379 24.4231 32.9821 24.4231H22.2266ZM40.511 32.3558C38.8317 32.3558 37.5453 32.0947 36.5601 31.6952C37.1335 30.7219 37.4934 29.6366 37.6156 28.512C37.6296 28.3754 37.6387 28.2383 37.6429 28.101V27.6683C37.6447 26.46 37.1811 25.2979 36.3493 24.426C36.3981 24.4239 36.4468 24.423 36.4956 24.4231H44.5264C45.3631 24.4231 46.1656 24.7574 46.7573 25.3525C47.3489 25.9475 47.6813 26.7546 47.6813 27.5962C47.6813 27.5962 47.6813 32.3558 40.511 32.3558Z" fill="#301E67"/>
</g>
<path d="M74.9121 25.6865C74.9121 26.7588 74.5166 27.6084 73.7256 28.2354C72.9404 28.8623 71.8945 29.1758 70.5879 29.1758C69.0176 29.1758 67.8135 29.0029 66.9756 28.6572V27.7607C67.9014 28.1533 69.082 28.3496 70.5176 28.3496C71.5723 28.3496 72.4072 28.1094 73.0225 27.6289C73.6436 27.1426 73.9541 26.5068 73.9541 25.7217C73.9541 25.2354 73.8516 24.834 73.6465 24.5176C73.4414 24.1953 73.1074 23.9023 72.6445 23.6387C72.1816 23.375 71.502 23.0908 70.6055 22.7861C69.293 22.335 68.3848 21.8486 67.8809 21.3271C67.3828 20.7998 67.1338 20.0996 67.1338 19.2266C67.1338 18.2656 67.5088 17.4834 68.2588 16.8799C69.0146 16.2705 69.9844 15.9658 71.168 15.9658C72.375 15.9658 73.5088 16.1943 74.5693 16.6514L74.2441 17.4248C73.1777 16.9795 72.1582 16.7568 71.1855 16.7568C70.2363 16.7568 69.4805 16.9766 68.918 17.416C68.3555 17.8555 68.0742 18.4531 68.0742 19.209C68.0742 19.6836 68.1592 20.0732 68.3291 20.3779C68.5049 20.6826 68.7891 20.958 69.1816 21.2041C69.5742 21.4443 70.248 21.7344 71.2031 22.0742C72.2051 22.4199 72.958 22.7568 73.4619 23.085C73.9658 23.4072 74.332 23.7764 74.5605 24.1924C74.7949 24.6025 74.9121 25.1006 74.9121 25.6865ZM79.9307 28.4023C80.4814 28.4023 80.9619 28.3555 81.3721 28.2617V28.9648C80.9502 29.1055 80.4639 29.1758 79.9131 29.1758C79.0693 29.1758 78.4453 28.9502 78.041 28.499C77.6426 28.0479 77.4434 27.3389 77.4434 26.3721V20.2021H76.0283V19.6924L77.4434 19.2969L77.8828 17.1348H78.3311V19.4463H81.1348V20.2021H78.3311V26.249C78.3311 26.9814 78.46 27.5234 78.7178 27.875C78.9756 28.2266 79.3799 28.4023 79.9307 28.4023ZM89.2383 29L89.0186 27.4883H88.9482C88.4678 28.1035 87.9727 28.54 87.4629 28.7979C86.959 29.0498 86.3613 29.1758 85.6699 29.1758C84.7324 29.1758 84.0029 28.9355 83.4814 28.4551C82.96 27.9746 82.6992 27.3096 82.6992 26.46C82.6992 25.5283 83.0859 24.8047 83.8594 24.2891C84.6387 23.7734 85.7637 23.501 87.2344 23.4717L89.0537 23.4189V22.7861C89.0537 21.8779 88.8691 21.1924 88.5 20.7295C88.1309 20.2666 87.5361 20.0352 86.7158 20.0352C85.8311 20.0352 84.9141 20.2812 83.9648 20.7734L83.6396 20.0176C84.6885 19.5254 85.7256 19.2793 86.751 19.2793C87.7998 19.2793 88.582 19.5518 89.0977 20.0967C89.6191 20.6416 89.8799 21.4912 89.8799 22.6455V29H89.2383ZM85.7227 28.3848C86.7422 28.3848 87.5449 28.0947 88.1309 27.5146C88.7227 26.9287 89.0186 26.1172 89.0186 25.0801V24.1396L87.3486 24.21C86.0068 24.2744 85.0488 24.4854 84.4746 24.8428C83.9062 25.1943 83.6221 25.7451 83.6221 26.4951C83.6221 27.0928 83.8037 27.5586 84.167 27.8926C84.5361 28.2207 85.0547 28.3848 85.7227 28.3848ZM96.5332 20.2021H94.2832V29H93.4131V20.2021H91.6377V19.6924L93.4131 19.3672V18.6289C93.4131 17.457 93.627 16.5986 94.0547 16.0537C94.4883 15.5029 95.1943 15.2275 96.1729 15.2275C96.7002 15.2275 97.2275 15.3066 97.7549 15.4648L97.5527 16.2207C97.084 16.0742 96.6182 16.001 96.1553 16.001C95.4756 16.001 94.9922 16.2031 94.7051 16.6074C94.4238 17.0059 94.2832 17.6562 94.2832 18.5586V19.4463H96.5332V20.2021ZM101.93 20.2021H99.6797V29H98.8096V20.2021H97.0342V19.6924L98.8096 19.3672V18.6289C98.8096 17.457 99.0234 16.5986 99.4512 16.0537C99.8848 15.5029 100.591 15.2275 101.569 15.2275C102.097 15.2275 102.624 15.3066 103.151 15.4648L102.949 16.2207C102.48 16.0742 102.015 16.001 101.552 16.001C100.872 16.001 100.389 16.2031 100.102 16.6074C99.8203 17.0059 99.6797 17.6562 99.6797 18.5586V19.4463H101.93V20.2021ZM109.717 26.5127C109.717 27.3682 109.392 28.0273 108.741 28.4902C108.091 28.9473 107.168 29.1758 105.973 29.1758C104.695 29.1758 103.682 28.9795 102.932 28.5869V27.6465C103.893 28.127 104.906 28.3672 105.973 28.3672C106.916 28.3672 107.631 28.2119 108.117 27.9014C108.609 27.585 108.855 27.166 108.855 26.6445C108.855 26.1641 108.659 25.7598 108.267 25.4316C107.88 25.1035 107.241 24.7812 106.351 24.4648C105.396 24.1191 104.725 23.8232 104.338 23.5771C103.951 23.3252 103.658 23.0439 103.459 22.7334C103.266 22.417 103.169 22.0332 103.169 21.582C103.169 20.8672 103.468 20.3018 104.065 19.8857C104.669 19.4697 105.51 19.2617 106.588 19.2617C107.619 19.2617 108.598 19.4551 109.523 19.8418L109.198 20.6328C108.261 20.2461 107.391 20.0527 106.588 20.0527C105.809 20.0527 105.19 20.1816 104.733 20.4395C104.276 20.6973 104.048 21.0547 104.048 21.5117C104.048 22.0098 104.224 22.4082 104.575 22.707C104.933 23.0059 105.627 23.3398 106.658 23.709C107.52 24.0195 108.146 24.3008 108.539 24.5527C108.932 24.7988 109.225 25.0801 109.418 25.3965C109.617 25.7129 109.717 26.085 109.717 26.5127Z" fill="#301E67"/>
<defs>
<clipPath id="clip0_47_145">
<rect width="29" height="25" fill="white" transform="translate(19 10)"/>
</clipPath>
</defs>
</svg>
