<svg width="192" height="45" viewBox="0 0 192 45" fill="none" xmlns="http://www.w3.org/2000/svg">
<rect width="192" height="45" rx="8" fill="#301E67"/>
<mask id="path-2-outside-1_47_1098" maskUnits="userSpaceOnUse" x="18" y="9.5" width="26" height="26" fill="black">
<rect fill="white" x="18" y="9.5" width="26" height="26"/>
<path fill-rule="evenodd" clip-rule="evenodd" d="M19 22.5C19 32.382 21.118 34.5 31 34.5C40.882 34.5 43 32.382 43 22.5C43 12.618 40.882 10.5 31 10.5C21.118 10.5 19 12.618 19 22.5Z"/>
</mask>
<path fill-rule="evenodd" clip-rule="evenodd" d="M19 22.5C19 32.382 21.118 34.5 31 34.5C40.882 34.5 43 32.382 43 22.5C43 12.618 40.882 10.5 31 10.5C21.118 10.5 19 12.618 19 22.5Z" fill="#301E67"/>
<path d="M31 33.5C28.5523 33.5 26.6537 33.3675 25.173 33.0385C23.7037 32.7119 22.7079 32.2052 22.0014 31.4986C21.2948 30.7921 20.7881 29.7963 20.4615 28.327C20.1325 26.8463 20 24.9477 20 22.5H18C18 24.9933 18.1323 27.0652 18.5092 28.7609C18.8886 30.468 19.529 31.8547 20.5871 32.9129C21.6453 33.971 23.032 34.6114 24.7391 34.9908C26.4348 35.3677 28.5067 35.5 31 35.5V33.5ZM42 22.5C42 24.9477 41.8675 26.8463 41.5385 28.327C41.2119 29.7963 40.7052 30.7921 39.9986 31.4986C39.2921 32.2052 38.2963 32.7119 36.827 33.0385C35.3463 33.3675 33.4477 33.5 31 33.5V35.5C33.4933 35.5 35.5652 35.3677 37.2609 34.9908C38.968 34.6114 40.3547 33.971 41.4129 32.9129C42.471 31.8547 43.1114 30.468 43.4908 28.7609C43.8677 27.0652 44 24.9933 44 22.5H42ZM31 11.5C33.4477 11.5 35.3463 11.6325 36.827 11.9615C38.2963 12.2881 39.2921 12.7948 39.9986 13.5014C40.7052 14.2079 41.2119 15.2037 41.5385 16.673C41.8675 18.1537 42 20.0523 42 22.5H44C44 20.0067 43.8677 17.9348 43.4908 16.2391C43.1114 14.532 42.471 13.1453 41.4129 12.0871C40.3547 11.029 38.968 10.3886 37.2609 10.0092C35.5652 9.63229 33.4933 9.5 31 9.5V11.5ZM20 22.5C20 20.0523 20.1325 18.1537 20.4615 16.673C20.7881 15.2037 21.2948 14.2079 22.0014 13.5014C22.7079 12.7948 23.7037 12.2881 25.173 11.9615C26.6537 11.6325 28.5523 11.5 31 11.5V9.5C28.5067 9.5 26.4348 9.63229 24.7391 10.0092C23.032 10.3886 21.6453 11.029 20.5871 12.0871C19.529 13.1453 18.8886 14.532 18.5092 16.2391C18.1323 17.9348 18 20.0067 18 22.5H20Z" fill="#301E67" mask="url(#path-2-outside-1_47_1098)"/>
<path d="M25 24.5C25 24.5 27.7693 17.5 31 22.5C34.2308 27.5 37 20.5 37 20.5" stroke="white" stroke-width="2.5" stroke-linecap="round" stroke-linejoin="round"/>
<path d="M75.8525 29L74.1035 24.4561H68.707L66.9229 29H66L71.0537 16.1064H71.8799L76.8018 29H75.8525ZM73.8135 23.6387L72.0381 18.8223C71.9912 18.6992 71.9326 18.541 71.8623 18.3477C71.7979 18.1543 71.7275 17.9492 71.6514 17.7324C71.5811 17.5156 71.5107 17.3105 71.4404 17.1172C71.3818 17.3223 71.3174 17.5273 71.2471 17.7324C71.1768 17.9375 71.1094 18.1367 71.0449 18.3301C70.9805 18.5176 70.9189 18.6875 70.8604 18.8398L69.0146 23.6387H73.8135ZM82.6025 19.2617C83.6748 19.2617 84.498 19.543 85.0723 20.1055C85.6465 20.668 85.9336 21.5498 85.9336 22.751V29H85.0547V22.8037C85.0547 21.8545 84.8379 21.1572 84.4043 20.7119C83.9707 20.2666 83.3408 20.0439 82.5146 20.0439C81.4658 20.0439 80.6631 20.3516 80.1064 20.9668C79.5557 21.5762 79.2803 22.499 79.2803 23.7354V29H78.3926V19.4463H79.1133L79.2451 21.1865H79.2979C79.4678 20.8291 79.6992 20.5068 79.9922 20.2197C80.291 19.9268 80.6572 19.6953 81.0908 19.5254C81.5244 19.3496 82.0283 19.2617 82.6025 19.2617ZM92.3672 19.2793C93.416 19.2793 94.2012 19.543 94.7227 20.0703C95.2441 20.5977 95.5049 21.4385 95.5049 22.5928V29H94.8193L94.6611 27.3301H94.6084C94.4033 27.6875 94.1543 28.0068 93.8613 28.2881C93.5684 28.5635 93.208 28.7803 92.7803 28.9385C92.3584 29.0967 91.8428 29.1758 91.2334 29.1758C90.6182 29.1758 90.0908 29.0732 89.6514 28.8682C89.2178 28.6631 88.8809 28.3643 88.6406 27.9717C88.4062 27.5791 88.2891 27.1016 88.2891 26.5391C88.2891 25.5898 88.6816 24.8691 89.4668 24.377C90.252 23.8789 91.3799 23.5977 92.8506 23.5332L94.626 23.4453V22.751C94.626 21.7725 94.4326 21.0752 94.0459 20.6592C93.6592 20.2432 93.0879 20.0352 92.332 20.0352C91.8398 20.0352 91.3652 20.0996 90.9082 20.2285C90.457 20.3516 89.9971 20.5303 89.5283 20.7646L89.2471 20.0264C89.7041 19.8096 90.1934 19.6309 90.7148 19.4902C91.2422 19.3496 91.793 19.2793 92.3672 19.2793ZM94.6172 24.1396L92.9473 24.21C91.7344 24.2686 90.8115 24.4854 90.1787 24.8604C89.5459 25.2354 89.2295 25.7979 89.2295 26.5479C89.2295 27.1514 89.417 27.6143 89.792 27.9365C90.1729 28.2588 90.7002 28.4199 91.374 28.4199C92.4229 28.4199 93.2227 28.1211 93.7734 27.5234C94.3301 26.9258 94.6113 26.1113 94.6172 25.0801V24.1396ZM99.4775 29H98.5811V15.3242H99.4775V29ZM101.077 19.4463H102.018L104.338 25.5107C104.479 25.8682 104.602 26.1992 104.707 26.5039C104.818 26.8027 104.915 27.0781 104.997 27.3301C105.079 27.5762 105.146 27.8018 105.199 28.0068H105.252C105.34 27.7373 105.457 27.3916 105.604 26.9697C105.75 26.542 105.917 26.0674 106.104 25.5459L108.398 19.4463H109.348L104.988 30.793C104.777 31.3438 104.546 31.8096 104.294 32.1904C104.042 32.5771 103.746 32.8672 103.406 33.0605C103.066 33.2598 102.656 33.3594 102.176 33.3594C101.959 33.3594 101.763 33.3418 101.587 33.3066C101.411 33.2773 101.241 33.2363 101.077 33.1836V32.4189C101.229 32.4658 101.385 32.5039 101.543 32.5332C101.707 32.5684 101.886 32.5859 102.079 32.5859C102.413 32.5859 102.7 32.5156 102.94 32.375C103.187 32.2402 103.406 32.0293 103.6 31.7422C103.793 31.4551 103.975 31.0889 104.145 30.6436L104.795 28.9473L101.077 19.4463ZM116.889 26.4951C116.889 27.0635 116.745 27.5498 116.458 27.9541C116.177 28.3525 115.764 28.6572 115.219 28.8682C114.674 29.0732 114.003 29.1758 113.206 29.1758C112.544 29.1758 111.952 29.1172 111.431 29C110.909 28.8828 110.473 28.7393 110.121 28.5693V27.6904C110.561 27.9072 111.047 28.083 111.58 28.2178C112.113 28.3525 112.661 28.4199 113.224 28.4199C114.208 28.4199 114.917 28.2529 115.351 27.9189C115.784 27.585 116.001 27.1279 116.001 26.5479C116.001 26.167 115.893 25.8535 115.676 25.6074C115.465 25.3555 115.16 25.1387 114.762 24.957C114.363 24.7754 113.883 24.5908 113.32 24.4033C112.734 24.2041 112.213 24.0078 111.756 23.8145C111.305 23.6152 110.95 23.3545 110.692 23.0322C110.435 22.7041 110.306 22.2588 110.306 21.6963C110.306 20.9287 110.613 20.3311 111.229 19.9033C111.844 19.4756 112.67 19.2617 113.707 19.2617C114.281 19.2617 114.814 19.3174 115.307 19.4287C115.805 19.5342 116.256 19.6719 116.66 19.8418L116.344 20.5977C115.98 20.4277 115.562 20.29 115.087 20.1846C114.612 20.0791 114.138 20.0264 113.663 20.0264C112.884 20.0264 112.274 20.1641 111.835 20.4395C111.396 20.7148 111.176 21.1191 111.176 21.6523C111.176 22.0625 111.281 22.3848 111.492 22.6191C111.703 22.8477 112.005 23.041 112.397 23.1992C112.79 23.3516 113.256 23.5215 113.795 23.709C114.352 23.9023 114.864 24.1045 115.333 24.3154C115.808 24.5264 116.186 24.7988 116.467 25.1328C116.748 25.4668 116.889 25.9209 116.889 26.4951ZM120.185 19.4463V29H119.297V19.4463H120.185ZM119.754 15.9131C119.977 15.9131 120.141 15.9805 120.246 16.1152C120.352 16.2441 120.404 16.4199 120.404 16.6426C120.404 16.8652 120.352 17.041 120.246 17.1699C120.141 17.2988 119.977 17.3633 119.754 17.3633C119.543 17.3633 119.385 17.2988 119.279 17.1699C119.174 17.041 119.121 16.8652 119.121 16.6426C119.121 16.4199 119.174 16.2441 119.279 16.1152C119.385 15.9805 119.543 15.9131 119.754 15.9131ZM129.352 26.4951C129.352 27.0635 129.208 27.5498 128.921 27.9541C128.64 28.3525 128.227 28.6572 127.682 28.8682C127.137 29.0732 126.466 29.1758 125.669 29.1758C125.007 29.1758 124.415 29.1172 123.894 29C123.372 28.8828 122.936 28.7393 122.584 28.5693V27.6904C123.023 27.9072 123.51 28.083 124.043 28.2178C124.576 28.3525 125.124 28.4199 125.687 28.4199C126.671 28.4199 127.38 28.2529 127.813 27.9189C128.247 27.585 128.464 27.1279 128.464 26.5479C128.464 26.167 128.355 25.8535 128.139 25.6074C127.928 25.3555 127.623 25.1387 127.225 24.957C126.826 24.7754 126.346 24.5908 125.783 24.4033C125.197 24.2041 124.676 24.0078 124.219 23.8145C123.768 23.6152 123.413 23.3545 123.155 23.0322C122.897 22.7041 122.769 22.2588 122.769 21.6963C122.769 20.9287 123.076 20.3311 123.691 19.9033C124.307 19.4756 125.133 19.2617 126.17 19.2617C126.744 19.2617 127.277 19.3174 127.77 19.4287C128.268 19.5342 128.719 19.6719 129.123 19.8418L128.807 20.5977C128.443 20.4277 128.024 20.29 127.55 20.1846C127.075 20.0791 126.601 20.0264 126.126 20.0264C125.347 20.0264 124.737 20.1641 124.298 20.4395C123.858 20.7148 123.639 21.1191 123.639 21.6523C123.639 22.0625 123.744 22.3848 123.955 22.6191C124.166 22.8477 124.468 23.041 124.86 23.1992C125.253 23.3516 125.719 23.5215 126.258 23.709C126.814 23.9023 127.327 24.1045 127.796 24.3154C128.271 24.5264 128.648 24.7988 128.93 25.1328C129.211 25.4668 129.352 25.9209 129.352 26.4951Z" fill="white"/>
<path d="M187 15C187 12.2386 189.239 10 192 10V35C189.239 35 187 32.7614 187 30V15Z" fill="white"/>
</svg>
