<svg width="192" height="45" viewBox="0 0 192 45" fill="none" xmlns="http://www.w3.org/2000/svg">
<rect width="192" height="45" rx="8" fill="#301E67"/>
<path fill-rule="evenodd" clip-rule="evenodd" d="M19 16C19 20.5293 19.9707 21.5 24.5 21.5C29.0293 21.5 30 20.5293 30 16C30 11.4707 29.0293 10.5 24.5 10.5C19.9707 10.5 19 11.4707 19 16ZM21 16C21 17.0867 21.0608 17.8234 21.1748 18.3363C21.2837 18.8264 21.4129 18.9814 21.4657 19.0343C21.5186 19.0871 21.6736 19.2163 22.1637 19.3252C22.6766 19.4392 23.4133 19.5 24.5 19.5C25.5867 19.5 26.3234 19.4392 26.8363 19.3252C27.3264 19.2163 27.4814 19.0871 27.5343 19.0343C27.5871 18.9814 27.7163 18.8264 27.8252 18.3363C27.9392 17.8234 28 17.0867 28 16C28 14.9133 27.9392 14.1766 27.8252 13.6637C27.7163 13.1736 27.5871 13.0186 27.5343 12.9657C27.4814 12.9129 27.3264 12.7837 26.8363 12.6748C26.3234 12.5608 25.5867 12.5 24.5 12.5C23.4133 12.5 22.6766 12.5608 22.1637 12.6748C21.6736 12.7837 21.5186 12.9129 21.4657 12.9657C21.4129 13.0186 21.2837 13.1736 21.1748 13.6637C21.0608 14.1766 21 14.9133 21 16Z" fill="white"/>
<path fill-rule="evenodd" clip-rule="evenodd" d="M32 29C32 33.5292 32.9707 34.5 37.5 34.5C42.0293 34.5 43 33.5292 43 29C43 24.4707 42.0293 23.5 37.5 23.5C32.9707 23.5 32 24.4707 32 29ZM34 29C34 30.0867 34.0608 30.8234 34.1748 31.3363C34.2837 31.8264 34.4129 31.9814 34.4657 32.0343C34.5186 32.0871 34.6736 32.2163 35.1637 32.3252C35.6766 32.4392 36.4133 32.5 37.5 32.5C38.5867 32.5 39.3234 32.4392 39.8363 32.3252C40.3264 32.2163 40.4814 32.0871 40.5343 32.0343C40.5871 31.9814 40.7163 31.8264 40.8252 31.3363C40.9392 30.8234 41 30.0867 41 29C41 27.9133 40.9392 27.1766 40.8252 26.6637C40.7163 26.1736 40.5871 26.0186 40.5343 25.9657C40.4814 25.9129 40.3264 25.7837 39.8363 25.6748C39.3234 25.5608 38.5867 25.5 37.5 25.5C36.4133 25.5 35.6766 25.5608 35.1637 25.6748C34.6736 25.7837 34.5186 25.9129 34.4657 25.9657C34.4129 26.0186 34.2837 26.1736 34.1748 26.6637C34.0608 27.1766 34 27.9133 34 29Z" fill="white"/>
<path fill-rule="evenodd" clip-rule="evenodd" d="M33 20.3954C32.2323 19.5799 32 18.2158 32 16C32 11.4707 32.9708 10.5 37.5 10.5C42.0293 10.5 43 11.4707 43 16C43 20.5293 42.0293 21.5 37.5 21.5C35.2842 21.5 33.9201 21.2677 33.1046 20.5H33V20.3954ZM24.5 34.5C19.9707 34.5 19 33.5293 19 29C19 24.4708 19.9707 23.5 24.5 23.5C29.0293 23.5 30 24.4708 30 29C30 33.5293 29.0293 34.5 24.5 34.5Z" fill="white"/>
<path d="M75.584 22.4521C75.584 23.8877 75.3291 25.0918 74.8193 26.0645C74.3154 27.0371 73.5654 27.7695 72.5693 28.2617C71.5791 28.7539 70.3516 29 68.8867 29H65.8105V16.1504H69.291C70.6621 16.1504 71.8135 16.3906 72.7451 16.8711C73.6768 17.3516 74.3828 18.0605 74.8633 18.998C75.3438 19.9297 75.584 21.0811 75.584 22.4521ZM74.6348 22.4873C74.6348 21.2627 74.4355 20.2402 74.0371 19.4199C73.6387 18.5996 73.0293 17.9844 72.209 17.5742C71.3887 17.1582 70.3486 16.9502 69.0889 16.9502H66.7158V28.2002H68.8428C70.7822 28.2002 72.2324 27.7256 73.1934 26.7764C74.1543 25.8213 74.6348 24.3916 74.6348 22.4873ZM81.6309 19.2793C82.6797 19.2793 83.4648 19.543 83.9863 20.0703C84.5078 20.5977 84.7686 21.4385 84.7686 22.5928V29H84.083L83.9248 27.3301H83.8721C83.667 27.6875 83.418 28.0068 83.125 28.2881C82.832 28.5635 82.4717 28.7803 82.0439 28.9385C81.6221 29.0967 81.1064 29.1758 80.4971 29.1758C79.8818 29.1758 79.3545 29.0732 78.915 28.8682C78.4814 28.6631 78.1445 28.3643 77.9043 27.9717C77.6699 27.5791 77.5527 27.1016 77.5527 26.5391C77.5527 25.5898 77.9453 24.8691 78.7305 24.377C79.5156 23.8789 80.6436 23.5977 82.1143 23.5332L83.8896 23.4453V22.751C83.8896 21.7725 83.6963 21.0752 83.3096 20.6592C82.9229 20.2432 82.3516 20.0352 81.5957 20.0352C81.1035 20.0352 80.6289 20.0996 80.1719 20.2285C79.7207 20.3516 79.2607 20.5303 78.792 20.7646L78.5107 20.0264C78.9678 19.8096 79.457 19.6309 79.9785 19.4902C80.5059 19.3496 81.0566 19.2793 81.6309 19.2793ZM83.8809 24.1396L82.2109 24.21C80.998 24.2686 80.0752 24.4854 79.4424 24.8604C78.8096 25.2354 78.4932 25.7979 78.4932 26.5479C78.4932 27.1514 78.6807 27.6143 79.0557 27.9365C79.4365 28.2588 79.9639 28.4199 80.6377 28.4199C81.6865 28.4199 82.4863 28.1211 83.0371 27.5234C83.5938 26.9258 83.875 26.1113 83.8809 25.0801V24.1396ZM93.8125 26.4951C93.8125 27.0635 93.6689 27.5498 93.3818 27.9541C93.1006 28.3525 92.6875 28.6572 92.1426 28.8682C91.5977 29.0732 90.9268 29.1758 90.1299 29.1758C89.4678 29.1758 88.876 29.1172 88.3545 29C87.833 28.8828 87.3965 28.7393 87.0449 28.5693V27.6904C87.4844 27.9072 87.9707 28.083 88.5039 28.2178C89.0371 28.3525 89.585 28.4199 90.1475 28.4199C91.1318 28.4199 91.8408 28.2529 92.2744 27.9189C92.708 27.585 92.9248 27.1279 92.9248 26.5479C92.9248 26.167 92.8164 25.8535 92.5996 25.6074C92.3887 25.3555 92.084 25.1387 91.6855 24.957C91.2871 24.7754 90.8066 24.5908 90.2441 24.4033C89.6582 24.2041 89.1367 24.0078 88.6797 23.8145C88.2285 23.6152 87.874 23.3545 87.6162 23.0322C87.3584 22.7041 87.2295 22.2588 87.2295 21.6963C87.2295 20.9287 87.5371 20.3311 88.1523 19.9033C88.7676 19.4756 89.5938 19.2617 90.6309 19.2617C91.2051 19.2617 91.7383 19.3174 92.2305 19.4287C92.7285 19.5342 93.1797 19.6719 93.584 19.8418L93.2676 20.5977C92.9043 20.4277 92.4854 20.29 92.0107 20.1846C91.5361 20.0791 91.0615 20.0264 90.5869 20.0264C89.8076 20.0264 89.1982 20.1641 88.7588 20.4395C88.3193 20.7148 88.0996 21.1191 88.0996 21.6523C88.0996 22.0625 88.2051 22.3848 88.416 22.6191C88.627 22.8477 88.9287 23.041 89.3213 23.1992C89.7139 23.3516 90.1797 23.5215 90.7188 23.709C91.2754 23.9023 91.7881 24.1045 92.2568 24.3154C92.7314 24.5264 93.1094 24.7988 93.3906 25.1328C93.6719 25.4668 93.8125 25.9209 93.8125 26.4951ZM97.1084 15.3242V19.7891C97.1084 20.0469 97.1025 20.2871 97.0908 20.5098C97.085 20.7324 97.0732 20.958 97.0557 21.1865H97.1172C97.2754 20.8232 97.501 20.498 97.7939 20.2109C98.0928 19.9238 98.459 19.6953 98.8926 19.5254C99.332 19.3555 99.8389 19.2705 100.413 19.2705C101.14 19.2705 101.749 19.3965 102.241 19.6484C102.739 19.8945 103.117 20.2725 103.375 20.7822C103.633 21.292 103.762 21.9482 103.762 22.751V29H102.883V22.8037C102.883 21.8545 102.666 21.1572 102.232 20.7119C101.799 20.2666 101.169 20.0439 100.343 20.0439C99.6396 20.0439 99.0479 20.1816 98.5674 20.457C98.0869 20.7266 97.7236 21.1367 97.4775 21.6875C97.2314 22.2324 97.1084 22.915 97.1084 23.7354V29H96.2207V15.3242H97.1084ZM107.734 15.3242V19.209C107.734 19.543 107.729 19.9092 107.717 20.3076C107.705 20.7061 107.693 21.0371 107.682 21.3008H107.734C107.963 20.709 108.361 20.2197 108.93 19.833C109.498 19.4463 110.207 19.2529 111.057 19.2529C112.299 19.2529 113.257 19.6719 113.931 20.5098C114.61 21.3477 114.95 22.5752 114.95 24.1924C114.95 25.1826 114.798 26.0527 114.493 26.8027C114.188 27.5469 113.734 28.1299 113.131 28.5518C112.533 28.9678 111.783 29.1758 110.881 29.1758C110.066 29.1758 109.401 29.0059 108.886 28.666C108.37 28.3203 107.995 27.8896 107.761 27.374H107.69L107.523 29H106.847V15.3242H107.734ZM110.96 20.0264C110.204 20.0264 109.589 20.1904 109.114 20.5186C108.64 20.8408 108.291 21.3125 108.068 21.9336C107.846 22.5547 107.734 23.3135 107.734 24.21V24.3506C107.734 25.6689 107.975 26.6738 108.455 27.3652C108.936 28.0566 109.715 28.4023 110.793 28.4023C111.859 28.4023 112.665 28.0391 113.21 27.3125C113.761 26.5801 114.036 25.54 114.036 24.1924C114.036 22.8154 113.781 21.7783 113.271 21.0811C112.762 20.3779 111.991 20.0264 110.96 20.0264ZM125.506 24.21C125.506 24.9482 125.415 25.6221 125.233 26.2314C125.052 26.835 124.782 27.3564 124.425 27.7959C124.067 28.2354 123.622 28.5752 123.089 28.8154C122.562 29.0557 121.946 29.1758 121.243 29.1758C120.575 29.1758 119.98 29.0586 119.459 28.8242C118.938 28.584 118.495 28.2441 118.132 27.8047C117.774 27.3652 117.502 26.8438 117.314 26.2402C117.127 25.6309 117.033 24.9541 117.033 24.21C117.033 23.1846 117.203 22.3027 117.543 21.5645C117.889 20.8203 118.381 20.252 119.02 19.8594C119.664 19.4609 120.435 19.2617 121.331 19.2617C122.257 19.2617 123.027 19.4727 123.643 19.8945C124.264 20.3105 124.729 20.8906 125.04 21.6348C125.351 22.3789 125.506 23.2373 125.506 24.21ZM117.947 24.21C117.947 25.0479 118.067 25.7803 118.308 26.4072C118.548 27.0342 118.911 27.5234 119.397 27.875C119.89 28.2266 120.511 28.4023 121.261 28.4023C122.028 28.4023 122.658 28.2266 123.15 27.875C123.643 27.5234 124.006 27.0312 124.24 26.3984C124.475 25.7656 124.592 25.0361 124.592 24.21C124.592 23.4072 124.48 22.6924 124.258 22.0654C124.035 21.4385 123.684 20.9463 123.203 20.5889C122.723 20.2256 122.096 20.0439 121.322 20.0439C120.215 20.0439 119.374 20.4131 118.8 21.1514C118.231 21.8896 117.947 22.9092 117.947 24.21ZM131.482 19.2793C132.531 19.2793 133.316 19.543 133.838 20.0703C134.359 20.5977 134.62 21.4385 134.62 22.5928V29H133.935L133.776 27.3301H133.724C133.519 27.6875 133.27 28.0068 132.977 28.2881C132.684 28.5635 132.323 28.7803 131.896 28.9385C131.474 29.0967 130.958 29.1758 130.349 29.1758C129.733 29.1758 129.206 29.0732 128.767 28.8682C128.333 28.6631 127.996 28.3643 127.756 27.9717C127.521 27.5791 127.404 27.1016 127.404 26.5391C127.404 25.5898 127.797 24.8691 128.582 24.377C129.367 23.8789 130.495 23.5977 131.966 23.5332L133.741 23.4453V22.751C133.741 21.7725 133.548 21.0752 133.161 20.6592C132.774 20.2432 132.203 20.0352 131.447 20.0352C130.955 20.0352 130.48 20.0996 130.023 20.2285C129.572 20.3516 129.112 20.5303 128.644 20.7646L128.362 20.0264C128.819 19.8096 129.309 19.6309 129.83 19.4902C130.357 19.3496 130.908 19.2793 131.482 19.2793ZM133.732 24.1396L132.062 24.21C130.85 24.2686 129.927 24.4854 129.294 24.8604C128.661 25.2354 128.345 25.7979 128.345 26.5479C128.345 27.1514 128.532 27.6143 128.907 27.9365C129.288 28.2588 129.815 28.4199 130.489 28.4199C131.538 28.4199 132.338 28.1211 132.889 27.5234C133.445 26.9258 133.727 26.1113 133.732 25.0801V24.1396ZM141.493 19.2793C141.745 19.2793 141.982 19.2939 142.205 19.3232C142.428 19.3525 142.636 19.3936 142.829 19.4463L142.688 20.2637C142.495 20.2109 142.299 20.1729 142.1 20.1494C141.9 20.1201 141.687 20.1055 141.458 20.1055C141.007 20.1055 140.603 20.1904 140.245 20.3604C139.894 20.5303 139.595 20.7734 139.349 21.0898C139.103 21.4062 138.915 21.7871 138.786 22.2324C138.657 22.6777 138.593 23.1758 138.593 23.7266V29H137.696V19.4463H138.461L138.549 21.248H138.602C138.748 20.8789 138.953 20.5479 139.217 20.2549C139.486 19.9561 139.812 19.7188 140.192 19.543C140.573 19.3672 141.007 19.2793 141.493 19.2793ZM148.164 29.1758C146.857 29.1758 145.861 28.7656 145.176 27.9453C144.496 27.1191 144.156 25.918 144.156 24.3418C144.156 22.6895 144.517 21.4297 145.237 20.5625C145.958 19.6953 146.963 19.2617 148.252 19.2617C148.803 19.2617 149.28 19.3467 149.685 19.5166C150.095 19.6865 150.438 19.918 150.713 20.2109C150.994 20.498 151.211 20.8262 151.363 21.1953H151.434C151.41 20.8848 151.393 20.5508 151.381 20.1934C151.369 19.8359 151.363 19.5078 151.363 19.209V15.3242H152.251V29H151.53L151.416 27.251H151.363C151.205 27.6025 150.985 27.9248 150.704 28.2178C150.429 28.5107 150.083 28.7451 149.667 28.9209C149.251 29.0908 148.75 29.1758 148.164 29.1758ZM148.261 28.4023C149.386 28.4023 150.186 28.0537 150.66 27.3564C151.135 26.6533 151.372 25.6514 151.372 24.3506V24.21C151.372 22.8623 151.135 21.8311 150.66 21.1162C150.186 20.3955 149.412 20.0352 148.34 20.0352C147.279 20.0352 146.468 20.4043 145.905 21.1426C145.349 21.8809 145.07 22.9531 145.07 24.3594C145.07 25.6836 145.331 26.6885 145.853 27.374C146.38 28.0596 147.183 28.4023 148.261 28.4023Z" fill="white"/>
<path d="M187 15C187 12.2386 189.239 10 192 10V35C189.239 35 187 32.7614 187 30V15Z" fill="white"/>
</svg>
