<svg width="192" height="45" viewBox="0 0 192 45" fill="none" xmlns="http://www.w3.org/2000/svg">
<rect width="192" height="45" rx="8" fill="#301E67"/>
<path d="M38.9133 28.122L39.3393 31.5737C39.4486 32.4803 38.4764 33.1138 37.7009 32.6441L33.1241 29.9243C32.6216 29.9243 32.1301 29.8915 31.6495 29.826C32.4578 28.8757 32.9384 27.6741 32.9384 26.3743C32.9384 23.2721 30.2513 20.7598 26.9307 20.7598C25.6636 20.7598 24.4949 21.1203 23.5227 21.7538C23.4899 21.4807 23.479 21.2077 23.479 20.9236C23.479 15.9536 27.7936 11.923 33.1241 11.923C38.4546 11.923 42.7692 15.9536 42.7692 20.9236C42.7692 23.8729 41.2509 26.4835 38.9133 28.122Z" fill="white" stroke="white" stroke-width="2" stroke-linecap="round" stroke-linejoin="round"/>
<path d="M32.9385 26.3742C32.9385 27.6741 32.4579 28.8757 31.6496 29.826C30.5682 31.1367 28.8533 31.9778 26.9308 31.9778L24.0799 33.6709C23.5993 33.9658 22.9876 33.5616 23.0531 33.0046L23.3262 30.8527C21.8625 29.8369 20.9231 28.2093 20.9231 26.3742C20.9231 24.4518 21.9499 22.7587 23.5228 21.7538C24.495 21.1203 25.6637 20.7598 26.9308 20.7598C30.2514 20.7598 32.9385 23.2721 32.9385 26.3742Z" fill="#DCD4E1" stroke="#DCD4E1" stroke-width="2" stroke-linecap="round" stroke-linejoin="round"/>
<path d="M72.8818 22.5137H77.6016V28.4111C76.9863 28.6689 76.3301 28.8623 75.6328 28.9912C74.9355 29.1143 74.1943 29.1758 73.4092 29.1758C72.0439 29.1758 70.8926 28.918 69.9551 28.4023C69.0234 27.8809 68.3174 27.1279 67.8369 26.1436C67.3564 25.1592 67.1162 23.9756 67.1162 22.5928C67.1162 21.3037 67.377 20.1582 67.8984 19.1562C68.4258 18.1543 69.1787 17.3691 70.1572 16.8008C71.1357 16.2324 72.3076 15.9482 73.6729 15.9482C74.376 15.9482 75.0381 16.0127 75.6592 16.1416C76.2861 16.2705 76.8809 16.4639 77.4434 16.7217L77.083 17.5303C76.5264 17.2725 75.958 17.0791 75.3779 16.9502C74.8037 16.8213 74.2207 16.7568 73.6289 16.7568C72.4688 16.7568 71.4697 17.0059 70.6318 17.5039C69.7998 17.9961 69.1611 18.6816 68.7158 19.5605C68.2764 20.4336 68.0566 21.4414 68.0566 22.584C68.0566 23.8789 68.2705 24.9541 68.6982 25.8096C69.126 26.665 69.75 27.3066 70.5703 27.7344C71.3965 28.1621 72.3984 28.376 73.5762 28.376C74.2207 28.376 74.7979 28.3291 75.3076 28.2354C75.8232 28.1416 76.2891 28.0186 76.7051 27.8662V23.3398H72.8818V22.5137ZM84.2285 19.2617C85.043 19.2617 85.7197 19.4521 86.2588 19.833C86.8037 20.2139 87.208 20.7354 87.4717 21.3975C87.7412 22.0596 87.876 22.8184 87.876 23.6738V24.3154H80.9766C80.9766 25.6279 81.2783 26.6357 81.8818 27.3389C82.4912 28.042 83.3613 28.3936 84.4922 28.3936C85.084 28.3936 85.5967 28.3467 86.0303 28.2529C86.4697 28.1533 86.9561 27.9863 87.4893 27.752V28.5693C87.0205 28.7803 86.5518 28.9326 86.083 29.0264C85.6143 29.126 85.0752 29.1758 84.4658 29.1758C83.499 29.1758 82.6875 28.9766 82.0312 28.5781C81.3809 28.1738 80.8887 27.6055 80.5547 26.873C80.2266 26.1406 80.0625 25.2852 80.0625 24.3066C80.0625 23.3516 80.2207 22.4932 80.5371 21.7314C80.8594 20.9697 81.3281 20.3691 81.9434 19.9297C82.5645 19.4844 83.3262 19.2617 84.2285 19.2617ZM84.2197 20.0264C83.3057 20.0264 82.5645 20.3311 81.9961 20.9404C81.4336 21.5439 81.1025 22.417 81.0029 23.5596H86.9531C86.9531 22.8623 86.8535 22.2471 86.6543 21.7139C86.4551 21.1807 86.1533 20.7676 85.749 20.4746C85.3506 20.1758 84.8408 20.0264 84.2197 20.0264ZM93.0879 28.4111C93.3633 28.4111 93.6182 28.3906 93.8525 28.3496C94.0928 28.3086 94.3037 28.2559 94.4854 28.1914V28.9297C94.2979 28.9941 94.0781 29.0498 93.8262 29.0967C93.5742 29.1494 93.2959 29.1758 92.9912 29.1758C92.4521 29.1758 92.0039 29.0762 91.6465 28.877C91.2891 28.6719 91.0195 28.3643 90.8379 27.9541C90.6562 27.5381 90.5654 27.0107 90.5654 26.3721V20.1846H89.1416V19.6572L90.5566 19.3848L90.8643 17.1348H91.4531V19.4463H94.4326V20.1846H91.4531V26.3193C91.4531 27.0049 91.5791 27.5264 91.8311 27.8838C92.0889 28.2354 92.5078 28.4111 93.0879 28.4111ZM102.097 15.3242V19.7891C102.097 20.0469 102.091 20.2871 102.079 20.5098C102.073 20.7324 102.062 20.958 102.044 21.1865H102.105C102.264 20.8232 102.489 20.498 102.782 20.2109C103.081 19.9238 103.447 19.6953 103.881 19.5254C104.32 19.3555 104.827 19.2705 105.401 19.2705C106.128 19.2705 106.737 19.3965 107.229 19.6484C107.728 19.8945 108.105 20.2725 108.363 20.7822C108.621 21.292 108.75 21.9482 108.75 22.751V29H107.871V22.8037C107.871 21.8545 107.654 21.1572 107.221 20.7119C106.787 20.2666 106.157 20.0439 105.331 20.0439C104.628 20.0439 104.036 20.1816 103.556 20.457C103.075 20.7266 102.712 21.1367 102.466 21.6875C102.22 22.2324 102.097 22.915 102.097 23.7354V29H101.209V15.3242H102.097ZM115.465 19.2617C116.279 19.2617 116.956 19.4521 117.495 19.833C118.04 20.2139 118.444 20.7354 118.708 21.3975C118.978 22.0596 119.112 22.8184 119.112 23.6738V24.3154H112.213C112.213 25.6279 112.515 26.6357 113.118 27.3389C113.728 28.042 114.598 28.3936 115.729 28.3936C116.32 28.3936 116.833 28.3467 117.267 28.2529C117.706 28.1533 118.192 27.9863 118.726 27.752V28.5693C118.257 28.7803 117.788 28.9326 117.319 29.0264C116.851 29.126 116.312 29.1758 115.702 29.1758C114.735 29.1758 113.924 28.9766 113.268 28.5781C112.617 28.1738 112.125 27.6055 111.791 26.873C111.463 26.1406 111.299 25.2852 111.299 24.3066C111.299 23.3516 111.457 22.4932 111.773 21.7314C112.096 20.9697 112.564 20.3691 113.18 19.9297C113.801 19.4844 114.562 19.2617 115.465 19.2617ZM115.456 20.0264C114.542 20.0264 113.801 20.3311 113.232 20.9404C112.67 21.5439 112.339 22.417 112.239 23.5596H118.189C118.189 22.8623 118.09 22.2471 117.891 21.7139C117.691 21.1807 117.39 20.7676 116.985 20.4746C116.587 20.1758 116.077 20.0264 115.456 20.0264ZM122.646 29H121.749V15.3242H122.646V29ZM130.055 19.2617C131.285 19.2617 132.237 19.6748 132.911 20.501C133.591 21.3271 133.931 22.5459 133.931 24.1572C133.931 25.2354 133.77 26.1494 133.447 26.8994C133.125 27.6436 132.665 28.209 132.067 28.5957C131.476 28.9824 130.764 29.1758 129.932 29.1758C129.357 29.1758 128.856 29.0908 128.429 28.9209C128.007 28.7451 127.655 28.5107 127.374 28.2178C127.093 27.9189 126.876 27.5908 126.724 27.2334H126.662C126.68 27.5674 126.694 27.916 126.706 28.2793C126.718 28.6426 126.724 28.9854 126.724 29.3076V33.2275H125.827V19.4463H126.565L126.671 21.3535H126.724C126.882 20.9902 127.104 20.6475 127.392 20.3252C127.679 20.0029 128.042 19.7451 128.481 19.5518C128.921 19.3584 129.445 19.2617 130.055 19.2617ZM129.94 20.0439C129.22 20.0439 128.619 20.2021 128.139 20.5186C127.664 20.8291 127.31 21.2861 127.075 21.8896C126.847 22.4873 126.729 23.2197 126.724 24.0869V24.2363C126.724 25.168 126.838 25.9443 127.066 26.5654C127.301 27.1807 127.649 27.6406 128.112 27.9453C128.581 28.25 129.161 28.4023 129.853 28.4023C130.532 28.4023 131.106 28.2354 131.575 27.9014C132.044 27.5674 132.401 27.084 132.647 26.4512C132.894 25.8184 133.017 25.0508 133.017 24.1484C133.017 22.8066 132.759 21.7871 132.243 21.0898C131.733 20.3926 130.966 20.0439 129.94 20.0439Z" fill="white"/>
<path d="M187 15C187 12.2386 189.239 10 192 10V35C189.239 35 187 32.7614 187 30V15Z" fill="white"/>
</svg>
