<svg width="192" height="46" viewBox="0 0 192 46" fill="none" xmlns="http://www.w3.org/2000/svg">
<rect width="192" height="46" rx="8" fill="#301E67"/>
<path d="M20 19.4934V26.4944C20 29.0667 20 29.0667 22.4267 30.7048L29.1001 34.5632C30.1072 35.1456 31.7452 35.1456 32.7401 34.5632L39.4135 30.7048C41.8402 29.0667 41.8402 29.0667 41.8402 26.5066V19.4934C41.8402 16.9333 41.8402 16.9333 39.4135 15.2952L32.7401 11.4368C31.7452 10.8544 30.1072 10.8544 29.1001 11.4368L22.4267 15.2952C20 16.9333 20 16.9333 20 19.4934Z" fill="white" stroke="white" stroke-width="2" stroke-linecap="round" stroke-linejoin="round"/>
<path d="M30.9201 26.6401C32.9304 26.6401 34.5601 25.0104 34.5601 23C34.5601 20.9897 32.9304 19.36 30.9201 19.36C28.9097 19.36 27.28 20.9897 27.28 23C27.28 25.0104 28.9097 26.6401 30.9201 26.6401Z" fill="#301E67" stroke="#301E67" stroke-width="2" stroke-linecap="round" stroke-linejoin="round"/>
<path d="M74.8857 26.1865C74.8857 26.9541 74.6924 27.5986 74.3057 28.1201C73.9189 28.6357 73.3945 29.0254 72.7324 29.2891C72.0703 29.5469 71.3203 29.6758 70.4824 29.6758C69.9609 29.6758 69.4863 29.6494 69.0586 29.5967C68.6367 29.5498 68.2529 29.4854 67.9072 29.4033C67.5674 29.3213 67.2568 29.2275 66.9756 29.1221V28.2168C67.4326 28.3926 67.96 28.5479 68.5576 28.6826C69.1611 28.8115 69.8174 28.876 70.5264 28.876C71.1943 28.876 71.7861 28.7793 72.3018 28.5859C72.8232 28.3926 73.2334 28.0996 73.5322 27.707C73.8311 27.3145 73.9805 26.8193 73.9805 26.2217C73.9805 25.6943 73.8545 25.2637 73.6025 24.9297C73.3564 24.5898 72.9844 24.2998 72.4863 24.0596C71.9883 23.8135 71.3613 23.5645 70.6055 23.3125C70.0781 23.1309 69.5977 22.9404 69.1641 22.7412C68.7363 22.5361 68.3701 22.3018 68.0654 22.0381C67.7607 21.7686 67.5264 21.4463 67.3623 21.0713C67.2041 20.6904 67.125 20.2422 67.125 19.7266C67.125 19.0176 67.3037 18.4229 67.6611 17.9424C68.0244 17.4561 68.5137 17.0898 69.1289 16.8438C69.75 16.5918 70.4473 16.4658 71.2207 16.4658C71.8359 16.4658 72.4189 16.5244 72.9697 16.6416C73.5264 16.7529 74.0625 16.9229 74.5781 17.1514L74.2617 17.9336C73.7461 17.7109 73.2305 17.5469 72.7148 17.4414C72.1992 17.3359 71.6895 17.2832 71.1855 17.2832C70.582 17.2832 70.043 17.374 69.5684 17.5557C69.0996 17.7314 68.7275 17.998 68.4521 18.3555C68.1768 18.7129 68.0391 19.1641 68.0391 19.709C68.0391 20.2715 68.165 20.7256 68.417 21.0713C68.6748 21.417 69.0381 21.7041 69.5068 21.9326C69.9814 22.1611 70.541 22.3838 71.1855 22.6006C71.9473 22.8584 72.6035 23.1309 73.1543 23.418C73.7051 23.6992 74.1299 24.0566 74.4287 24.4902C74.7334 24.9238 74.8857 25.4893 74.8857 26.1865ZM81.0293 19.7617C81.8438 19.7617 82.5205 19.9521 83.0596 20.333C83.6045 20.7139 84.0088 21.2354 84.2725 21.8975C84.542 22.5596 84.6768 23.3184 84.6768 24.1738V24.8154H77.7773C77.7773 26.1279 78.0791 27.1357 78.6826 27.8389C79.292 28.542 80.1621 28.8936 81.293 28.8936C81.8848 28.8936 82.3975 28.8467 82.8311 28.7529C83.2705 28.6533 83.7568 28.4863 84.29 28.252V29.0693C83.8213 29.2803 83.3525 29.4326 82.8838 29.5264C82.415 29.626 81.876 29.6758 81.2666 29.6758C80.2998 29.6758 79.4883 29.4766 78.832 29.0781C78.1816 28.6738 77.6895 28.1055 77.3555 27.373C77.0273 26.6406 76.8633 25.7852 76.8633 24.8066C76.8633 23.8516 77.0215 22.9932 77.3379 22.2314C77.6602 21.4697 78.1289 20.8691 78.7441 20.4297C79.3652 19.9844 80.127 19.7617 81.0293 19.7617ZM81.0205 20.5264C80.1064 20.5264 79.3652 20.8311 78.7969 21.4404C78.2344 22.0439 77.9033 22.917 77.8037 24.0596H83.7539C83.7539 23.3623 83.6543 22.7471 83.4551 22.2139C83.2559 21.6807 82.9541 21.2676 82.5498 20.9746C82.1514 20.6758 81.6416 20.5264 81.0205 20.5264ZM89.8887 28.9111C90.1641 28.9111 90.4189 28.8906 90.6533 28.8496C90.8936 28.8086 91.1045 28.7559 91.2861 28.6914V29.4297C91.0986 29.4941 90.8789 29.5498 90.627 29.5967C90.375 29.6494 90.0967 29.6758 89.792 29.6758C89.2529 29.6758 88.8047 29.5762 88.4473 29.377C88.0898 29.1719 87.8203 28.8643 87.6387 28.4541C87.457 28.0381 87.3662 27.5107 87.3662 26.8721V20.6846H85.9424V20.1572L87.3574 19.8848L87.665 17.6348H88.2539V19.9463H91.2334V20.6846H88.2539V26.8193C88.2539 27.5049 88.3799 28.0264 88.6318 28.3838C88.8896 28.7354 89.3086 28.9111 89.8887 28.9111ZM95.918 28.9111C96.1934 28.9111 96.4482 28.8906 96.6826 28.8496C96.9229 28.8086 97.1338 28.7559 97.3154 28.6914V29.4297C97.1279 29.4941 96.9082 29.5498 96.6562 29.5967C96.4043 29.6494 96.126 29.6758 95.8213 29.6758C95.2822 29.6758 94.834 29.5762 94.4766 29.377C94.1191 29.1719 93.8496 28.8643 93.668 28.4541C93.4863 28.0381 93.3955 27.5107 93.3955 26.8721V20.6846H91.9717V20.1572L93.3867 19.8848L93.6943 17.6348H94.2832V19.9463H97.2627V20.6846H94.2832V26.8193C94.2832 27.5049 94.4092 28.0264 94.6611 28.3838C94.9189 28.7354 95.3379 28.9111 95.918 28.9111ZM100.251 19.9463V29.5H99.3633V19.9463H100.251ZM99.8203 16.4131C100.043 16.4131 100.207 16.4805 100.312 16.6152C100.418 16.7441 100.471 16.9199 100.471 17.1426C100.471 17.3652 100.418 17.541 100.312 17.6699C100.207 17.7988 100.043 17.8633 99.8203 17.8633C99.6094 17.8633 99.4512 17.7988 99.3457 17.6699C99.2402 17.541 99.1875 17.3652 99.1875 17.1426C99.1875 16.9199 99.2402 16.7441 99.3457 16.6152C99.4512 16.4805 99.6094 16.4131 99.8203 16.4131ZM107.651 19.7617C108.724 19.7617 109.547 20.043 110.121 20.6055C110.695 21.168 110.982 22.0498 110.982 23.251V29.5H110.104V23.3037C110.104 22.3545 109.887 21.6572 109.453 21.2119C109.02 20.7666 108.39 20.5439 107.563 20.5439C106.515 20.5439 105.712 20.8516 105.155 21.4668C104.604 22.0762 104.329 22.999 104.329 24.2354V29.5H103.441V19.9463H104.162L104.294 21.6865H104.347C104.517 21.3291 104.748 21.0068 105.041 20.7197C105.34 20.4268 105.706 20.1953 106.14 20.0254C106.573 19.8496 107.077 19.7617 107.651 19.7617ZM116.607 33.8242C115.406 33.8242 114.472 33.5928 113.804 33.1299C113.142 32.667 112.811 32.0195 112.811 31.1875C112.811 30.543 113.013 29.9863 113.417 29.5176C113.821 29.0547 114.369 28.7764 115.061 28.6826C114.785 28.5537 114.56 28.3779 114.384 28.1553C114.214 27.9326 114.129 27.6748 114.129 27.3818C114.129 27.0537 114.231 26.749 114.437 26.4678C114.642 26.1807 114.949 25.917 115.359 25.6768C114.809 25.4775 114.375 25.1406 114.059 24.666C113.742 24.1855 113.584 23.6084 113.584 22.9346C113.584 22.29 113.722 21.7305 113.997 21.2559C114.272 20.7812 114.662 20.415 115.166 20.1572C115.676 19.8936 116.276 19.7617 116.968 19.7617C117.179 19.7617 117.369 19.7676 117.539 19.7793C117.715 19.791 117.876 19.8115 118.022 19.8408C118.169 19.8643 118.301 19.8965 118.418 19.9375H121.503V20.5703L119.534 20.7021C119.792 21.0127 119.985 21.3496 120.114 21.7129C120.243 22.0703 120.308 22.4482 120.308 22.8467C120.308 23.7959 120.009 24.5488 119.411 25.1055C118.813 25.6621 117.981 25.9404 116.915 25.9404C116.622 25.9404 116.335 25.9141 116.054 25.8613C115.696 26.0723 115.424 26.2861 115.236 26.5029C115.049 26.7139 114.955 26.9775 114.955 27.2939C114.955 27.4932 115.014 27.6572 115.131 27.7861C115.248 27.9092 115.418 28.0059 115.641 28.0762C115.863 28.1406 116.136 28.1729 116.458 28.1729H118.137C119.174 28.1729 119.968 28.3838 120.519 28.8057C121.069 29.2275 121.345 29.8486 121.345 30.6689C121.345 31.6709 120.932 32.4473 120.105 32.998C119.285 33.5488 118.119 33.8242 116.607 33.8242ZM116.669 33.0771C117.507 33.0771 118.204 32.9863 118.761 32.8047C119.323 32.623 119.745 32.3535 120.026 31.9961C120.308 31.6445 120.448 31.208 120.448 30.6865C120.448 30.2588 120.346 29.9277 120.141 29.6934C119.936 29.459 119.646 29.2979 119.271 29.21C118.896 29.1162 118.453 29.0693 117.943 29.0693H116.344C115.834 29.0693 115.38 29.1396 114.981 29.2803C114.583 29.415 114.272 29.6318 114.05 29.9307C113.833 30.2295 113.725 30.6279 113.725 31.126C113.725 31.7646 113.974 32.248 114.472 32.5762C114.976 32.9102 115.708 33.0771 116.669 33.0771ZM116.95 25.2285C117.741 25.2285 118.348 25.0293 118.77 24.6309C119.191 24.2324 119.402 23.6553 119.402 22.8994C119.402 22.0908 119.186 21.4844 118.752 21.0801C118.318 20.6758 117.712 20.4736 116.933 20.4736C116.177 20.4736 115.582 20.6904 115.148 21.124C114.721 21.5518 114.507 22.1553 114.507 22.9346C114.507 23.6611 114.712 24.2266 115.122 24.6309C115.532 25.0293 116.142 25.2285 116.95 25.2285Z" fill="white"/>
<path d="M187 15.5C187 12.7386 189.239 10.5 192 10.5V35.5C189.239 35.5 187 33.2614 187 30.5V15.5Z" fill="white"/>
</svg>
