<svg width="192" height="45" viewBox="0 0 192 45" fill="none" xmlns="http://www.w3.org/2000/svg">
<rect width="192" height="45" rx="8" fill="#301E67"/>
<g clip-path="url(#clip0_47_1156)">
<path d="M27.3077 21.5769C28.7766 21.5769 30.1853 20.9934 31.224 19.9547C32.2626 18.9161 32.8462 17.5074 32.8462 16.0385C32.8462 14.5696 32.2626 13.1608 31.224 12.1222C30.1853 11.0835 28.7766 10.5 27.3077 10.5C25.8388 10.5 24.4301 11.0835 23.3914 12.1222C22.3527 13.1608 21.7692 14.5696 21.7692 16.0385C21.7692 17.5074 22.3527 18.9161 23.3914 19.9547C24.4301 20.9934 25.8388 21.5769 27.3077 21.5769ZM39.7692 21.5769C40.8709 21.5769 41.9274 21.1393 42.7064 20.3603C43.4854 19.5813 43.9231 18.5247 43.9231 17.4231C43.9231 16.3214 43.4854 15.2649 42.7064 14.4859C41.9274 13.7069 40.8709 13.2692 39.7692 13.2692C38.6676 13.2692 37.611 13.7069 36.832 14.4859C36.053 15.2649 35.6154 16.3214 35.6154 17.4231C35.6154 18.5247 36.053 19.5813 36.832 20.3603C37.611 21.1393 38.6676 21.5769 39.7692 21.5769ZM22.1154 24.3462C21.2891 24.3462 20.4967 24.6744 19.9125 25.2586C19.3282 25.8429 19 26.6353 19 27.4615V27.8077C19 27.8077 19 34.0385 27.3077 34.0385C35.6154 34.0385 35.6154 27.8077 35.6154 27.8077V27.4615C35.6154 26.6353 35.2872 25.8429 34.7029 25.2586C34.1187 24.6744 33.3263 24.3462 32.5 24.3462H22.1154ZM39.7692 31.9615C38.1478 31.9615 36.9058 31.7109 35.9546 31.3274C36.5082 30.393 36.8557 29.3511 36.9737 28.2715C36.9872 28.1404 36.9959 28.0087 37 27.8769V27.4615C37.0018 26.3016 36.5541 25.186 35.7511 24.3489C35.7981 24.347 35.8452 24.346 35.8923 24.3462H43.6462C44.454 24.3462 45.2288 24.6671 45.8001 25.2384C46.3714 25.8096 46.6923 26.5844 46.6923 27.3923C46.6923 27.3923 46.6923 31.9615 39.7692 31.9615Z" fill="white"/>
</g>
<path d="M74.8857 25.6865C74.8857 26.4541 74.6924 27.0986 74.3057 27.6201C73.9189 28.1357 73.3945 28.5254 72.7324 28.7891C72.0703 29.0469 71.3203 29.1758 70.4824 29.1758C69.9609 29.1758 69.4863 29.1494 69.0586 29.0967C68.6367 29.0498 68.2529 28.9854 67.9072 28.9033C67.5674 28.8213 67.2568 28.7275 66.9756 28.6221V27.7168C67.4326 27.8926 67.96 28.0479 68.5576 28.1826C69.1611 28.3115 69.8174 28.376 70.5264 28.376C71.1943 28.376 71.7861 28.2793 72.3018 28.0859C72.8232 27.8926 73.2334 27.5996 73.5322 27.207C73.8311 26.8145 73.9805 26.3193 73.9805 25.7217C73.9805 25.1943 73.8545 24.7637 73.6025 24.4297C73.3564 24.0898 72.9844 23.7998 72.4863 23.5596C71.9883 23.3135 71.3613 23.0645 70.6055 22.8125C70.0781 22.6309 69.5977 22.4404 69.1641 22.2412C68.7363 22.0361 68.3701 21.8018 68.0654 21.5381C67.7607 21.2686 67.5264 20.9463 67.3623 20.5713C67.2041 20.1904 67.125 19.7422 67.125 19.2266C67.125 18.5176 67.3037 17.9229 67.6611 17.4424C68.0244 16.9561 68.5137 16.5898 69.1289 16.3438C69.75 16.0918 70.4473 15.9658 71.2207 15.9658C71.8359 15.9658 72.4189 16.0244 72.9697 16.1416C73.5264 16.2529 74.0625 16.4229 74.5781 16.6514L74.2617 17.4336C73.7461 17.2109 73.2305 17.0469 72.7148 16.9414C72.1992 16.8359 71.6895 16.7832 71.1855 16.7832C70.582 16.7832 70.043 16.874 69.5684 17.0557C69.0996 17.2314 68.7275 17.498 68.4521 17.8555C68.1768 18.2129 68.0391 18.6641 68.0391 19.209C68.0391 19.7715 68.165 20.2256 68.417 20.5713C68.6748 20.917 69.0381 21.2041 69.5068 21.4326C69.9814 21.6611 70.541 21.8838 71.1855 22.1006C71.9473 22.3584 72.6035 22.6309 73.1543 22.918C73.7051 23.1992 74.1299 23.5566 74.4287 23.9902C74.7334 24.4238 74.8857 24.9893 74.8857 25.6865ZM79.9922 28.4111C80.2676 28.4111 80.5225 28.3906 80.7568 28.3496C80.9971 28.3086 81.208 28.2559 81.3896 28.1914V28.9297C81.2021 28.9941 80.9824 29.0498 80.7305 29.0967C80.4785 29.1494 80.2002 29.1758 79.8955 29.1758C79.3564 29.1758 78.9082 29.0762 78.5508 28.877C78.1934 28.6719 77.9238 28.3643 77.7422 27.9541C77.5605 27.5381 77.4697 27.0107 77.4697 26.3721V20.1846H76.0459V19.6572L77.4609 19.3848L77.7686 17.1348H78.3574V19.4463H81.3369V20.1846H78.3574V26.3193C78.3574 27.0049 78.4834 27.5264 78.7354 27.8838C78.9932 28.2354 79.4121 28.4111 79.9922 28.4111ZM86.7773 19.2793C87.8262 19.2793 88.6113 19.543 89.1328 20.0703C89.6543 20.5977 89.915 21.4385 89.915 22.5928V29H89.2295L89.0713 27.3301H89.0186C88.8135 27.6875 88.5645 28.0068 88.2715 28.2881C87.9785 28.5635 87.6182 28.7803 87.1904 28.9385C86.7686 29.0967 86.2529 29.1758 85.6436 29.1758C85.0283 29.1758 84.501 29.0732 84.0615 28.8682C83.6279 28.6631 83.291 28.3643 83.0508 27.9717C82.8164 27.5791 82.6992 27.1016 82.6992 26.5391C82.6992 25.5898 83.0918 24.8691 83.877 24.377C84.6621 23.8789 85.79 23.5977 87.2607 23.5332L89.0361 23.4453V22.751C89.0361 21.7725 88.8428 21.0752 88.4561 20.6592C88.0693 20.2432 87.498 20.0352 86.7422 20.0352C86.25 20.0352 85.7754 20.0996 85.3184 20.2285C84.8672 20.3516 84.4072 20.5303 83.9385 20.7646L83.6572 20.0264C84.1143 19.8096 84.6035 19.6309 85.125 19.4902C85.6523 19.3496 86.2031 19.2793 86.7773 19.2793ZM89.0273 24.1396L87.3574 24.21C86.1445 24.2686 85.2217 24.4854 84.5889 24.8604C83.9561 25.2354 83.6396 25.7979 83.6396 26.5479C83.6396 27.1514 83.8271 27.6143 84.2021 27.9365C84.583 28.2588 85.1104 28.4199 85.7842 28.4199C86.833 28.4199 87.6328 28.1211 88.1836 27.5234C88.7402 26.9258 89.0215 26.1113 89.0273 25.0801V24.1396ZM96.542 20.1846H94.292V29H93.4043V20.1846H91.6289V19.6572L93.4043 19.4287V18.374C93.4043 17.6709 93.5039 17.0879 93.7031 16.625C93.9082 16.1562 94.2158 15.8076 94.626 15.5791C95.042 15.3447 95.5664 15.2275 96.1992 15.2275C96.5273 15.2275 96.8232 15.2539 97.0869 15.3066C97.3506 15.3535 97.5967 15.415 97.8252 15.4912L97.623 16.2383C97.418 16.168 97.1895 16.1094 96.9375 16.0625C96.6914 16.0156 96.4482 15.9922 96.208 15.9922C95.5342 15.9922 95.0449 16.1797 94.7402 16.5547C94.4414 16.9238 94.292 17.5273 94.292 18.3652V19.4463H96.542V20.1846ZM101.947 20.1846H99.6973V29H98.8096V20.1846H97.0342V19.6572L98.8096 19.4287V18.374C98.8096 17.6709 98.9092 17.0879 99.1084 16.625C99.3135 16.1562 99.6211 15.8076 100.031 15.5791C100.447 15.3447 100.972 15.2275 101.604 15.2275C101.933 15.2275 102.229 15.2539 102.492 15.3066C102.756 15.3535 103.002 15.415 103.23 15.4912L103.028 16.2383C102.823 16.168 102.595 16.1094 102.343 16.0625C102.097 16.0156 101.854 15.9922 101.613 15.9922C100.939 15.9922 100.45 16.1797 100.146 16.5547C99.8467 16.9238 99.6973 17.5273 99.6973 18.3652V19.4463H101.947V20.1846ZM109.77 26.4951C109.77 27.0635 109.626 27.5498 109.339 27.9541C109.058 28.3525 108.645 28.6572 108.1 28.8682C107.555 29.0732 106.884 29.1758 106.087 29.1758C105.425 29.1758 104.833 29.1172 104.312 29C103.79 28.8828 103.354 28.7393 103.002 28.5693V27.6904C103.441 27.9072 103.928 28.083 104.461 28.2178C104.994 28.3525 105.542 28.4199 106.104 28.4199C107.089 28.4199 107.798 28.2529 108.231 27.9189C108.665 27.585 108.882 27.1279 108.882 26.5479C108.882 26.167 108.773 25.8535 108.557 25.6074C108.346 25.3555 108.041 25.1387 107.643 24.957C107.244 24.7754 106.764 24.5908 106.201 24.4033C105.615 24.2041 105.094 24.0078 104.637 23.8145C104.186 23.6152 103.831 23.3545 103.573 23.0322C103.315 22.7041 103.187 22.2588 103.187 21.6963C103.187 20.9287 103.494 20.3311 104.109 19.9033C104.725 19.4756 105.551 19.2617 106.588 19.2617C107.162 19.2617 107.695 19.3174 108.188 19.4287C108.686 19.5342 109.137 19.6719 109.541 19.8418L109.225 20.5977C108.861 20.4277 108.442 20.29 107.968 20.1846C107.493 20.0791 107.019 20.0264 106.544 20.0264C105.765 20.0264 105.155 20.1641 104.716 20.4395C104.276 20.7148 104.057 21.1191 104.057 21.6523C104.057 22.0625 104.162 22.3848 104.373 22.6191C104.584 22.8477 104.886 23.041 105.278 23.1992C105.671 23.3516 106.137 23.5215 106.676 23.709C107.232 23.9023 107.745 24.1045 108.214 24.3154C108.688 24.5264 109.066 24.7988 109.348 25.1328C109.629 25.4668 109.77 25.9209 109.77 26.4951Z" fill="white"/>
<path d="M187 15C187 12.2386 189.239 10 192 10V35C189.239 35 187 32.7614 187 30V15Z" fill="white"/>
<defs>
<clipPath id="clip0_47_1156">
<rect width="28" height="24" fill="white" transform="translate(19 10.5)"/>
</clipPath>
</defs>
</svg>
