<svg xmlns="http://www.w3.org/2000/svg" width="24" height="25" viewBox="0 0 24 25" fill="none">
<path fill-rule="evenodd" clip-rule="evenodd" d="M0 12.5C0 5.8724 5.3724 0.5 12 0.5C18.6276 0.5 24 5.8724 24 12.5C24 19.1276 18.6276 24.5 12 24.5C5.3724 24.5 0 19.1276 0 12.5ZM12 2.9C9.45392 2.9 7.01212 3.91143 5.21178 5.71178C3.41143 7.51212 2.4 9.95392 2.4 12.5C2.4 15.0461 3.41143 17.4879 5.21178 19.2882C7.01212 21.0886 9.45392 22.1 12 22.1C14.5461 22.1 16.9879 21.0886 18.7882 19.2882C20.5886 17.4879 21.6 15.0461 21.6 12.5C21.6 9.95392 20.5886 7.51212 18.7882 5.71178C16.9879 3.91143 14.5461 2.9 12 2.9Z" fill="#301E67"/>
<path fill-rule="evenodd" clip-rule="evenodd" d="M13.2 6.50005C13.2 6.18179 13.0736 5.87656 12.8486 5.65152C12.6235 5.42648 12.3183 5.30005 12 5.30005C11.6818 5.30005 11.3766 5.42648 11.1515 5.65152C10.9265 5.87656 10.8 6.18179 10.8 6.50005V11.3H6.00005C5.68179 11.3 5.37656 11.4265 5.15152 11.6515C4.92648 11.8766 4.80005 12.1818 4.80005 12.5C4.80005 12.8183 4.92648 13.1235 5.15152 13.3486C5.37656 13.5736 5.68179 13.7 6.00005 13.7H10.8V18.5C10.8 18.8183 10.9265 19.1235 11.1515 19.3486C11.3766 19.5736 11.6818 19.7 12 19.7C12.3183 19.7 12.6235 19.5736 12.8486 19.3486C13.0736 19.1235 13.2 18.8183 13.2 18.5V13.7H18C18.3183 13.7 18.6235 13.5736 18.8486 13.3486C19.0736 13.1235 19.2 12.8183 19.2 12.5C19.2 12.1818 19.0736 11.8766 18.8486 11.6515C18.6235 11.4265 18.3183 11.3 18 11.3H13.2V6.50005Z" fill="#301E67"/>
</svg>