<svg width="24" height="25" viewBox="0 0 24 25" fill="none" xmlns="http://www.w3.org/2000/svg">
<g id="Group">
<path id="Union" fill-rule="evenodd" clip-rule="evenodd" d="M11.934 0.5C5.37928 0.5 0.065918 5.8724 0.065918 12.5C0.065918 19.1276 5.37928 24.5 11.934 24.5C18.4888 24.5 23.8022 19.1276 23.8022 12.5C23.8022 5.8724 18.4888 0.5 11.934 0.5Z" fill="white"/>
<path id="Vector" fill-rule="evenodd" clip-rule="evenodd" d="M13.1208 6.50017C13.1208 6.18191 12.9958 5.87669 12.7732 5.65164C12.5506 5.4266 12.2488 5.30017 11.934 5.30017C11.6192 5.30017 11.3174 5.4266 11.0948 5.65164C10.8722 5.87669 10.7472 6.18191 10.7472 6.50017V11.3002H5.99992C5.68516 11.3002 5.38329 11.4266 5.16072 11.6516C4.93815 11.8767 4.81311 12.1819 4.81311 12.5002C4.81311 12.8184 4.93815 13.1237 5.16072 13.3487C5.38329 13.5737 5.68516 13.7002 5.99992 13.7002H10.7472V18.5002C10.7472 18.8184 10.8722 19.1237 11.0948 19.3487C11.3174 19.5737 11.6192 19.7002 11.934 19.7002C12.2488 19.7002 12.5506 19.5737 12.7732 19.3487C12.9958 19.1237 13.1208 18.8184 13.1208 18.5002V13.7002H17.8681C18.1828 13.7002 18.4847 13.5737 18.7073 13.3487C18.9298 13.1237 19.0549 12.8184 19.0549 12.5002C19.0549 12.1819 18.9298 11.8767 18.7073 11.6516C18.4847 11.4266 18.1828 11.3002 17.8681 11.3002H13.1208V6.50017Z" fill="#301E67"/>
</g>
</svg>
