<svg xmlns="http://www.w3.org/2000/svg" width="26" height="27" viewBox="0 0 26 27" fill="none">
  <mask id="path-1-outside-1_47_611" maskUnits="userSpaceOnUse" x="0" y="0.5" width="26" height="26" fill="black">
    <rect fill="white" y="0.5" width="26" height="26"/>
    <path fill-rule="evenodd" clip-rule="evenodd" d="M1 13.5C1 23.382 3.118 25.5 13 25.5C22.882 25.5 25 23.382 25 13.5C25 3.618 22.882 1.5 13 1.5C3.118 1.5 1 3.618 1 13.5Z"/>
  </mask>
  <path fill-rule="evenodd" clip-rule="evenodd" d="M1 13.5C1 23.382 3.118 25.5 13 25.5C22.882 25.5 25 23.382 25 13.5C25 3.618 22.882 1.5 13 1.5C3.118 1.5 1 3.618 1 13.5Z" fill="#301E67"/>
  <path d="M13 24.5C10.5523 24.5 8.65366 24.3675 7.17298 24.0385C5.70365 23.7119 4.70794 23.2052 4.00136 22.4986C3.29478 21.7921 2.78807 20.7963 2.46153 19.327C2.13246 17.8463 2 15.9477 2 13.5H0C0 15.9933 0.132293 18.0652 0.509161 19.7609C0.888552 21.468 1.52897 22.8547 2.58714 23.9129C3.64531 24.971 5.03197 25.6114 6.73908 25.9908C8.43484 26.3677 10.5067 26.5 13 26.5V24.5ZM24 13.5C24 15.9477 23.8675 17.8463 23.5385 19.327C23.2119 20.7963 22.7052 21.7921 21.9986 22.4986C21.2921 23.2052 20.2963 23.7119 18.827 24.0385C17.3463 24.3675 15.4477 24.5 13 24.5V26.5C15.4933 26.5 17.5652 26.3677 19.2609 25.9908C20.968 25.6114 22.3547 24.971 23.4129 23.9129C24.471 22.8547 25.1114 21.468 25.4908 19.7609C25.8677 18.0652 26 15.9933 26 13.5H24ZM13 2.5C15.4477 2.5 17.3463 2.63246 18.827 2.96153C20.2963 3.28807 21.2921 3.79478 21.9986 4.50136C22.7052 5.20794 23.2119 6.20365 23.5385 7.67298C23.8675 9.15366 24 11.0523 24 13.5H26C26 11.0067 25.8677 8.93484 25.4908 7.23908C25.1114 5.53197 24.471 4.14531 23.4129 3.08714C22.3547 2.02897 20.968 1.38855 19.2609 1.00916C17.5652 0.632293 15.4933 0.5 13 0.5V2.5ZM2 13.5C2 11.0523 2.13246 9.15366 2.46153 7.67298C2.78807 6.20365 3.29478 5.20794 4.00136 4.50136C4.70794 3.79478 5.70365 3.28807 7.17298 2.96153C8.65366 2.63246 10.5523 2.5 13 2.5V0.5C10.5067 0.5 8.43484 0.632293 6.73908 1.00916C5.03197 1.38855 3.64531 2.02897 2.58714 3.08714C1.52897 4.14531 0.888552 5.53197 0.509161 7.23908C0.132293 8.93484 0 11.0067 0 13.5H2Z" fill="#301E67" mask="url(#path-1-outside-1_47_611)"/>
  <path d="M7 15.5C7 15.5 9.76929 8.5 13 13.5C16.2308 18.5 19 11.5 19 11.5" stroke="white" stroke-width="2.5" stroke-linecap="round" stroke-linejoin="round"/>
</svg>