<svg width="192" height="47" viewBox="0 0 192 47" fill="none" xmlns="http://www.w3.org/2000/svg">
<mask id="path-2-inside-1_47_952" fill="white">
<path fill-rule="evenodd" clip-rule="evenodd" d="M20.9901 29.7222C20.6435 28.1629 20.5 26.1421 20.5 23.5C20.5 20.8579 20.6435 18.8371 20.9901 17.2778C21.3328 15.7356 21.8539 14.7383 22.5461 14.0461C23.2383 13.3539 24.2356 12.8328 25.7778 12.4901C27.3371 12.1435 29.3579 12 32 12C34.6421 12 36.6629 12.1435 38.2222 12.4901C39.7644 12.8328 40.7617 13.3539 41.4539 14.0461C42.1461 14.7383 42.6672 15.7356 43.0099 17.2778C43.3565 18.8371 43.5 20.8579 43.5 23.5C43.5 26.1421 43.3565 28.1629 43.0099 29.7222C42.6672 31.2644 42.1461 32.2617 41.4539 32.9539C40.7617 33.6461 39.7644 34.1672 38.2222 34.5099C36.6629 34.8565 34.6421 35 32 35C29.3579 35 27.3371 34.8565 25.7778 34.5099C24.2356 34.1672 23.2383 33.6461 22.5461 32.9539C21.8539 32.2617 21.3328 31.2644 20.9901 29.7222ZM32 36.5C21.2945 36.5 19 34.2055 19 23.5C19 12.7945 21.2945 10.5 32 10.5C42.7055 10.5 45 12.7945 45 23.5C45 34.2055 42.7055 36.5 32 36.5Z"/>
</mask>
<path fill-rule="evenodd" clip-rule="evenodd" d="M20.9901 29.7222C20.6435 28.1629 20.5 26.1421 20.5 23.5C20.5 20.8579 20.6435 18.8371 20.9901 17.2778C21.3328 15.7356 21.8539 14.7383 22.5461 14.0461C23.2383 13.3539 24.2356 12.8328 25.7778 12.4901C27.3371 12.1435 29.3579 12 32 12C34.6421 12 36.6629 12.1435 38.2222 12.4901C39.7644 12.8328 40.7617 13.3539 41.4539 14.0461C42.1461 14.7383 42.6672 15.7356 43.0099 17.2778C43.3565 18.8371 43.5 20.8579 43.5 23.5C43.5 26.1421 43.3565 28.1629 43.0099 29.7222C42.6672 31.2644 42.1461 32.2617 41.4539 32.9539C40.7617 33.6461 39.7644 34.1672 38.2222 34.5099C36.6629 34.8565 34.6421 35 32 35C29.3579 35 27.3371 34.8565 25.7778 34.5099C24.2356 34.1672 23.2383 33.6461 22.5461 32.9539C21.8539 32.2617 21.3328 31.2644 20.9901 29.7222ZM32 36.5C21.2945 36.5 19 34.2055 19 23.5C19 12.7945 21.2945 10.5 32 10.5C42.7055 10.5 45 12.7945 45 23.5C45 34.2055 42.7055 36.5 32 36.5Z" fill="#301E67"/>
<path d="M20.9901 29.7222L20.0139 29.9392L20.9901 29.7222ZM20.9901 17.2778L21.9662 17.4947L20.9901 17.2778ZM25.7778 12.4901L25.9947 13.4662H25.9947L25.7778 12.4901ZM38.2222 12.4901L38.0053 13.4662L38.2222 12.4901ZM43.0099 17.2778L42.0338 17.4947V17.4947L43.0099 17.2778ZM43.0099 29.7222L42.0338 29.5053L43.0099 29.7222ZM38.2222 34.5099L38.0053 33.5338L38.2222 34.5099ZM25.7778 34.5099L25.5608 35.4861L25.7778 34.5099ZM19.5 23.5C19.5 26.1648 19.6434 28.2723 20.0139 29.9392L21.9662 29.5053C21.6436 28.0536 21.5 26.1194 21.5 23.5H19.5ZM20.0139 17.0608C19.6434 18.7277 19.5 20.8352 19.5 23.5H21.5C21.5 20.8806 21.6436 18.9464 21.9662 17.4947L20.0139 17.0608ZM21.839 13.339C20.9711 14.2068 20.3831 15.3994 20.0139 17.0608L21.9662 17.4947C22.2825 16.0717 22.7366 15.2698 23.2532 14.7532L21.839 13.339ZM25.5608 11.5139C23.8994 11.8831 22.7068 12.4711 21.839 13.339L23.2532 14.7532C23.7698 14.2366 24.5717 13.7825 25.9947 13.4662L25.5608 11.5139ZM32 11C29.3352 11 27.2277 11.1434 25.5608 11.5139L25.9947 13.4662C27.4464 13.1436 29.3806 13 32 13V11ZM38.4392 11.5139C36.7723 11.1434 34.6648 11 32 11V13C34.6194 13 36.5536 13.1436 38.0053 13.4662L38.4392 11.5139ZM42.161 13.339C41.2932 12.4711 40.1006 11.8831 38.4392 11.5139L38.0053 13.4662C39.4283 13.7825 40.2302 14.2366 40.7468 14.7532L42.161 13.339ZM43.9861 17.0608C43.6169 15.3994 43.0289 14.2068 42.161 13.339L40.7468 14.7532C41.2634 15.2698 41.7175 16.0717 42.0338 17.4947L43.9861 17.0608ZM44.5 23.5C44.5 20.8352 44.3566 18.7277 43.9861 17.0608L42.0338 17.4947C42.3564 18.9464 42.5 20.8806 42.5 23.5H44.5ZM43.9861 29.9392C44.3566 28.2723 44.5 26.1648 44.5 23.5H42.5C42.5 26.1194 42.3564 28.0536 42.0338 29.5053L43.9861 29.9392ZM42.161 33.661C43.0289 32.7932 43.6169 31.6006 43.9861 29.9392L42.0338 29.5053C41.7175 30.9283 41.2634 31.7302 40.7468 32.2468L42.161 33.661ZM38.4392 35.4861C40.1006 35.1169 41.2932 34.5289 42.161 33.661L40.7468 32.2468C40.2302 32.7634 39.4283 33.2175 38.0053 33.5338L38.4392 35.4861ZM32 36C34.6648 36 36.7723 35.8566 38.4392 35.4861L38.0053 33.5338C36.5536 33.8564 34.6194 34 32 34V36ZM25.5608 35.4861C27.2277 35.8566 29.3352 36 32 36V34C29.3806 34 27.4464 33.8564 25.9947 33.5338L25.5608 35.4861ZM21.839 33.661C22.7068 34.5289 23.8994 35.1169 25.5608 35.4861L25.9947 33.5338C24.5717 33.2175 23.7698 32.7634 23.2532 32.2468L21.839 33.661ZM20.0139 29.9392C20.3831 31.6006 20.9711 32.7932 21.839 33.661L23.2532 32.2468C22.7366 31.7302 22.2825 30.9283 21.9662 29.5053L20.0139 29.9392ZM18 23.5C18 26.1992 18.1433 28.4365 18.5496 30.2646C18.9584 32.104 19.6466 33.59 20.7783 34.7217C21.91 35.8534 23.396 36.5416 25.2354 36.9504C27.0635 37.3567 29.3008 37.5 32 37.5V35.5C29.3464 35.5 27.2823 35.3565 25.6693 34.998C24.0676 34.6421 22.9727 34.0876 22.1925 33.3075C21.4124 32.5273 20.8579 31.4324 20.502 29.8307C20.1435 28.2176 20 26.1536 20 23.5H18ZM32 9.5C29.3008 9.5 27.0635 9.64332 25.2354 10.0496C23.396 10.4584 21.91 11.1466 20.7783 12.2783C19.6466 13.41 18.9584 14.896 18.5496 16.7354C18.1433 18.5635 18 20.8008 18 23.5H20C20 20.8464 20.1435 18.7823 20.502 17.1693C20.8579 15.5676 21.4124 14.4727 22.1925 13.6925C22.9727 12.9124 24.0676 12.3579 25.6693 12.002C27.2823 11.6435 29.3464 11.5 32 11.5V9.5ZM46 23.5C46 20.8008 45.8567 18.5635 45.4504 16.7354C45.0416 14.896 44.3534 13.41 43.2217 12.2783C42.09 11.1466 40.604 10.4584 38.7646 10.0496C36.9365 9.64332 34.6992 9.5 32 9.5V11.5C34.6536 11.5 36.7177 11.6435 38.3307 12.002C39.9324 12.3579 41.0273 12.9124 41.8075 13.6925C42.5876 14.4727 43.1421 15.5676 43.498 17.1693C43.8565 18.7823 44 20.8464 44 23.5H46ZM32 37.5C34.6992 37.5 36.9365 37.3567 38.7646 36.9504C40.604 36.5416 42.09 35.8534 43.2217 34.7217C44.3534 33.59 45.0416 32.104 45.4504 30.2646C45.8567 28.4365 46 26.1992 46 23.5H44C44 26.1536 43.8565 28.2176 43.498 29.8307C43.1421 31.4324 42.5876 32.5273 41.8075 33.3075C41.0273 34.0876 39.9324 34.6421 38.3307 34.998C36.7177 35.3565 34.6536 35.5 32 35.5V37.5Z" fill="#301E67" mask="url(#path-2-inside-1_47_952)"/>
<path d="M25.5 25.6667C25.5 25.6667 28.5001 18.0834 32 23.5C35.5 28.9167 38.5 21.3334 38.5 21.3334" stroke="#301E67" stroke-width="2.5" stroke-linecap="round" stroke-linejoin="round"/>
<path d="M74.0068 25.4648H68.7861L66.9932 30H66L71.168 17.0977H71.7393L76.8018 30H75.791L74.0068 25.4648ZM69.1113 24.6562H73.708L71.959 20.0244C71.8125 19.6611 71.6367 19.1572 71.4316 18.5127C71.2734 19.0752 71.1006 19.585 70.9131 20.042L69.1113 24.6562ZM85.0723 30V23.8037C85.0723 22.8428 84.8701 22.1455 84.4658 21.7119C84.0615 21.2725 83.4346 21.0527 82.585 21.0527C81.4424 21.0527 80.6045 21.3428 80.0713 21.9229C79.5439 22.4971 79.2803 23.4316 79.2803 24.7266V30H78.4102V20.4463H79.1484L79.3154 21.7559H79.3682C79.9893 20.7598 81.0938 20.2617 82.6816 20.2617C84.8496 20.2617 85.9336 21.4248 85.9336 23.751V30H85.0723ZM94.8281 30L94.6084 28.4883H94.5381C94.0576 29.1035 93.5625 29.54 93.0527 29.7979C92.5488 30.0498 91.9512 30.1758 91.2598 30.1758C90.3223 30.1758 89.5928 29.9355 89.0713 29.4551C88.5498 28.9746 88.2891 28.3096 88.2891 27.46C88.2891 26.5283 88.6758 25.8047 89.4492 25.2891C90.2285 24.7734 91.3535 24.501 92.8242 24.4717L94.6436 24.4189V23.7861C94.6436 22.8779 94.459 22.1924 94.0898 21.7295C93.7207 21.2666 93.126 21.0352 92.3057 21.0352C91.4209 21.0352 90.5039 21.2812 89.5547 21.7734L89.2295 21.0176C90.2783 20.5254 91.3154 20.2793 92.3408 20.2793C93.3896 20.2793 94.1719 20.5518 94.6875 21.0967C95.209 21.6416 95.4697 22.4912 95.4697 23.6455V30H94.8281ZM91.3125 29.3848C92.332 29.3848 93.1348 29.0947 93.7207 28.5146C94.3125 27.9287 94.6084 27.1172 94.6084 26.0801V25.1396L92.9385 25.21C91.5967 25.2744 90.6387 25.4854 90.0645 25.8428C89.4961 26.1943 89.2119 26.7451 89.2119 27.4951C89.2119 28.0928 89.3936 28.5586 89.7568 28.8926C90.126 29.2207 90.6445 29.3848 91.3125 29.3848ZM99.4424 30H98.5723V16.3242H99.4424V30ZM101.051 20.4463H101.947L103.969 25.8076C104.584 27.4541 104.974 28.5645 105.138 29.1387H105.19C105.437 28.3828 105.838 27.2549 106.395 25.7549L108.416 20.4463H109.312L105.032 31.5469C104.687 32.4492 104.396 33.0586 104.162 33.375C103.928 33.6914 103.652 33.9287 103.336 34.0869C103.025 34.2451 102.647 34.3242 102.202 34.3242C101.868 34.3242 101.496 34.2627 101.086 34.1396V33.3838C101.426 33.4775 101.792 33.5244 102.185 33.5244C102.483 33.5244 102.747 33.4541 102.976 33.3135C103.204 33.1729 103.409 32.9531 103.591 32.6543C103.778 32.3613 103.992 31.8926 104.232 31.248C104.479 30.6094 104.637 30.1934 104.707 30L101.051 20.4463ZM116.836 27.5127C116.836 28.3682 116.511 29.0273 115.86 29.4902C115.21 29.9473 114.287 30.1758 113.092 30.1758C111.814 30.1758 110.801 29.9795 110.051 29.5869V28.6465C111.012 29.127 112.025 29.3672 113.092 29.3672C114.035 29.3672 114.75 29.2119 115.236 28.9014C115.729 28.585 115.975 28.166 115.975 27.6445C115.975 27.1641 115.778 26.7598 115.386 26.4316C114.999 26.1035 114.36 25.7812 113.47 25.4648C112.515 25.1191 111.844 24.8232 111.457 24.5771C111.07 24.3252 110.777 24.0439 110.578 23.7334C110.385 23.417 110.288 23.0332 110.288 22.582C110.288 21.8672 110.587 21.3018 111.185 20.8857C111.788 20.4697 112.629 20.2617 113.707 20.2617C114.738 20.2617 115.717 20.4551 116.643 20.8418L116.317 21.6328C115.38 21.2461 114.51 21.0527 113.707 21.0527C112.928 21.0527 112.31 21.1816 111.853 21.4395C111.396 21.6973 111.167 22.0547 111.167 22.5117C111.167 23.0098 111.343 23.4082 111.694 23.707C112.052 24.0059 112.746 24.3398 113.777 24.709C114.639 25.0195 115.266 25.3008 115.658 25.5527C116.051 25.7988 116.344 26.0801 116.537 26.3965C116.736 26.7129 116.836 27.085 116.836 27.5127ZM120.167 30H119.297V20.4463H120.167V30ZM119.174 17.792C119.174 17.2295 119.358 16.9482 119.728 16.9482C119.909 16.9482 120.05 17.0215 120.149 17.168C120.255 17.3145 120.308 17.5225 120.308 17.792C120.308 18.0557 120.255 18.2637 120.149 18.416C120.05 18.5684 119.909 18.6445 119.728 18.6445C119.358 18.6445 119.174 18.3604 119.174 17.792ZM129.299 27.5127C129.299 28.3682 128.974 29.0273 128.323 29.4902C127.673 29.9473 126.75 30.1758 125.555 30.1758C124.277 30.1758 123.264 29.9795 122.514 29.5869V28.6465C123.475 29.127 124.488 29.3672 125.555 29.3672C126.498 29.3672 127.213 29.2119 127.699 28.9014C128.191 28.585 128.438 28.166 128.438 27.6445C128.438 27.1641 128.241 26.7598 127.849 26.4316C127.462 26.1035 126.823 25.7812 125.933 25.4648C124.978 25.1191 124.307 24.8232 123.92 24.5771C123.533 24.3252 123.24 24.0439 123.041 23.7334C122.848 23.417 122.751 23.0332 122.751 22.582C122.751 21.8672 123.05 21.3018 123.647 20.8857C124.251 20.4697 125.092 20.2617 126.17 20.2617C127.201 20.2617 128.18 20.4551 129.105 20.8418L128.78 21.6328C127.843 21.2461 126.973 21.0527 126.17 21.0527C125.391 21.0527 124.772 21.1816 124.315 21.4395C123.858 21.6973 123.63 22.0547 123.63 22.5117C123.63 23.0098 123.806 23.4082 124.157 23.707C124.515 24.0059 125.209 24.3398 126.24 24.709C127.102 25.0195 127.729 25.3008 128.121 25.5527C128.514 25.7988 128.807 26.0801 129 26.3965C129.199 26.7129 129.299 27.085 129.299 27.5127Z" fill="#301E67"/>
</svg>
