<svg width="26" height="27" viewBox="0 0 26 27" fill="none" xmlns="http://www.w3.org/2000/svg">
<g id="Analysis_icon">
<g id="Subtract">
<mask id="path-1-inside-1_575_6" fill="white">
<path fill-rule="evenodd" clip-rule="evenodd" d="M1.99006 19.7222C1.64353 18.1629 1.5 16.1421 1.5 13.5C1.5 10.8579 1.64353 8.83706 1.99006 7.27779C2.33281 5.73556 2.85389 4.73831 3.5461 4.0461C4.23831 3.35389 5.23556 2.83281 6.77779 2.49006C8.33706 2.14353 10.3579 2 13 2C15.6421 2 17.6629 2.14353 19.2222 2.49006C20.7644 2.83281 21.7617 3.35389 22.4539 4.0461C23.1461 4.73831 23.6672 5.73556 24.0099 7.27779C24.3565 8.83706 24.5 10.8579 24.5 13.5C24.5 16.1421 24.3565 18.1629 24.0099 19.7222C23.6672 21.2644 23.1461 22.2617 22.4539 22.9539C21.7617 23.6461 20.7644 24.1672 19.2222 24.5099C17.6629 24.8565 15.6421 25 13 25C10.3579 25 8.33706 24.8565 6.77779 24.5099C5.23556 24.1672 4.23831 23.6461 3.5461 22.9539C2.85389 22.2617 2.33281 21.2644 1.99006 19.7222ZM13 26.5C2.2945 26.5 0 24.2055 0 13.5C0 2.7945 2.2945 0.5 13 0.5C23.7055 0.5 26 2.7945 26 13.5C26 24.2055 23.7055 26.5 13 26.5Z"/>
</mask>
<path fill-rule="evenodd" clip-rule="evenodd" d="M1.99006 19.7222C1.64353 18.1629 1.5 16.1421 1.5 13.5C1.5 10.8579 1.64353 8.83706 1.99006 7.27779C2.33281 5.73556 2.85389 4.73831 3.5461 4.0461C4.23831 3.35389 5.23556 2.83281 6.77779 2.49006C8.33706 2.14353 10.3579 2 13 2C15.6421 2 17.6629 2.14353 19.2222 2.49006C20.7644 2.83281 21.7617 3.35389 22.4539 4.0461C23.1461 4.73831 23.6672 5.73556 24.0099 7.27779C24.3565 8.83706 24.5 10.8579 24.5 13.5C24.5 16.1421 24.3565 18.1629 24.0099 19.7222C23.6672 21.2644 23.1461 22.2617 22.4539 22.9539C21.7617 23.6461 20.7644 24.1672 19.2222 24.5099C17.6629 24.8565 15.6421 25 13 25C10.3579 25 8.33706 24.8565 6.77779 24.5099C5.23556 24.1672 4.23831 23.6461 3.5461 22.9539C2.85389 22.2617 2.33281 21.2644 1.99006 19.7222ZM13 26.5C2.2945 26.5 0 24.2055 0 13.5C0 2.7945 2.2945 0.5 13 0.5C23.7055 0.5 26 2.7945 26 13.5C26 24.2055 23.7055 26.5 13 26.5Z" fill="#301E67"/>
<path d="M1.99006 19.7222L1.01388 19.9392L1.99006 19.7222ZM1.99006 7.27779L2.96625 7.49474L1.99006 7.27779ZM6.77779 2.49006L6.99474 3.46625H6.99474L6.77779 2.49006ZM19.2222 2.49006L19.0053 3.46625L19.2222 2.49006ZM24.0099 7.27779L23.0338 7.49474V7.49474L24.0099 7.27779ZM24.0099 19.7222L23.0338 19.5053L24.0099 19.7222ZM19.2222 24.5099L19.0053 23.5338L19.2222 24.5099ZM6.77779 24.5099L6.56084 25.4861L6.77779 24.5099ZM0.5 13.5C0.5 16.1648 0.643433 18.2723 1.01388 19.9392L2.96625 19.5053C2.64363 18.0536 2.5 16.1194 2.5 13.5H0.5ZM1.01388 7.06084C0.643433 8.72771 0.5 10.8352 0.5 13.5H2.5C2.5 10.8806 2.64363 8.9464 2.96625 7.49474L1.01388 7.06084ZM2.83899 3.33899C1.97114 4.20684 1.38312 5.39942 1.01388 7.06084L2.96625 7.49474C3.28251 6.07169 3.73663 5.26977 4.2532 4.7532L2.83899 3.33899ZM6.56084 1.51388C4.89942 1.88312 3.70684 2.47114 2.83899 3.33899L4.2532 4.7532C4.76978 4.23663 5.57169 3.78251 6.99474 3.46625L6.56084 1.51388ZM13 1C10.3352 1 8.22771 1.14343 6.56084 1.51388L6.99474 3.46625C8.4464 3.14362 10.3806 3 13 3V1ZM19.4392 1.51388C17.7723 1.14343 15.6648 1 13 1V3C15.6194 3 17.5536 3.14362 19.0053 3.46625L19.4392 1.51388ZM23.161 3.33899C22.2932 2.47114 21.1006 1.88312 19.4392 1.51388L19.0053 3.46625C20.4283 3.78251 21.2302 4.23663 21.7468 4.7532L23.161 3.33899ZM24.9861 7.06084C24.6169 5.39942 24.0289 4.20684 23.161 3.33899L21.7468 4.7532C22.2634 5.26977 22.7175 6.07169 23.0338 7.49474L24.9861 7.06084ZM25.5 13.5C25.5 10.8352 25.3566 8.72771 24.9861 7.06084L23.0338 7.49474C23.3564 8.9464 23.5 10.8806 23.5 13.5H25.5ZM24.9861 19.9392C25.3566 18.2723 25.5 16.1648 25.5 13.5H23.5C23.5 16.1194 23.3564 18.0536 23.0338 19.5053L24.9861 19.9392ZM23.161 23.661C24.0289 22.7932 24.6169 21.6006 24.9861 19.9392L23.0338 19.5053C22.7175 20.9283 22.2634 21.7302 21.7468 22.2468L23.161 23.661ZM19.4392 25.4861C21.1006 25.1169 22.2932 24.5289 23.161 23.661L21.7468 22.2468C21.2302 22.7634 20.4283 23.2175 19.0053 23.5338L19.4392 25.4861ZM13 26C15.6648 26 17.7723 25.8566 19.4392 25.4861L19.0053 23.5338C17.5536 23.8564 15.6194 24 13 24V26ZM6.56084 25.4861C8.22771 25.8566 10.3352 26 13 26V24C10.3806 24 8.4464 23.8564 6.99474 23.5338L6.56084 25.4861ZM2.83899 23.661C3.70684 24.5289 4.89942 25.1169 6.56084 25.4861L6.99474 23.5338C5.57169 23.2175 4.76978 22.7634 4.2532 22.2468L2.83899 23.661ZM1.01388 19.9392C1.38312 21.6006 1.97114 22.7932 2.83899 23.661L4.2532 22.2468C3.73663 21.7302 3.28251 20.9283 2.96625 19.5053L1.01388 19.9392ZM-1 13.5C-1 16.1992 -0.856676 18.4365 -0.450394 20.2646C-0.0415883 22.104 0.646628 23.59 1.77833 24.7217C2.91003 25.8534 4.39596 26.5416 6.23542 26.9504C8.06353 27.3567 10.3008 27.5 13 27.5V25.5C10.3464 25.5 8.28235 25.3565 6.66932 24.998C5.06764 24.6421 3.97265 24.0876 3.19254 23.3075C2.41243 22.5273 1.85793 21.4324 1.50197 19.8307C1.14349 18.2176 1 16.1536 1 13.5H-1ZM13 -0.5C10.3008 -0.5 8.06353 -0.356676 6.23542 0.0496058C4.39596 0.458411 2.91003 1.14663 1.77833 2.27833C0.646628 3.41003 -0.0415884 4.89596 -0.450394 6.73542C-0.856676 8.56352 -1 10.8008 -1 13.5H1C1 10.8464 1.14349 8.78235 1.50197 7.16932C1.85793 5.56764 2.41243 4.47265 3.19254 3.69254C3.97265 2.91243 5.06764 2.35793 6.66932 2.00197C8.28235 1.64349 10.3464 1.5 13 1.5V-0.5ZM27 13.5C27 10.8008 26.8567 8.56352 26.4504 6.73542C26.0416 4.89596 25.3534 3.41003 24.2217 2.27833C23.09 1.14663 21.604 0.458411 19.7646 0.0496058C17.9365 -0.356676 15.6992 -0.5 13 -0.5V1.5C15.6536 1.5 17.7177 1.64349 19.3307 2.00197C20.9324 2.35793 22.0273 2.91243 22.8075 3.69254C23.5876 4.47265 24.1421 5.56764 24.498 7.16932C24.8565 8.78235 25 10.8464 25 13.5H27ZM13 27.5C15.6992 27.5 17.9365 27.3567 19.7646 26.9504C21.604 26.5416 23.09 25.8534 24.2217 24.7217C25.3534 23.59 26.0416 22.104 26.4504 20.2646C26.8567 18.4365 27 16.1992 27 13.5H25C25 16.1536 24.8565 18.2176 24.498 19.8307C24.1421 21.4324 23.5876 22.5273 22.8075 23.3075C22.0273 24.0876 20.9324 24.6421 19.3307 24.998C17.7177 25.3565 15.6536 25.5 13 25.5V27.5Z" fill="#301E67" mask="url(#path-1-inside-1_575_6)"/>
</g>
<path id="Vector 25" d="M6.5 15.6667C6.5 15.6667 9.50006 8.08335 13 13.5C16.5 18.9167 19.5 11.3334 19.5 11.3334" stroke="#301E67" stroke-width="2.5" stroke-linecap="round" stroke-linejoin="round"/>
</g>
</svg>
