<svg width="46" height="45" viewBox="0 0 46 45" fill="none" xmlns="http://www.w3.org/2000/svg">
<path d="M23.4689 40.0689C33.1719 40.0689 41.0378 32.203 41.0378 22.4999C41.0378 12.7969 33.1719 4.93097 23.4689 4.93097C13.7658 4.93097 5.8999 12.7969 5.8999 22.4999C5.8999 32.203 13.7658 40.0689 23.4689 40.0689Z" fill="#301E67"/>
<path d="M28.2524 15.6352C28.2524 17.9968 26.3326 19.9167 23.9709 19.9167C21.6093 19.9167 19.6895 17.9968 19.6895 15.6352C19.6895 13.2736 21.6093 11.3537 23.9709 11.3537C26.3326 11.3537 28.2524 13.2736 28.2524 15.6352Z" fill="white"/>
<path d="M23.9707 21.3863C19.5872 21.3863 16.0278 24.9457 16.0278 29.3291C16.0278 30.476 16.9623 31.4104 18.1091 31.4104H29.8238C30.9706 31.4104 31.905 30.476 31.905 29.3291C31.905 24.9457 28.3456 21.3863 23.9622 21.3863H23.9707Z" fill="white"/>
</svg>
