<svg width="20" height="20" viewBox="0 0 20 20" fill="none" xmlns="http://www.w3.org/2000/svg">
<path d="M16.8125 2.375H3.0625C1.92341 2.375 1 3.29841 1 4.4375V16.8125C1 17.9516 1.92341 18.875 3.0625 18.875H16.8125C17.9516 18.875 18.875 17.9516 18.875 16.8125V4.4375C18.875 3.29841 17.9516 2.375 16.8125 2.375Z" stroke="#767676" stroke-width="1.375" stroke-linejoin="round"/>
<path d="M11.6562 9.9375C12.2258 9.9375 12.6875 9.47579 12.6875 8.90625C12.6875 8.33671 12.2258 7.875 11.6562 7.875C11.0867 7.875 10.625 8.33671 10.625 8.90625C10.625 9.47579 11.0867 9.9375 11.6562 9.9375Z" fill="#767676"/>
<path d="M15.0938 9.9375C15.6633 9.9375 16.125 9.47579 16.125 8.90625C16.125 8.33671 15.6633 7.875 15.0938 7.875C14.5242 7.875 14.0625 8.33671 14.0625 8.90625C14.0625 9.47579 14.5242 9.9375 15.0938 9.9375Z" fill="#767676"/>
<path d="M11.6562 13.375C12.2258 13.375 12.6875 12.9133 12.6875 12.3438C12.6875 11.7742 12.2258 11.3125 11.6562 11.3125C11.0867 11.3125 10.625 11.7742 10.625 12.3438C10.625 12.9133 11.0867 13.375 11.6562 13.375Z" fill="#767676"/>
<path d="M15.0938 13.375C15.6633 13.375 16.125 12.9133 16.125 12.3438C16.125 11.7742 15.6633 11.3125 15.0938 11.3125C14.5242 11.3125 14.0625 11.7742 14.0625 12.3438C14.0625 12.9133 14.5242 13.375 15.0938 13.375Z" fill="#767676"/>
<path d="M4.78125 13.375C5.35079 13.375 5.8125 12.9133 5.8125 12.3438C5.8125 11.7742 5.35079 11.3125 4.78125 11.3125C4.21171 11.3125 3.75 11.7742 3.75 12.3438C3.75 12.9133 4.21171 13.375 4.78125 13.375Z" fill="#767676"/>
<path d="M8.21875 13.375C8.78829 13.375 9.25 12.9133 9.25 12.3438C9.25 11.7742 8.78829 11.3125 8.21875 11.3125C7.64921 11.3125 7.1875 11.7742 7.1875 12.3438C7.1875 12.9133 7.64921 13.375 8.21875 13.375Z" fill="#767676"/>
<path d="M4.78125 16.8125C5.35079 16.8125 5.8125 16.3508 5.8125 15.7812C5.8125 15.2117 5.35079 14.75 4.78125 14.75C4.21171 14.75 3.75 15.2117 3.75 15.7812C3.75 16.3508 4.21171 16.8125 4.78125 16.8125Z" fill="#767676"/>
<path d="M8.21875 16.8125C8.78829 16.8125 9.25 16.3508 9.25 15.7812C9.25 15.2117 8.78829 14.75 8.21875 14.75C7.64921 14.75 7.1875 15.2117 7.1875 15.7812C7.1875 16.3508 7.64921 16.8125 8.21875 16.8125Z" fill="#767676"/>
<path d="M11.6562 16.8125C12.2258 16.8125 12.6875 16.3508 12.6875 15.7812C12.6875 15.2117 12.2258 14.75 11.6562 14.75C11.0867 14.75 10.625 15.2117 10.625 15.7812C10.625 16.3508 11.0867 16.8125 11.6562 16.8125Z" fill="#767676"/>
<path d="M4.4375 1V2.375M15.4375 1V2.375" stroke="#767676" stroke-width="1.375" stroke-linecap="round" stroke-linejoin="round"/>
<path d="M18.875 5.8125H1" stroke="#767676" stroke-width="1.375" stroke-linejoin="round"/>
</svg>
