<svg width="192" height="45" viewBox="0 0 192 45" fill="none" xmlns="http://www.w3.org/2000/svg">
<path fill-rule="evenodd" clip-rule="evenodd" d="M37.5 21.5C32.9708 21.5 32 20.5293 32 16C32 11.4707 32.9708 10.5 37.5 10.5C42.0293 10.5 43 11.4707 43 16C43 20.5293 42.0293 21.5 37.5 21.5ZM35.1637 19.3252C35.6766 19.4392 36.4133 19.5 37.5 19.5C38.5867 19.5 39.3234 19.4392 39.8363 19.3252C40.3264 19.2163 40.4814 19.0871 40.5343 19.0343C40.5871 18.9814 40.7163 18.8264 40.8252 18.3363C40.9392 17.8234 41 17.0867 41 16C41 14.9133 40.9392 14.1766 40.8252 13.6637C40.7163 13.1736 40.5871 13.0186 40.5343 12.9657C40.4814 12.9129 40.3264 12.7837 39.8363 12.6748C39.3234 12.5608 38.5867 12.5 37.5 12.5C36.4133 12.5 35.6766 12.5608 35.1637 12.6748C34.6736 12.7837 34.5186 12.9129 34.4657 12.9657C34.4129 13.0186 34.2837 13.1736 34.1748 13.6637C34.0608 14.1766 34 14.9133 34 16C34 17.0867 34.0608 17.8234 34.1748 18.3363C34.2837 18.8264 34.4129 18.9814 34.4657 19.0343C34.5186 19.0871 34.6736 19.2163 35.1637 19.3252Z" fill="#301E67"/>
<path fill-rule="evenodd" clip-rule="evenodd" d="M24.5 34.5C19.9707 34.5 19 33.5293 19 29C19 24.4708 19.9707 23.5 24.5 23.5C29.0293 23.5 30 24.4708 30 29C30 33.5293 29.0293 34.5 24.5 34.5ZM21.1748 31.3363C21.0608 30.8234 21 30.0867 21 29C21 27.9133 21.0608 27.1766 21.1748 26.6637C21.2837 26.1736 21.4129 26.0186 21.4657 25.9657C21.5186 25.9129 21.6736 25.7837 22.1637 25.6748C22.6766 25.5608 23.4133 25.5 24.5 25.5C25.5867 25.5 26.3234 25.5608 26.8363 25.6748C27.3264 25.7837 27.4814 25.9129 27.5343 25.9657C27.5871 26.0186 27.7163 26.1736 27.8252 26.6637C27.9392 27.1766 28 27.9133 28 29C28 30.0867 27.9392 30.8234 27.8252 31.3363C27.7163 31.8264 27.5871 31.9814 27.5343 32.0343C27.4814 32.0871 27.3264 32.2163 26.8363 32.3252C26.3234 32.4392 25.5867 32.5 24.5 32.5C23.4133 32.5 22.6766 32.4392 22.1637 32.3252C21.6736 32.2163 21.5186 32.0871 21.4657 32.0343C21.4129 31.9814 21.2837 31.8264 21.1748 31.3363Z" fill="#301E67"/>
<path fill-rule="evenodd" clip-rule="evenodd" d="M19 16C19 20.5293 19.9707 21.5 24.5 21.5C29.0293 21.5 30 20.5293 30 16C30 11.4707 29.0293 10.5 24.5 10.5C19.9707 10.5 19 11.4707 19 16ZM21 16C21 17.0867 21.0608 17.8234 21.1748 18.3363C21.2837 18.8264 21.4129 18.9814 21.4657 19.0343C21.5186 19.0871 21.6736 19.2163 22.1637 19.3252C22.6766 19.4392 23.4133 19.5 24.5 19.5C25.5867 19.5 26.3234 19.4392 26.8363 19.3252C27.3264 19.2163 27.4814 19.0871 27.5343 19.0343C27.5871 18.9814 27.7163 18.8264 27.8252 18.3363C27.9392 17.8234 28 17.0867 28 16C28 14.9133 27.9392 14.1766 27.8252 13.6637C27.7163 13.1736 27.5871 13.0186 27.5343 12.9657C27.4814 12.9129 27.3264 12.7837 26.8363 12.6748C26.3234 12.5608 25.5867 12.5 24.5 12.5C23.4133 12.5 22.6766 12.5608 22.1637 12.6748C21.6736 12.7837 21.5186 12.9129 21.4657 12.9657C21.4129 13.0186 21.2837 13.1736 21.1748 13.6637C21.0608 14.1766 21 14.9133 21 16Z" fill="#301E67"/>
<path fill-rule="evenodd" clip-rule="evenodd" d="M32 29C32 33.5292 32.9707 34.5 37.5 34.5C42.0293 34.5 43 33.5292 43 29C43 24.4707 42.0293 23.5 37.5 23.5C32.9707 23.5 32 24.4707 32 29ZM34 29C34 30.0867 34.0608 30.8234 34.1748 31.3363C34.2837 31.8264 34.4129 31.9814 34.4657 32.0343C34.5186 32.0871 34.6736 32.2163 35.1637 32.3252C35.6766 32.4392 36.4133 32.5 37.5 32.5C38.5867 32.5 39.3234 32.4392 39.8363 32.3252C40.3264 32.2163 40.4814 32.0871 40.5343 32.0343C40.5871 31.9814 40.7163 31.8264 40.8252 31.3363C40.9392 30.8234 41 30.0867 41 29C41 27.9133 40.9392 27.1766 40.8252 26.6637C40.7163 26.1736 40.5871 26.0186 40.5343 25.9657C40.4814 25.9129 40.3264 25.7837 39.8363 25.6748C39.3234 25.5608 38.5867 25.5 37.5 25.5C36.4133 25.5 35.6766 25.5608 35.1637 25.6748C34.6736 25.7837 34.5186 25.9129 34.4657 25.9657C34.4129 26.0186 34.2837 26.1736 34.1748 26.6637C34.0608 27.1766 34 27.9133 34 29Z" fill="#301E67"/>
<path d="M75.5752 22.4521C75.5752 24.6084 75.0098 26.2402 73.8789 27.3477C72.748 28.4492 71.0869 29 68.8955 29H65.8193V16.1504H69.291C71.3418 16.1504 72.9004 16.6865 73.9668 17.7588C75.0391 18.8311 75.5752 20.3955 75.5752 22.4521ZM74.5996 22.4873C74.5996 20.6475 74.1309 19.2646 73.1934 18.3389C72.2617 17.4072 70.8906 16.9414 69.0801 16.9414H66.7158V28.209H68.8428C72.6807 28.209 74.5996 26.3018 74.5996 22.4873ZM84.1094 29L83.8896 27.4883H83.8193C83.3389 28.1035 82.8438 28.54 82.334 28.7979C81.8301 29.0498 81.2324 29.1758 80.541 29.1758C79.6035 29.1758 78.874 28.9355 78.3525 28.4551C77.8311 27.9746 77.5703 27.3096 77.5703 26.46C77.5703 25.5283 77.957 24.8047 78.7305 24.2891C79.5098 23.7734 80.6348 23.501 82.1055 23.4717L83.9248 23.4189V22.7861C83.9248 21.8779 83.7402 21.1924 83.3711 20.7295C83.002 20.2666 82.4072 20.0352 81.5869 20.0352C80.7021 20.0352 79.7852 20.2812 78.8359 20.7734L78.5107 20.0176C79.5596 19.5254 80.5967 19.2793 81.6221 19.2793C82.6709 19.2793 83.4531 19.5518 83.9688 20.0967C84.4902 20.6416 84.751 21.4912 84.751 22.6455V29H84.1094ZM80.5938 28.3848C81.6133 28.3848 82.416 28.0947 83.002 27.5146C83.5938 26.9287 83.8896 26.1172 83.8896 25.0801V24.1396L82.2197 24.21C80.8779 24.2744 79.9199 24.4854 79.3457 24.8428C78.7773 25.1943 78.4932 25.7451 78.4932 26.4951C78.4932 27.0928 78.6748 27.5586 79.0381 27.8926C79.4072 28.2207 79.9258 28.3848 80.5938 28.3848ZM93.7773 26.5127C93.7773 27.3682 93.4521 28.0273 92.8018 28.4902C92.1514 28.9473 91.2285 29.1758 90.0332 29.1758C88.7559 29.1758 87.7422 28.9795 86.9922 28.5869V27.6465C87.9531 28.127 88.9668 28.3672 90.0332 28.3672C90.9766 28.3672 91.6914 28.2119 92.1777 27.9014C92.6699 27.585 92.916 27.166 92.916 26.6445C92.916 26.1641 92.7197 25.7598 92.3271 25.4316C91.9404 25.1035 91.3018 24.7812 90.4111 24.4648C89.4561 24.1191 88.7852 23.8232 88.3984 23.5771C88.0117 23.3252 87.7188 23.0439 87.5195 22.7334C87.3262 22.417 87.2295 22.0332 87.2295 21.582C87.2295 20.8672 87.5283 20.3018 88.126 19.8857C88.7295 19.4697 89.5703 19.2617 90.6484 19.2617C91.6797 19.2617 92.6582 19.4551 93.584 19.8418L93.2588 20.6328C92.3213 20.2461 91.4512 20.0527 90.6484 20.0527C89.8691 20.0527 89.251 20.1816 88.7939 20.4395C88.3369 20.6973 88.1084 21.0547 88.1084 21.5117C88.1084 22.0098 88.2842 22.4082 88.6357 22.707C88.9932 23.0059 89.6875 23.3398 90.7188 23.709C91.5801 24.0195 92.207 24.3008 92.5996 24.5527C92.9922 24.7988 93.2852 25.0801 93.4785 25.3965C93.6777 25.7129 93.7773 26.085 93.7773 26.5127ZM102.9 29V22.8037C102.9 21.8428 102.698 21.1455 102.294 20.7119C101.89 20.2725 101.263 20.0527 100.413 20.0527C99.2705 20.0527 98.4326 20.3428 97.8994 20.9229C97.3721 21.4971 97.1084 22.4316 97.1084 23.7266V29H96.2383V15.3242H97.1084V19.6748L97.0645 20.8965H97.126C97.4834 20.3223 97.9346 19.9062 98.4795 19.6484C99.0244 19.3906 99.7012 19.2617 100.51 19.2617C102.678 19.2617 103.762 20.4248 103.762 22.751V29H102.9ZM110.89 19.2617C112.226 19.2617 113.23 19.6836 113.904 20.5273C114.584 21.3652 114.924 22.5928 114.924 24.21C114.924 25.7979 114.566 27.0225 113.852 27.8838C113.143 28.7451 112.144 29.1758 110.854 29.1758C110.175 29.1758 109.562 29.0352 109.018 28.7539C108.473 28.4727 108.042 28.0742 107.726 27.5586H107.646L107.4 29H106.855V15.3242H107.726V18.7607C107.726 19.2764 107.714 19.751 107.69 20.1846L107.664 20.9316H107.726C108.089 20.3574 108.525 19.9355 109.035 19.666C109.551 19.3965 110.169 19.2617 110.89 19.2617ZM110.872 20.0527C109.747 20.0527 108.941 20.375 108.455 21.0195C107.969 21.6641 107.726 22.7275 107.726 24.21V24.3594C107.726 25.8008 107.978 26.835 108.481 27.4619C108.991 28.0889 109.782 28.4023 110.854 28.4023C111.897 28.4023 112.683 28.0391 113.21 27.3125C113.737 26.5801 114.001 25.54 114.001 24.1924C114.001 21.4326 112.958 20.0527 110.872 20.0527ZM125.479 24.21C125.479 25.7686 125.102 26.9873 124.346 27.8662C123.59 28.7393 122.547 29.1758 121.217 29.1758C120.379 29.1758 119.641 28.9736 119.002 28.5693C118.363 28.165 117.874 27.585 117.534 26.8291C117.194 26.0732 117.024 25.2002 117.024 24.21C117.024 22.6514 117.402 21.4385 118.158 20.5713C118.914 19.6982 119.951 19.2617 121.27 19.2617C122.582 19.2617 123.61 19.7041 124.354 20.5889C125.104 21.4678 125.479 22.6748 125.479 24.21ZM117.938 24.21C117.938 25.5225 118.226 26.5479 118.8 27.2861C119.38 28.0186 120.197 28.3848 121.252 28.3848C122.307 28.3848 123.121 28.0186 123.695 27.2861C124.275 26.5479 124.565 25.5225 124.565 24.21C124.565 22.8916 124.272 21.8691 123.687 21.1426C123.106 20.416 122.289 20.0527 121.234 20.0527C120.18 20.0527 119.365 20.416 118.791 21.1426C118.223 21.8633 117.938 22.8857 117.938 24.21ZM133.926 29L133.706 27.4883H133.636C133.155 28.1035 132.66 28.54 132.15 28.7979C131.646 29.0498 131.049 29.1758 130.357 29.1758C129.42 29.1758 128.69 28.9355 128.169 28.4551C127.647 27.9746 127.387 27.3096 127.387 26.46C127.387 25.5283 127.773 24.8047 128.547 24.2891C129.326 23.7734 130.451 23.501 131.922 23.4717L133.741 23.4189V22.7861C133.741 21.8779 133.557 21.1924 133.188 20.7295C132.818 20.2666 132.224 20.0352 131.403 20.0352C130.519 20.0352 129.602 20.2812 128.652 20.7734L128.327 20.0176C129.376 19.5254 130.413 19.2793 131.438 19.2793C132.487 19.2793 133.27 19.5518 133.785 20.0967C134.307 20.6416 134.567 21.4912 134.567 22.6455V29H133.926ZM130.41 28.3848C131.43 28.3848 132.232 28.0947 132.818 27.5146C133.41 26.9287 133.706 26.1172 133.706 25.0801V24.1396L132.036 24.21C130.694 24.2744 129.736 24.4854 129.162 24.8428C128.594 25.1943 128.31 25.7451 128.31 26.4951C128.31 27.0928 128.491 27.5586 128.854 27.8926C129.224 28.2207 129.742 28.3848 130.41 28.3848ZM141.432 19.2617C141.836 19.2617 142.27 19.3027 142.732 19.3848L142.565 20.2197C142.167 20.1201 141.754 20.0703 141.326 20.0703C140.512 20.0703 139.844 20.416 139.322 21.1074C138.801 21.7988 138.54 22.6719 138.54 23.7266V29H137.67V19.4463H138.408L138.496 21.1689H138.558C138.95 20.4658 139.369 19.9736 139.814 19.6924C140.26 19.4053 140.799 19.2617 141.432 19.2617ZM148.182 19.2617C148.873 19.2617 149.471 19.3877 149.975 19.6396C150.479 19.8916 150.93 20.3223 151.328 20.9316H151.381C151.346 20.1934 151.328 19.4697 151.328 18.7607V15.3242H152.189V29H151.618L151.398 27.541H151.328C150.602 28.6309 149.559 29.1758 148.199 29.1758C146.881 29.1758 145.873 28.7656 145.176 27.9453C144.479 27.125 144.13 25.9297 144.13 24.3594C144.13 22.707 144.476 21.4443 145.167 20.5713C145.858 19.6982 146.863 19.2617 148.182 19.2617ZM148.182 20.0527C147.139 20.0527 146.354 20.4189 145.826 21.1514C145.305 21.8838 145.044 22.9473 145.044 24.3418C145.044 27.0488 146.096 28.4023 148.199 28.4023C149.277 28.4023 150.068 28.0889 150.572 27.4619C151.076 26.835 151.328 25.8008 151.328 24.3594V24.21C151.328 22.7334 151.079 21.6729 150.581 21.0283C150.089 20.3779 149.289 20.0527 148.182 20.0527Z" fill="#301E67"/>
</svg>
