<svg width="24" height="25" viewBox="0 0 24 25" fill="none" xmlns="http://www.w3.org/2000/svg">
<g id="Dashboard icon">
<g id="Union">
<path fill-rule="evenodd" clip-rule="evenodd" d="M18.5 11.5C13.9708 11.5 13 10.5293 13 6C13 1.47075 13.9708 0.5 18.5 0.5C23.0293 0.5 24 1.47075 24 6C24 10.5293 23.0293 11.5 18.5 11.5ZM16.1637 9.32518C16.6766 9.43916 17.4133 9.5 18.5 9.5C19.5867 9.5 20.3234 9.43916 20.8363 9.32518C21.3264 9.21625 21.4814 9.08708 21.5343 9.03426C21.5871 8.98143 21.7163 8.8264 21.8252 8.33626C21.9392 7.82339 22 7.08666 22 6C22 4.91334 21.9392 4.17661 21.8252 3.66375C21.7163 3.1736 21.5871 3.01857 21.5343 2.96574C21.4814 2.91292 21.3264 2.78375 20.8363 2.67482C20.3234 2.56084 19.5867 2.5 18.5 2.5C17.4133 2.5 16.6766 2.56084 16.1637 2.67482C15.6736 2.78375 15.5186 2.91292 15.4657 2.96574C15.4129 3.01857 15.2837 3.1736 15.1748 3.66375C15.0608 4.17661 15 4.91334 15 6C15 7.08666 15.0608 7.82339 15.1748 8.33626C15.2837 8.8264 15.4129 8.98143 15.4657 9.03426C15.5186 9.08708 15.6736 9.21625 16.1637 9.32518Z" fill="#301E67"/>
<path fill-rule="evenodd" clip-rule="evenodd" d="M5.5 24.5C0.97075 24.5 0 23.5293 0 19C0 14.4708 0.97075 13.5 5.5 13.5C10.0293 13.5 11 14.4708 11 19C11 23.5293 10.0293 24.5 5.5 24.5ZM2.17482 21.3363C2.06084 20.8234 2 20.0867 2 19C2 17.9133 2.06084 17.1766 2.17482 16.6637C2.28375 16.1736 2.41292 16.0186 2.46574 15.9657C2.51857 15.9129 2.6736 15.7837 3.16375 15.6748C3.67661 15.5608 4.41334 15.5 5.5 15.5C6.58666 15.5 7.32339 15.5608 7.83626 15.6748C8.3264 15.7837 8.48143 15.9129 8.53426 15.9657C8.58708 16.0186 8.71625 16.1736 8.82518 16.6637C8.93916 17.1766 9 17.9133 9 19C9 20.0867 8.93916 20.8234 8.82518 21.3363C8.71625 21.8264 8.58708 21.9814 8.53426 22.0343C8.48143 22.0871 8.3264 22.2163 7.83626 22.3252C7.32339 22.4392 6.58666 22.5 5.5 22.5C4.41334 22.5 3.67661 22.4392 3.16375 22.3252C2.6736 22.2163 2.51857 22.0871 2.46574 22.0343C2.41292 21.9814 2.28375 21.8264 2.17482 21.3363Z" fill="#301E67"/>
</g>
<g id="Union_2">
<path fill-rule="evenodd" clip-rule="evenodd" d="M0 6C0 10.5293 0.97075 11.5 5.5 11.5C10.0293 11.5 11 10.5293 11 6C11 1.47075 10.0293 0.5 5.5 0.5C0.97075 0.5 0 1.47075 0 6ZM2 6C2 7.08666 2.06084 7.82339 2.17482 8.33626C2.28375 8.8264 2.41292 8.98143 2.46574 9.03426C2.51857 9.08708 2.6736 9.21625 3.16375 9.32518C3.67661 9.43916 4.41334 9.5 5.5 9.5C6.58666 9.5 7.32339 9.43916 7.83626 9.32518C8.3264 9.21625 8.48143 9.08708 8.53426 9.03426C8.58708 8.98143 8.71625 8.8264 8.82518 8.33626C8.93916 7.82339 9 7.08666 9 6C9 4.91334 8.93916 4.17661 8.82518 3.66374C8.71625 3.1736 8.58708 3.01857 8.53426 2.96574C8.48143 2.91292 8.3264 2.78375 7.83626 2.67482C7.32339 2.56084 6.58666 2.5 5.5 2.5C4.41334 2.5 3.67661 2.56084 3.16375 2.67482C2.6736 2.78375 2.51857 2.91292 2.46574 2.96574C2.41292 3.01857 2.28375 3.1736 2.17482 3.66374C2.06084 4.17661 2 4.91334 2 6Z" fill="#301E67"/>
<path fill-rule="evenodd" clip-rule="evenodd" d="M13 19C13 23.5292 13.9707 24.5 18.5 24.5C23.0293 24.5 24 23.5292 24 19C24 14.4707 23.0293 13.5 18.5 13.5C13.9707 13.5 13 14.4707 13 19ZM15 19C15 20.0867 15.0608 20.8234 15.1748 21.3363C15.2837 21.8264 15.4129 21.9814 15.4657 22.0343C15.5186 22.0871 15.6736 22.2163 16.1637 22.3252C16.6766 22.4392 17.4133 22.5 18.5 22.5C19.5867 22.5 20.3234 22.4392 20.8363 22.3252C21.3264 22.2163 21.4814 22.0871 21.5343 22.0343C21.5871 21.9814 21.7163 21.8264 21.8252 21.3363C21.9392 20.8234 22 20.0867 22 19C22 17.9133 21.9392 17.1766 21.8252 16.6637C21.7163 16.1736 21.5871 16.0186 21.5343 15.9657C21.4814 15.9129 21.3264 15.7837 20.8363 15.6748C20.3234 15.5608 19.5867 15.5 18.5 15.5C17.4133 15.5 16.6766 15.5608 16.1637 15.6748C15.6736 15.7837 15.5186 15.9129 15.4657 15.9657C15.4129 16.0186 15.2837 16.1736 15.1748 16.6637C15.0608 17.1766 15 17.9133 15 19Z" fill="#301E67"/>
</g>
</g>
</svg>
