<svg xmlns="http://www.w3.org/2000/svg" width="25" height="25" viewBox="0 0 25 25" fill="none">
<path d="M19.9135 18.1221L20.3395 21.5737C20.4487 22.4803 19.4765 23.1139 18.701 22.6442L14.1242 19.9243C13.6218 19.9243 13.1302 19.8916 12.6496 19.8261C13.4579 18.8757 13.9385 17.6742 13.9385 16.3743C13.9385 13.2722 11.2514 10.7599 7.93083 10.7599C6.66375 10.7599 5.49498 11.1203 4.52283 11.7539C4.49006 11.4808 4.47913 11.2077 4.47913 10.9237C4.47913 5.9537 8.79375 1.9231 14.1242 1.9231C19.4547 1.9231 23.7693 5.9537 23.7693 10.9237C23.7693 13.8729 22.251 16.4836 19.9135 18.1221Z" fill="white" stroke="white" stroke-width="2" stroke-linecap="round" stroke-linejoin="round"/>
<path d="M13.9385 16.3743C13.9385 17.6742 13.4579 18.8757 12.6496 19.826C11.5682 21.1368 9.85326 21.9779 7.9308 21.9779L5.07987 23.6709C4.59925 23.9658 3.98756 23.5617 4.05309 23.0046L4.32617 20.8528C2.86248 19.837 1.9231 18.2094 1.9231 16.3743C1.9231 14.4518 2.94987 12.7588 4.5228 11.7539C5.49495 11.1203 6.66372 10.7599 7.9308 10.7599C11.2514 10.7599 13.9385 13.2721 13.9385 16.3743Z" fill="#DCD4E1" stroke="#DCD4E1" stroke-width="2" stroke-linecap="round" stroke-linejoin="round"/>
</svg>