<svg width="25" height="25" viewBox="0 0 25 25" fill="none" xmlns="http://www.w3.org/2000/svg">
<path d="M19.9135 17.622L20.3395 21.0737C20.4487 21.9803 19.4765 22.6138 18.701 22.1441L14.1242 19.4243C13.6218 19.4243 13.1302 19.3915 12.6496 19.326C13.4579 18.3757 13.9385 17.1741 13.9385 15.8743C13.9385 12.7721 11.2514 10.2598 7.93083 10.2598C6.66375 10.2598 5.49498 10.6203 4.52283 11.2538C4.49006 10.9807 4.47913 10.7077 4.47913 10.4237C4.47913 5.45364 8.79375 1.42303 14.1242 1.42303C19.4547 1.42303 23.7693 5.45364 23.7693 10.4237C23.7693 13.3729 22.251 15.9835 19.9135 17.622Z" stroke="#301E67" stroke-width="2" stroke-linecap="round" stroke-linejoin="round"/>
<path d="M13.9385 15.8742C13.9385 17.1741 13.4579 18.3757 12.6496 19.326C11.5682 20.6367 9.85326 21.4778 7.9308 21.4778L5.07987 23.1709C4.59925 23.4658 3.98756 23.0616 4.05309 22.5046L4.32617 20.3528C2.86248 19.3369 1.9231 17.7093 1.9231 15.8742C1.9231 13.9518 2.94987 12.2587 4.5228 11.2538C5.49495 10.6203 6.66372 10.2598 7.9308 10.2598C11.2514 10.2598 13.9385 12.7721 13.9385 15.8742Z" stroke="#301E67" stroke-width="2" stroke-linecap="round" stroke-linejoin="round"/>
</svg>
