<svg width="198" height="74" viewBox="0 0 198 74" fill="none" xmlns="http://www.w3.org/2000/svg">
<g id="Group">
<path id="Vector" d="M0.320068 16.7201C1.02007 16.5701 1.71007 16.4601 2.41007 16.3801C3.11007 16.3101 3.88007 16.2701 4.72007 16.2701C5.56007 16.2701 6.31007 16.3101 6.96007 16.3801C7.61007 16.4501 8.28007 16.5701 8.98007 16.7201C9.28007 17.2201 9.53007 18.0601 9.73007 19.2601C9.93007 20.4501 10.0801 21.4001 10.1801 22.1001C11.1801 20.6101 12.5801 19.1901 14.4001 17.8501C16.2201 16.5101 18.5201 15.8301 21.3001 15.8301C25.6801 15.8301 28.9801 17.0201 31.1901 19.4101C33.4001 21.8001 34.5101 25.5601 34.5101 30.6801V55.3101C32.7201 55.6101 30.9501 55.7601 29.2101 55.7601C27.4701 55.7601 25.7001 55.6101 23.9101 55.3101V33.5101C23.9101 30.8201 23.5001 28.7601 22.6801 27.3101C21.8601 25.8701 20.4301 25.1501 18.3901 25.1501C17.2401 25.1501 16.1001 25.4001 14.9601 25.9001C13.8101 26.4001 12.8601 27.3601 12.0901 28.7701C11.3201 30.1901 10.9301 32.2901 10.9301 35.0801V55.3101C9.14007 55.6101 7.37007 55.7601 5.63007 55.7601C3.89007 55.7601 2.12007 55.6101 0.33007 55.3101V16.7201H0.320068Z" fill="white"/>
<path id="Vector_2" d="M47.94 4.74C51.27 2.08 55.7 0.75 61.23 0.75C63.77 0.75 66.14 0.97 68.36 1.42C70.57 1.87 72.9 2.52 75.34 3.36C75.04 6.2 74.24 9.03 72.95 11.87C71.41 11.22 69.83 10.68 68.21 10.23C66.59 9.78 64.37 9.56 61.53 9.56C60.44 9.56 59.32 9.7 58.17 9.97C57.02 10.24 56.08 10.79 55.33 11.61C54.58 12.43 54.21 13.69 54.21 15.38C54.21 16.72 54.51 17.78 55.11 18.55C55.71 19.32 56.49 19.94 57.46 20.42C58.43 20.89 59.41 21.33 60.41 21.73L64.89 23.45C67.43 24.45 69.63 25.53 71.5 26.7C73.37 27.87 74.81 29.41 75.83 31.33C76.85 33.25 77.36 35.85 77.36 39.13C77.36 42.41 76.56 45.43 74.97 48.01C73.38 50.6 71.04 52.61 67.95 54.06C64.86 55.5 61.11 56.22 56.68 56.22C54.54 56.22 52.65 56.13 51.01 55.96C49.37 55.79 47.8 55.49 46.31 55.06C44.82 54.64 43.22 54.1 41.53 53.46C41.68 52.02 41.95 50.51 42.35 48.94C42.75 47.37 43.22 45.79 43.77 44.2C45.86 45.05 47.83 45.68 49.67 46.1C51.51 46.52 53.48 46.73 55.57 46.73C58.7 46.73 61.17 46.15 62.96 44.98C64.75 43.81 65.65 42.03 65.65 39.64C65.65 38.05 65.3 36.79 64.61 35.87C63.91 34.95 63.02 34.22 61.92 33.67C60.82 33.12 59.68 32.63 58.49 32.18L53.94 30.46C51.7 29.61 49.76 28.63 48.12 27.51C46.48 26.39 45.21 24.95 44.31 23.18C43.41 21.41 42.97 19.14 42.97 16.35C42.97 11.27 44.64 7.41 47.97 4.74H47.94Z" fill="white"/>
<path id="Vector_3" d="M80.7101 16.72C81.8501 16.47 82.8601 16.34 83.7301 16.31C84.6001 16.29 85.4101 16.27 86.1601 16.27C87.1601 16.27 88.1801 16.3 89.2201 16.34C90.2601 16.39 91.2101 16.52 92.0601 16.71L100.12 50.37L109.23 16.71C110.87 16.41 112.56 16.26 114.31 16.26C115.06 16.26 115.85 16.27 116.7 16.3C117.55 16.33 118.59 16.46 119.83 16.71L105.42 64.41C104.28 68.19 102.65 70.72 100.53 71.99C98.4101 73.26 95.8401 73.89 92.8001 73.89C91.4101 73.89 90.1501 73.8 89.0301 73.63C87.9101 73.46 86.8001 73.22 85.7101 72.92C85.6601 72.67 85.6301 72.46 85.6301 72.29V71.73C85.6301 70.54 85.7701 69.4 86.0401 68.33C86.3101 67.26 86.6501 66.23 87.0501 65.23C87.5001 65.38 88.0901 65.52 88.8401 65.64C89.5901 65.76 90.3301 65.83 91.0801 65.83C91.8701 65.83 92.6701 65.74 93.4701 65.57C94.2601 65.4 95.0201 64.89 95.7501 64.04C96.4701 63.19 97.0801 61.83 97.5801 59.93L98.8501 55.3C98.3001 55.35 97.6901 55.39 97.0201 55.41C96.3501 55.43 95.6601 55.45 94.9701 55.45C94.4201 55.45 93.9001 55.44 93.4001 55.41C92.9001 55.38 92.4501 55.35 92.0601 55.3L80.7101 16.71V16.72Z" fill="white"/>
<path id="Vector_4" d="M125.64 16.7201C126.34 16.5701 127.03 16.4601 127.73 16.3801C128.43 16.3101 129.2 16.2701 130.04 16.2701C130.88 16.2701 131.63 16.3101 132.28 16.3801C132.93 16.4501 133.6 16.5701 134.3 16.7201C134.6 17.2201 134.85 18.0601 135.05 19.2601C135.25 20.4501 135.4 21.4001 135.5 22.1001C136.49 20.6101 137.9 19.1901 139.72 17.8501C141.54 16.5101 143.84 15.8301 146.62 15.8301C151 15.8301 154.3 17.0201 156.51 19.4101C158.72 21.8001 159.83 25.5601 159.83 30.6801V55.3101C158.04 55.6101 156.27 55.7601 154.53 55.7601C152.79 55.7601 151.02 55.6101 149.23 55.3101V33.5101C149.23 30.8201 148.82 28.7601 148 27.3101C147.18 25.8701 145.75 25.1501 143.71 25.1501C142.56 25.1501 141.42 25.4001 140.28 25.9001C139.13 26.4001 138.18 27.3601 137.41 28.7701C136.64 30.1901 136.25 32.2901 136.25 35.0801V55.3101C134.46 55.6101 132.69 55.7601 130.95 55.7601C129.21 55.7601 127.44 55.6101 125.65 55.3101V16.7201H125.64Z" fill="white"/>
<path id="Vector_5" d="M169.38 46.3901C167.99 43.3301 167.29 39.8801 167.29 36.0501C167.29 32.2201 167.99 28.8601 169.38 25.8201C170.77 22.7901 172.85 20.3601 175.61 18.5401C178.37 16.7201 181.82 15.8201 185.95 15.8201C188.19 15.8201 190.08 15.9401 191.62 16.1901C193.16 16.4401 194.95 16.9601 197 17.7601C197 18.9101 196.85 20.1901 196.55 21.6001C196.25 23.0201 195.78 24.3701 195.13 25.6701C193.64 25.1701 192.33 24.8401 191.21 24.6601C190.09 24.4901 188.81 24.4001 187.37 24.4001C184.28 24.4001 181.96 25.4101 180.39 27.4201C178.82 29.4401 178.04 32.3101 178.04 36.0401C178.04 40.0701 178.89 43.0101 180.58 44.8501C182.27 46.6901 184.56 47.6101 187.45 47.6101C189.04 47.6101 190.34 47.5201 191.33 47.3501C192.32 47.1801 193.67 46.7901 195.36 46.1901C195.96 47.1901 196.45 48.3401 196.85 49.6601C197.25 50.9801 197.45 52.5301 197.45 54.3301C195.46 55.1301 193.59 55.6401 191.85 55.8601C190.11 56.0801 188.29 56.2001 186.4 56.2001C182.12 56.2001 178.56 55.3301 175.73 53.5901C172.89 51.8501 170.78 49.4501 169.39 46.3901H169.38Z" fill="white"/>
</g>
</svg>
