<svg width="192" height="45" viewBox="0 0 192 45" fill="none" xmlns="http://www.w3.org/2000/svg">
<path d="M37 22.5L32.2 17.7M37 22.5L32.2 27.3M37 22.5H25M31 33.3C29.5817 33.3 28.1773 33.0206 26.867 32.4779C25.5567 31.9351 24.3661 31.1396 23.3632 30.1367C22.3603 29.1338 21.5648 27.9432 21.0221 26.6329C20.4793 25.3226 20.2 23.9182 20.2 22.5C20.2 21.0817 20.4793 19.6773 21.0221 18.367C21.5648 17.0567 22.3603 15.8661 23.3632 14.8632C24.3661 13.8603 25.5567 13.0648 26.867 12.5221C28.1773 11.9793 29.5817 11.7 31 11.7" stroke="#301E67" stroke-width="2" stroke-linecap="round" stroke-linejoin="round"/>
<path d="M67.8193 29V16.1504H68.7158V28.1562H74.8418V29H67.8193ZM84.7471 24.21C84.7471 25.7686 84.3691 26.9873 83.6133 27.8662C82.8574 28.7393 81.8145 29.1758 80.4844 29.1758C79.6465 29.1758 78.9082 28.9736 78.2695 28.5693C77.6309 28.165 77.1416 27.585 76.8018 26.8291C76.4619 26.0732 76.292 25.2002 76.292 24.21C76.292 22.6514 76.6699 21.4385 77.4258 20.5713C78.1816 19.6982 79.2188 19.2617 80.5371 19.2617C81.8496 19.2617 82.8779 19.7041 83.6221 20.5889C84.3721 21.4678 84.7471 22.6748 84.7471 24.21ZM77.2061 24.21C77.2061 25.5225 77.4932 26.5479 78.0674 27.2861C78.6475 28.0186 79.4648 28.3848 80.5195 28.3848C81.5742 28.3848 82.3887 28.0186 82.9629 27.2861C83.543 26.5479 83.833 25.5225 83.833 24.21C83.833 22.8916 83.54 21.8691 82.9541 21.1426C82.374 20.416 81.5566 20.0527 80.502 20.0527C79.4473 20.0527 78.6328 20.416 78.0586 21.1426C77.4902 21.8633 77.2061 22.8857 77.2061 24.21ZM94.8457 19.4463V20.0527L92.8682 20.1758C93.3955 20.832 93.6592 21.5527 93.6592 22.3379C93.6592 23.2578 93.3516 24.0049 92.7363 24.5791C92.127 25.1475 91.3066 25.4316 90.2754 25.4316C89.8418 25.4316 89.5371 25.4141 89.3613 25.3789C89.0156 25.5605 88.752 25.7744 88.5703 26.0205C88.3887 26.2666 88.2979 26.5273 88.2979 26.8027C88.2979 27.1074 88.4121 27.3301 88.6406 27.4707C88.875 27.6113 89.2646 27.6816 89.8096 27.6816H91.4795C92.5166 27.6816 93.3105 27.8926 93.8613 28.3145C94.4121 28.7305 94.6875 29.3486 94.6875 30.1689C94.6875 31.1768 94.2773 31.9531 93.457 32.498C92.6426 33.0488 91.4795 33.3242 89.9678 33.3242C88.7666 33.3242 87.835 33.0928 87.1729 32.6299C86.5166 32.167 86.1885 31.5225 86.1885 30.6963C86.1885 30.04 86.3906 29.4951 86.7949 29.0615C87.2051 28.6279 87.7588 28.332 88.4561 28.1738C88.1689 28.0508 87.9375 27.8779 87.7617 27.6553C87.5918 27.4268 87.5068 27.166 87.5068 26.873C87.5068 26.2344 87.9141 25.6719 88.7285 25.1855C88.1719 24.957 87.7383 24.5996 87.4277 24.1133C87.1172 23.6211 86.9619 23.0586 86.9619 22.4258C86.9619 21.4707 87.2637 20.7061 87.8672 20.1318C88.4766 19.5518 89.2969 19.2617 90.3281 19.2617C90.9551 19.2617 91.4414 19.3232 91.7871 19.4463H94.8457ZM87.1113 30.6172C87.1113 31.9297 88.0869 32.5859 90.0381 32.5859C92.5459 32.5859 93.7998 31.7861 93.7998 30.1865C93.7998 29.6123 93.6035 29.1963 93.2109 28.9385C92.8184 28.6807 92.1826 28.5518 91.3037 28.5518H89.7393C87.9873 28.5518 87.1113 29.2402 87.1113 30.6172ZM87.8408 22.4258C87.8408 23.1641 88.0635 23.7383 88.5088 24.1484C88.96 24.5527 89.5605 24.7549 90.3105 24.7549C91.1074 24.7549 91.7168 24.5527 92.1387 24.1484C92.5664 23.7441 92.7803 23.1582 92.7803 22.3906C92.7803 21.5762 92.5605 20.9668 92.1211 20.5625C91.6875 20.1523 91.0781 19.9473 90.293 19.9473C89.5312 19.9473 88.9307 20.167 88.4912 20.6064C88.0576 21.04 87.8408 21.6465 87.8408 22.4258ZM109.392 24.21C109.392 25.7686 109.014 26.9873 108.258 27.8662C107.502 28.7393 106.459 29.1758 105.129 29.1758C104.291 29.1758 103.553 28.9736 102.914 28.5693C102.275 28.165 101.786 27.585 101.446 26.8291C101.106 26.0732 100.937 25.2002 100.937 24.21C100.937 22.6514 101.314 21.4385 102.07 20.5713C102.826 19.6982 103.863 19.2617 105.182 19.2617C106.494 19.2617 107.522 19.7041 108.267 20.5889C109.017 21.4678 109.392 22.6748 109.392 24.21ZM101.851 24.21C101.851 25.5225 102.138 26.5479 102.712 27.2861C103.292 28.0186 104.109 28.3848 105.164 28.3848C106.219 28.3848 107.033 28.0186 107.607 27.2861C108.188 26.5479 108.478 25.5225 108.478 24.21C108.478 22.8916 108.185 21.8691 107.599 21.1426C107.019 20.416 106.201 20.0527 105.146 20.0527C104.092 20.0527 103.277 20.416 102.703 21.1426C102.135 21.8633 101.851 22.8857 101.851 24.21ZM112.793 19.4463V25.6338C112.793 26.5947 112.995 27.2949 113.399 27.7344C113.804 28.168 114.431 28.3848 115.28 28.3848C116.417 28.3848 117.252 28.0977 117.785 27.5234C118.324 26.9492 118.594 26.0146 118.594 24.7197V19.4463H119.455V29H118.717L118.559 27.6816H118.506C117.885 28.6777 116.78 29.1758 115.192 29.1758C113.019 29.1758 111.932 28.0127 111.932 25.6865V19.4463H112.793ZM125.177 28.4023C125.728 28.4023 126.208 28.3555 126.618 28.2617V28.9648C126.196 29.1055 125.71 29.1758 125.159 29.1758C124.315 29.1758 123.691 28.9502 123.287 28.499C122.889 28.0479 122.689 27.3389 122.689 26.3721V20.2021H121.274V19.6924L122.689 19.2969L123.129 17.1348H123.577V19.4463H126.381V20.2021H123.577V26.249C123.577 26.9814 123.706 27.5234 123.964 27.875C124.222 28.2266 124.626 28.4023 125.177 28.4023Z" fill="#301E67"/>
</svg>
