<svg width="33" height="32" viewBox="0 0 33 32" fill="none" xmlns="http://www.w3.org/2000/svg">
<g id="logos:facebook" clip-path="url(#clip0_446_662)">
<path id="Vector" d="M32.5 16.0001C32.5 7.16362 25.3365 0.00012207 16.5 0.00012207C7.6635 0.00012207 0.5 7.1635 0.5 16.0001C0.5 23.9861 6.351 30.6055 14 31.8057V20.6251H9.9375V16.0001H14V12.4751C14 8.46512 16.3888 6.25012 20.0434 6.25012C21.794 6.25012 23.625 6.56262 23.625 6.56262V10.5001H21.6075C19.6198 10.5001 19 11.7335 19 12.9989V16.0001H23.4375L22.7281 20.6251H19V31.8057C26.649 30.6055 32.5 23.9862 32.5 16.0001Z" fill="#1877F2"/>
<path id="Vector_2" d="M22.7281 20.6251L23.4375 16.0001H19V12.9989C19 11.7334 19.6199 10.5001 21.6075 10.5001H23.625V6.56262C23.625 6.56262 21.794 6.25012 20.0434 6.25012C16.3888 6.25012 14 8.46512 14 12.4751V16.0001H9.9375V20.6251H14V31.8057C14.827 31.9354 15.6629 32.0003 16.5 32.0001C17.3371 32.0004 18.173 31.9354 19 31.8057V20.6251H22.7281Z" fill="white"/>
</g>
<defs>
<clipPath id="clip0_446_662">
<rect width="32" height="32" fill="white" transform="translate(0.5 0.00012207)"/>
</clipPath>
</defs>
</svg>
