<svg width="20" height="25" viewBox="0 0 20 25" fill="none" xmlns="http://www.w3.org/2000/svg">
<g id="Logout_icon">
<path id="Vector" d="M18 12.5L13.2 7.69995M18 12.5L13.2 17.3M18 12.5H5.99995M12 23.3C10.5817 23.3 9.17729 23.0206 7.86697 22.4779C6.55665 21.9351 5.36607 21.1396 4.3632 20.1367C3.36033 19.1338 2.5648 17.9432 2.02205 16.6329C1.4793 15.3226 1.19995 13.9182 1.19995 12.5C1.19995 11.0817 1.4793 9.67729 2.02205 8.36697C2.5648 7.05665 3.36033 5.86607 4.3632 4.8632C5.36607 3.86033 6.55665 3.0648 7.86697 2.52205C9.17729 1.9793 10.5817 1.69995 12 1.69995" stroke="#301E67" stroke-width="2" stroke-linecap="round" stroke-linejoin="round"/>
</g>
</svg>
