<svg width="24" height="27" viewBox="0 0 24 27" fill="none" xmlns="http://www.w3.org/2000/svg">
<g id="Setting_icon">
<path id="Vector" d="M1 9.99343V16.9944C1 19.5667 1 19.5667 3.42669 21.2048L10.1001 25.0632C11.1072 25.6456 12.7452 25.6456 13.7401 25.0632L20.4135 21.2048C22.8402 19.5667 22.8402 19.5667 22.8402 17.0066V9.99343C22.8402 7.43327 22.8402 7.43327 20.4135 5.79525L13.7401 1.9368C12.7452 1.3544 11.1072 1.3544 10.1001 1.9368L3.42669 5.79525C1 7.43327 1 7.43327 1 9.99343Z" stroke="#301E67" stroke-width="2" stroke-linecap="round" stroke-linejoin="round"/>
<path id="Vector_2" d="M11.9201 17.1399C13.9304 17.1399 15.5601 15.5102 15.5601 13.4999C15.5601 11.4896 13.9304 9.85986 11.9201 9.85986C9.90973 9.85986 8.28003 11.4896 8.28003 13.4999C8.28003 15.5102 9.90973 17.1399 11.9201 17.1399Z" stroke="#301E67" stroke-width="2" stroke-linecap="round" stroke-linejoin="round"/>
</g>
</svg>
