<svg width="192" height="45" viewBox="0 0 192 45" fill="none" xmlns="http://www.w3.org/2000/svg">
<path d="M19 18.9934V25.9944C19 28.5667 19 28.5667 21.4267 30.2048L28.1001 34.0632C29.1072 34.6456 30.7452 34.6456 31.7401 34.0632L38.4135 30.2048C40.8402 28.5667 40.8402 28.5667 40.8402 26.0066V18.9934C40.8402 16.4333 40.8402 16.4333 38.4135 14.7952L31.7401 10.9368C30.7452 10.3544 29.1072 10.3544 28.1001 10.9368L21.4267 14.7952C19 16.4333 19 16.4333 19 18.9934Z" stroke="#301E67" stroke-width="2" stroke-linecap="round" stroke-linejoin="round"/>
<path d="M29.9201 26.1401C31.9304 26.1401 33.5601 24.5104 33.5601 22.5C33.5601 20.4897 31.9304 18.86 29.9201 18.86C27.9097 18.86 26.28 20.4897 26.28 22.5C26.28 24.5104 27.9097 26.1401 29.9201 26.1401Z" stroke="#301E67" stroke-width="2" stroke-linecap="round" stroke-linejoin="round"/>
<path d="M74.9121 25.6865C74.9121 26.7588 74.5166 27.6084 73.7256 28.2354C72.9404 28.8623 71.8945 29.1758 70.5879 29.1758C69.0176 29.1758 67.8135 29.0029 66.9756 28.6572V27.7607C67.9014 28.1533 69.082 28.3496 70.5176 28.3496C71.5723 28.3496 72.4072 28.1094 73.0225 27.6289C73.6436 27.1426 73.9541 26.5068 73.9541 25.7217C73.9541 25.2354 73.8516 24.834 73.6465 24.5176C73.4414 24.1953 73.1074 23.9023 72.6445 23.6387C72.1816 23.375 71.502 23.0908 70.6055 22.7861C69.293 22.335 68.3848 21.8486 67.8809 21.3271C67.3828 20.7998 67.1338 20.0996 67.1338 19.2266C67.1338 18.2656 67.5088 17.4834 68.2588 16.8799C69.0146 16.2705 69.9844 15.9658 71.168 15.9658C72.375 15.9658 73.5088 16.1943 74.5693 16.6514L74.2441 17.4248C73.1777 16.9795 72.1582 16.7568 71.1855 16.7568C70.2363 16.7568 69.4805 16.9766 68.918 17.416C68.3555 17.8555 68.0742 18.4531 68.0742 19.209C68.0742 19.6836 68.1592 20.0732 68.3291 20.3779C68.5049 20.6826 68.7891 20.958 69.1816 21.2041C69.5742 21.4443 70.248 21.7344 71.2031 22.0742C72.2051 22.4199 72.958 22.7568 73.4619 23.085C73.9658 23.4072 74.332 23.7764 74.5605 24.1924C74.7949 24.6025 74.9121 25.1006 74.9121 25.6865ZM81.2666 29.1758C79.8779 29.1758 78.7939 28.748 78.0146 27.8926C77.2412 27.0371 76.8545 25.8389 76.8545 24.2979C76.8545 22.7744 77.2295 21.5557 77.9795 20.6416C78.7295 19.7217 79.7402 19.2617 81.0117 19.2617C82.1367 19.2617 83.0244 19.6543 83.6748 20.4395C84.3252 21.2246 84.6504 22.291 84.6504 23.6387V24.3418H77.7686C77.7803 25.6543 78.085 26.6562 78.6826 27.3477C79.2861 28.0391 80.1475 28.3848 81.2666 28.3848C81.8115 28.3848 82.2891 28.3467 82.6992 28.2705C83.1152 28.1943 83.6396 28.0303 84.2725 27.7783V28.5693C83.7334 28.8037 83.2354 28.9619 82.7783 29.0439C82.3213 29.1318 81.8174 29.1758 81.2666 29.1758ZM81.0117 20.0352C80.0918 20.0352 79.3535 20.3398 78.7969 20.9492C78.2402 21.5527 77.915 22.4258 77.8213 23.5684H83.7275C83.7275 22.4609 83.4873 21.5967 83.0068 20.9756C82.5264 20.3486 81.8613 20.0352 81.0117 20.0352ZM89.8096 28.4023C90.3604 28.4023 90.8408 28.3555 91.251 28.2617V28.9648C90.8291 29.1055 90.3428 29.1758 89.792 29.1758C88.9482 29.1758 88.3242 28.9502 87.9199 28.499C87.5215 28.0479 87.3223 27.3389 87.3223 26.3721V20.2021H85.9072V19.6924L87.3223 19.2969L87.7617 17.1348H88.21V19.4463H91.0137V20.2021H88.21V26.249C88.21 26.9814 88.3389 27.5234 88.5967 27.875C88.8545 28.2266 89.2588 28.4023 89.8096 28.4023ZM95.8389 28.4023C96.3896 28.4023 96.8701 28.3555 97.2803 28.2617V28.9648C96.8584 29.1055 96.3721 29.1758 95.8213 29.1758C94.9775 29.1758 94.3535 28.9502 93.9492 28.499C93.5508 28.0479 93.3516 27.3389 93.3516 26.3721V20.2021H91.9365V19.6924L93.3516 19.2969L93.791 17.1348H94.2393V19.4463H97.043V20.2021H94.2393V26.249C94.2393 26.9814 94.3682 27.5234 94.626 27.875C94.8838 28.2266 95.2881 28.4023 95.8389 28.4023ZM100.216 29H99.3457V19.4463H100.216V29ZM99.2227 16.792C99.2227 16.2295 99.4072 15.9482 99.7764 15.9482C99.958 15.9482 100.099 16.0215 100.198 16.168C100.304 16.3145 100.356 16.5225 100.356 16.792C100.356 17.0557 100.304 17.2637 100.198 17.416C100.099 17.5684 99.958 17.6445 99.7764 17.6445C99.4072 17.6445 99.2227 17.3604 99.2227 16.792ZM110.086 29V22.8037C110.086 21.8428 109.884 21.1455 109.479 20.7119C109.075 20.2725 108.448 20.0527 107.599 20.0527C106.456 20.0527 105.618 20.3428 105.085 20.9229C104.558 21.4971 104.294 22.4316 104.294 23.7266V29H103.424V19.4463H104.162L104.329 20.7559H104.382C105.003 19.7598 106.107 19.2617 107.695 19.2617C109.863 19.2617 110.947 20.4248 110.947 22.751V29H110.086ZM121.494 19.4463V20.0527L119.517 20.1758C120.044 20.832 120.308 21.5527 120.308 22.3379C120.308 23.2578 120 24.0049 119.385 24.5791C118.775 25.1475 117.955 25.4316 116.924 25.4316C116.49 25.4316 116.186 25.4141 116.01 25.3789C115.664 25.5605 115.4 25.7744 115.219 26.0205C115.037 26.2666 114.946 26.5273 114.946 26.8027C114.946 27.1074 115.061 27.3301 115.289 27.4707C115.523 27.6113 115.913 27.6816 116.458 27.6816H118.128C119.165 27.6816 119.959 27.8926 120.51 28.3145C121.061 28.7305 121.336 29.3486 121.336 30.1689C121.336 31.1768 120.926 31.9531 120.105 32.498C119.291 33.0488 118.128 33.3242 116.616 33.3242C115.415 33.3242 114.483 33.0928 113.821 32.6299C113.165 32.167 112.837 31.5225 112.837 30.6963C112.837 30.04 113.039 29.4951 113.443 29.0615C113.854 28.6279 114.407 28.332 115.104 28.1738C114.817 28.0508 114.586 27.8779 114.41 27.6553C114.24 27.4268 114.155 27.166 114.155 26.873C114.155 26.2344 114.562 25.6719 115.377 25.1855C114.82 24.957 114.387 24.5996 114.076 24.1133C113.766 23.6211 113.61 23.0586 113.61 22.4258C113.61 21.4707 113.912 20.7061 114.516 20.1318C115.125 19.5518 115.945 19.2617 116.977 19.2617C117.604 19.2617 118.09 19.3232 118.436 19.4463H121.494ZM113.76 30.6172C113.76 31.9297 114.735 32.5859 116.687 32.5859C119.194 32.5859 120.448 31.7861 120.448 30.1865C120.448 29.6123 120.252 29.1963 119.859 28.9385C119.467 28.6807 118.831 28.5518 117.952 28.5518H116.388C114.636 28.5518 113.76 29.2402 113.76 30.6172ZM114.489 22.4258C114.489 23.1641 114.712 23.7383 115.157 24.1484C115.608 24.5527 116.209 24.7549 116.959 24.7549C117.756 24.7549 118.365 24.5527 118.787 24.1484C119.215 23.7441 119.429 23.1582 119.429 22.3906C119.429 21.5762 119.209 20.9668 118.77 20.5625C118.336 20.1523 117.727 19.9473 116.941 19.9473C116.18 19.9473 115.579 20.167 115.14 20.6064C114.706 21.04 114.489 21.6465 114.489 22.4258Z" fill="#301E67"/>
</svg>
