<svg width="24" height="26" viewBox="0 0 24 26" fill="none" xmlns="http://www.w3.org/2000/svg">
<g id="Setting_icon">
<path id="Vector" d="M1 9.49343V16.4944C1 19.0667 1 19.0667 3.42669 20.7048L10.1001 24.5632C11.1072 25.1456 12.7452 25.1456 13.7401 24.5632L20.4135 20.7048C22.8402 19.0667 22.8402 19.0667 22.8402 16.5066V9.49343C22.8402 6.93327 22.8402 6.93327 20.4135 5.29525L13.7401 1.4368C12.7452 0.854398 11.1072 0.854398 10.1001 1.4368L3.42669 5.29525C1 6.93327 1 6.93327 1 9.49343Z" fill="white" stroke="white" stroke-width="2" stroke-linecap="round" stroke-linejoin="round"/>
<path id="Vector_2" d="M11.9201 16.6401C13.9304 16.6401 15.5601 15.0104 15.5601 13C15.5601 10.9897 13.9304 9.35999 11.9201 9.35999C9.90973 9.35999 8.28003 10.9897 8.28003 13C8.28003 15.0104 9.90973 16.6401 11.9201 16.6401Z" fill="#301E67" stroke="#301E67" stroke-width="2" stroke-linecap="round" stroke-linejoin="round"/>
</g>
</svg>
