<svg width="192" height="47" viewBox="0 0 192 47" fill="none" xmlns="http://www.w3.org/2000/svg">
<g clip-path="url(#clip0_47_986)">
<path d="M24.2497 16.6176C24.2497 15.6036 24.6448 14.6311 25.348 13.914C26.0513 13.197 27.005 12.7941 27.9995 12.7941C28.9941 12.7941 29.9478 13.197 30.6511 13.914C31.3543 14.6311 31.7494 15.6036 31.7494 16.6176C31.7494 17.6317 31.3543 18.6042 30.6511 19.3213C29.9478 20.0383 28.9941 20.4412 27.9995 20.4412C27.005 20.4412 26.0513 20.0383 25.348 19.3213C24.6448 18.6042 24.2497 17.6317 24.2497 16.6176ZM27.9995 10.5C26.4083 10.5 24.8823 11.1445 23.7571 12.2918C22.632 13.4391 21.9999 14.9951 21.9999 16.6176C21.9999 18.2401 22.632 19.7962 23.7571 20.9435C24.8823 22.0908 26.4083 22.7353 27.9995 22.7353C29.5908 22.7353 31.1168 22.0908 32.242 20.9435C33.3671 19.7962 33.9993 18.2401 33.9993 16.6176C33.9993 14.9951 33.3671 13.4391 32.242 12.2918C31.1168 11.1445 29.5908 10.5 27.9995 10.5ZM39.249 18.1471C39.249 17.5386 39.486 16.9551 39.908 16.5249C40.3299 16.0946 40.9022 15.8529 41.4989 15.8529C42.0956 15.8529 42.6678 16.0946 43.0898 16.5249C43.5117 16.9551 43.7488 17.5386 43.7488 18.1471C43.7488 18.7555 43.5117 19.339 43.0898 19.7692C42.6678 20.1995 42.0956 20.4412 41.4989 20.4412C40.9022 20.4412 40.3299 20.1995 39.908 19.7692C39.486 19.339 39.249 18.7555 39.249 18.1471ZM41.4989 13.5588C40.3055 13.5588 39.1609 14.0422 38.3171 14.9027C37.4732 15.7631 36.9991 16.9302 36.9991 18.1471C36.9991 19.3639 37.4732 20.531 38.3171 21.3914C39.1609 22.2519 40.3055 22.7353 41.4989 22.7353C42.6923 22.7353 43.8368 22.2519 44.6807 21.3914C45.5246 20.531 45.9986 19.3639 45.9986 18.1471C45.9986 16.9302 45.5246 15.7631 44.6807 14.9027C43.8368 14.0422 42.6923 13.5588 41.4989 13.5588ZM37.3711 33.4993C38.4255 33.9352 39.777 34.2059 41.5004 34.2059C44.9232 34.2059 46.8791 33.1399 47.9456 31.8231C48.463 31.1838 48.7255 30.5384 48.8605 30.0444C48.9374 29.7581 48.9842 29.4643 49 29.168V29.1267C49 28.6891 48.9155 28.2557 48.7512 27.8514C48.587 27.4471 48.3462 27.0797 48.0427 26.7702C47.7392 26.4608 47.3789 26.2153 46.9824 26.0478C46.5859 25.8803 46.1609 25.7941 45.7317 25.7941H37.2691C37.2271 25.7941 37.1866 25.7941 37.1461 25.7972C37.7371 26.4242 38.166 27.2119 38.37 28.0882H45.7317C46.2896 28.0882 46.7426 28.5455 46.7501 29.1114C46.7394 29.2211 46.7193 29.3296 46.6901 29.4356C46.5975 29.7758 46.4337 30.0914 46.2101 30.3609C45.6852 31.0125 44.4522 31.9118 41.5004 31.9118C40.0304 31.9118 38.9865 31.6885 38.2455 31.3841C38.0835 31.9959 37.8166 32.7346 37.3711 33.4993ZM22.3748 25.7941C21.4798 25.7941 20.6214 26.1567 19.9885 26.802C19.3556 27.4474 19 28.3226 19 29.2353V29.6605C19.0018 29.7668 19.0088 29.873 19.021 29.9786C19.1449 31.1166 19.546 32.205 20.1879 33.1445C21.4149 34.9308 23.7578 36.5 27.9995 36.5C32.2413 36.5 34.5842 34.9324 35.8112 33.1429C36.4532 32.2035 36.8544 31.1151 36.9781 29.9771C36.9887 29.8718 36.9957 29.7662 36.9991 29.6605V29.2353C36.9991 28.3226 36.6435 27.4474 36.0106 26.802C35.3777 26.1567 34.5193 25.7941 33.6243 25.7941H22.3748ZM21.2499 29.6284V29.2353C21.2499 28.9311 21.3684 28.6393 21.5794 28.4242C21.7903 28.2091 22.0765 28.0882 22.3748 28.0882H33.6243C33.9226 28.0882 34.2088 28.2091 34.4197 28.4242C34.6307 28.6393 34.7492 28.9311 34.7492 29.2353V29.6284L34.7387 29.7507C34.6532 30.4972 34.3884 31.2106 33.9678 31.8276C33.2283 32.9059 31.6324 34.2059 27.9995 34.2059C24.3667 34.2059 22.7708 32.9059 22.0298 31.8276C21.6097 31.2104 21.3454 30.497 21.2604 29.7507C21.2558 29.71 21.2523 29.6692 21.2499 29.6284Z" fill="#301E67"/>
</g>
<path d="M74.8857 26.6865C74.8857 27.4541 74.6924 28.0986 74.3057 28.6201C73.9189 29.1357 73.3945 29.5254 72.7324 29.7891C72.0703 30.0469 71.3203 30.1758 70.4824 30.1758C69.9609 30.1758 69.4863 30.1494 69.0586 30.0967C68.6367 30.0498 68.2529 29.9854 67.9072 29.9033C67.5674 29.8213 67.2568 29.7275 66.9756 29.6221V28.7168C67.4326 28.8926 67.96 29.0479 68.5576 29.1826C69.1611 29.3115 69.8174 29.376 70.5264 29.376C71.1943 29.376 71.7861 29.2793 72.3018 29.0859C72.8232 28.8926 73.2334 28.5996 73.5322 28.207C73.8311 27.8145 73.9805 27.3193 73.9805 26.7217C73.9805 26.1943 73.8545 25.7637 73.6025 25.4297C73.3564 25.0898 72.9844 24.7998 72.4863 24.5596C71.9883 24.3135 71.3613 24.0645 70.6055 23.8125C70.0781 23.6309 69.5977 23.4404 69.1641 23.2412C68.7363 23.0361 68.3701 22.8018 68.0654 22.5381C67.7607 22.2686 67.5264 21.9463 67.3623 21.5713C67.2041 21.1904 67.125 20.7422 67.125 20.2266C67.125 19.5176 67.3037 18.9229 67.6611 18.4424C68.0244 17.9561 68.5137 17.5898 69.1289 17.3438C69.75 17.0918 70.4473 16.9658 71.2207 16.9658C71.8359 16.9658 72.4189 17.0244 72.9697 17.1416C73.5264 17.2529 74.0625 17.4229 74.5781 17.6514L74.2617 18.4336C73.7461 18.2109 73.2305 18.0469 72.7148 17.9414C72.1992 17.8359 71.6895 17.7832 71.1855 17.7832C70.582 17.7832 70.043 17.874 69.5684 18.0557C69.0996 18.2314 68.7275 18.498 68.4521 18.8555C68.1768 19.2129 68.0391 19.6641 68.0391 20.209C68.0391 20.7715 68.165 21.2256 68.417 21.5713C68.6748 21.917 69.0381 22.2041 69.5068 22.4326C69.9814 22.6611 70.541 22.8838 71.1855 23.1006C71.9473 23.3584 72.6035 23.6309 73.1543 23.918C73.7051 24.1992 74.1299 24.5566 74.4287 24.9902C74.7334 25.4238 74.8857 25.9893 74.8857 26.6865ZM79.9922 29.4111C80.2676 29.4111 80.5225 29.3906 80.7568 29.3496C80.9971 29.3086 81.208 29.2559 81.3896 29.1914V29.9297C81.2021 29.9941 80.9824 30.0498 80.7305 30.0967C80.4785 30.1494 80.2002 30.1758 79.8955 30.1758C79.3564 30.1758 78.9082 30.0762 78.5508 29.877C78.1934 29.6719 77.9238 29.3643 77.7422 28.9541C77.5605 28.5381 77.4697 28.0107 77.4697 27.3721V21.1846H76.0459V20.6572L77.4609 20.3848L77.7686 18.1348H78.3574V20.4463H81.3369V21.1846H78.3574V27.3193C78.3574 28.0049 78.4834 28.5264 78.7354 28.8838C78.9932 29.2354 79.4121 29.4111 79.9922 29.4111ZM86.7773 20.2793C87.8262 20.2793 88.6113 20.543 89.1328 21.0703C89.6543 21.5977 89.915 22.4385 89.915 23.5928V30H89.2295L89.0713 28.3301H89.0186C88.8135 28.6875 88.5645 29.0068 88.2715 29.2881C87.9785 29.5635 87.6182 29.7803 87.1904 29.9385C86.7686 30.0967 86.2529 30.1758 85.6436 30.1758C85.0283 30.1758 84.501 30.0732 84.0615 29.8682C83.6279 29.6631 83.291 29.3643 83.0508 28.9717C82.8164 28.5791 82.6992 28.1016 82.6992 27.5391C82.6992 26.5898 83.0918 25.8691 83.877 25.377C84.6621 24.8789 85.79 24.5977 87.2607 24.5332L89.0361 24.4453V23.751C89.0361 22.7725 88.8428 22.0752 88.4561 21.6592C88.0693 21.2432 87.498 21.0352 86.7422 21.0352C86.25 21.0352 85.7754 21.0996 85.3184 21.2285C84.8672 21.3516 84.4072 21.5303 83.9385 21.7646L83.6572 21.0264C84.1143 20.8096 84.6035 20.6309 85.125 20.4902C85.6523 20.3496 86.2031 20.2793 86.7773 20.2793ZM89.0273 25.1396L87.3574 25.21C86.1445 25.2686 85.2217 25.4854 84.5889 25.8604C83.9561 26.2354 83.6396 26.7979 83.6396 27.5479C83.6396 28.1514 83.8271 28.6143 84.2021 28.9365C84.583 29.2588 85.1104 29.4199 85.7842 29.4199C86.833 29.4199 87.6328 29.1211 88.1836 28.5234C88.7402 27.9258 89.0215 27.1113 89.0273 26.0801V25.1396ZM96.542 21.1846H94.292V30H93.4043V21.1846H91.6289V20.6572L93.4043 20.4287V19.374C93.4043 18.6709 93.5039 18.0879 93.7031 17.625C93.9082 17.1562 94.2158 16.8076 94.626 16.5791C95.042 16.3447 95.5664 16.2275 96.1992 16.2275C96.5273 16.2275 96.8232 16.2539 97.0869 16.3066C97.3506 16.3535 97.5967 16.415 97.8252 16.4912L97.623 17.2383C97.418 17.168 97.1895 17.1094 96.9375 17.0625C96.6914 17.0156 96.4482 16.9922 96.208 16.9922C95.5342 16.9922 95.0449 17.1797 94.7402 17.5547C94.4414 17.9238 94.292 18.5273 94.292 19.3652V20.4463H96.542V21.1846ZM101.947 21.1846H99.6973V30H98.8096V21.1846H97.0342V20.6572L98.8096 20.4287V19.374C98.8096 18.6709 98.9092 18.0879 99.1084 17.625C99.3135 17.1562 99.6211 16.8076 100.031 16.5791C100.447 16.3447 100.972 16.2275 101.604 16.2275C101.933 16.2275 102.229 16.2539 102.492 16.3066C102.756 16.3535 103.002 16.415 103.23 16.4912L103.028 17.2383C102.823 17.168 102.595 17.1094 102.343 17.0625C102.097 17.0156 101.854 16.9922 101.613 16.9922C100.939 16.9922 100.45 17.1797 100.146 17.5547C99.8467 17.9238 99.6973 18.5273 99.6973 19.3652V20.4463H101.947V21.1846ZM109.77 27.4951C109.77 28.0635 109.626 28.5498 109.339 28.9541C109.058 29.3525 108.645 29.6572 108.1 29.8682C107.555 30.0732 106.884 30.1758 106.087 30.1758C105.425 30.1758 104.833 30.1172 104.312 30C103.79 29.8828 103.354 29.7393 103.002 29.5693V28.6904C103.441 28.9072 103.928 29.083 104.461 29.2178C104.994 29.3525 105.542 29.4199 106.104 29.4199C107.089 29.4199 107.798 29.2529 108.231 28.9189C108.665 28.585 108.882 28.1279 108.882 27.5479C108.882 27.167 108.773 26.8535 108.557 26.6074C108.346 26.3555 108.041 26.1387 107.643 25.957C107.244 25.7754 106.764 25.5908 106.201 25.4033C105.615 25.2041 105.094 25.0078 104.637 24.8145C104.186 24.6152 103.831 24.3545 103.573 24.0322C103.315 23.7041 103.187 23.2588 103.187 22.6963C103.187 21.9287 103.494 21.3311 104.109 20.9033C104.725 20.4756 105.551 20.2617 106.588 20.2617C107.162 20.2617 107.695 20.3174 108.188 20.4287C108.686 20.5342 109.137 20.6719 109.541 20.8418L109.225 21.5977C108.861 21.4277 108.442 21.29 107.968 21.1846C107.493 21.0791 107.019 21.0264 106.544 21.0264C105.765 21.0264 105.155 21.1641 104.716 21.4395C104.276 21.7148 104.057 22.1191 104.057 22.6523C104.057 23.0625 104.162 23.3848 104.373 23.6191C104.584 23.8477 104.886 24.041 105.278 24.1992C105.671 24.3516 106.137 24.5215 106.676 24.709C107.232 24.9023 107.745 25.1045 108.214 25.3154C108.688 25.5264 109.066 25.7988 109.348 26.1328C109.629 26.4668 109.77 26.9209 109.77 27.4951Z" fill="#301E67"/>
<defs>
<clipPath id="clip0_47_986">
<rect width="30" height="26" fill="white" transform="translate(19 10.5)"/>
</clipPath>
</defs>
</svg>
