<svg width="30" height="27" viewBox="0 0 30 27" fill="none" xmlns="http://www.w3.org/2000/svg">
<g clip-path="url(#clip0_575_502)">
<path d="M5.24974 6.61765C5.24974 5.60358 5.64481 4.63105 6.34803 3.914C7.05126 3.19695 8.00504 2.79412 8.99955 2.79412C9.99406 2.79412 10.9478 3.19695 11.6511 3.914C12.3543 4.63105 12.7494 5.60358 12.7494 6.61765C12.7494 7.63171 12.3543 8.60424 11.6511 9.32129C10.9478 10.0383 9.99406 10.4412 8.99955 10.4412C8.00504 10.4412 7.05126 10.0383 6.34803 9.32129C5.64481 8.60424 5.24974 7.63171 5.24974 6.61765ZM8.99955 0.5C7.40833 0.5 5.88228 1.14454 4.75712 2.29182C3.63196 3.4391 2.99985 4.99515 2.99985 6.61765C2.99985 8.24015 3.63196 9.7962 4.75712 10.9435C5.88228 12.0908 7.40833 12.7353 8.99955 12.7353C10.5908 12.7353 12.1168 12.0908 13.242 10.9435C14.3671 9.7962 14.9993 8.24015 14.9993 6.61765C14.9993 4.99515 14.3671 3.4391 13.242 2.29182C12.1168 1.14454 10.5908 0.5 8.99955 0.5ZM20.249 8.14706C20.249 7.53862 20.486 6.9551 20.908 6.52487C21.3299 6.09464 21.9022 5.85294 22.4989 5.85294C23.0956 5.85294 23.6678 6.09464 24.0898 6.52487C24.5117 6.9551 24.7488 7.53862 24.7488 8.14706C24.7488 8.7555 24.5117 9.33902 24.0898 9.76925C23.6678 10.1995 23.0956 10.4412 22.4989 10.4412C21.9022 10.4412 21.3299 10.1995 20.908 9.76925C20.486 9.33902 20.249 8.7555 20.249 8.14706ZM22.4989 3.55882C21.3055 3.55882 20.1609 4.04223 19.3171 4.90269C18.4732 5.76315 17.9991 6.93018 17.9991 8.14706C17.9991 9.36393 18.4732 10.531 19.3171 11.3914C20.1609 12.2519 21.3055 12.7353 22.4989 12.7353C23.6923 12.7353 24.8368 12.2519 25.6807 11.3914C26.5246 10.531 26.9986 9.36393 26.9986 8.14706C26.9986 6.93018 26.5246 5.76315 25.6807 4.90269C24.8368 4.04223 23.6923 3.55882 22.4989 3.55882ZM18.3711 23.4993C19.4255 23.9352 20.777 24.2059 22.5004 24.2059C25.9232 24.2059 27.8791 23.1399 28.9456 21.8231C29.463 21.1838 29.7255 20.5384 29.8605 20.0444C29.9374 19.7581 29.9842 19.4643 30 19.168V19.1267C30 18.6891 29.9155 18.2557 29.7512 17.8514C29.587 17.4471 29.3462 17.0797 29.0427 16.7702C28.7392 16.4608 28.3789 16.2153 27.9824 16.0478C27.5859 15.8803 27.1609 15.7941 26.7317 15.7941H18.2691C18.2271 15.7941 18.1866 15.7941 18.1461 15.7972C18.7371 16.4242 19.166 17.2119 19.37 18.0882H26.7317C27.2896 18.0882 27.7426 18.5455 27.7501 19.1114C27.7394 19.2211 27.7193 19.3296 27.6901 19.4356C27.5975 19.7758 27.4337 20.0914 27.2101 20.3609C26.6852 21.0125 25.4522 21.9118 22.5004 21.9118C21.0304 21.9118 19.9865 21.6885 19.2455 21.3841C19.0835 21.9959 18.8166 22.7346 18.3711 23.4993ZM3.37483 15.7941C2.47977 15.7941 1.62137 16.1567 0.988465 16.802C0.355562 17.4474 0 18.3226 0 19.2353V19.6605C0.00176281 19.7668 0.00877123 19.873 0.0209989 19.9786C0.144862 21.1166 0.546026 22.205 1.18794 23.1445C2.41488 24.9308 4.75776 26.5 8.99955 26.5C13.2413 26.5 15.5842 24.9324 16.8112 23.1429C17.4532 22.2035 17.8544 21.1151 17.9781 19.9771C17.9887 19.8718 17.9957 19.7662 17.9991 19.6605V19.2353C17.9991 18.3226 17.6435 17.4474 17.0106 16.802C16.3777 16.1567 15.5193 15.7941 14.6243 15.7941H3.37483ZM2.24989 19.6284V19.2353C2.24989 18.9311 2.36841 18.6393 2.57938 18.4242C2.79034 18.2091 3.07648 18.0882 3.37483 18.0882H14.6243C14.9226 18.0882 15.2088 18.2091 15.4197 18.4242C15.6307 18.6393 15.7492 18.9311 15.7492 19.2353V19.6284L15.7387 19.7507C15.6532 20.4972 15.3884 21.2106 14.9678 21.8276C14.2283 22.9059 12.6324 24.2059 8.99955 24.2059C5.36673 24.2059 3.77081 22.9059 3.02985 21.8276C2.60971 21.2104 2.34541 20.497 2.26039 19.7507C2.25584 19.71 2.25233 19.6692 2.24989 19.6284Z" fill="#301E67"/>
</g>
<defs>
<clipPath id="clip0_575_502">
<rect width="30" height="26" fill="white" transform="translate(0 0.5)"/>
</clipPath>
</defs>
</svg>
